G04 Layer_Color=8388736*
%FSTAX24Y24*%
%MOIN*%
G70*
G01*
G75*
%ADD54R,0.0284X0.0276*%
%ADD55R,0.0347X0.0426*%
%ADD56R,0.0462X0.0469*%
%ADD57R,0.0469X0.0462*%
%ADD58R,0.0513X0.0611*%
%ADD59R,0.0267X0.0277*%
%ADD60R,0.0336X0.0434*%
%ADD61R,0.0316X0.0375*%
%ADD62R,0.0482X0.0489*%
%ADD63R,0.0489X0.0482*%
%ADD64R,0.0458X0.0627*%
%ADD65R,0.0462X0.0659*%
%ADD66R,0.0659X0.0462*%
%ADD67R,0.0482X0.1151*%
%ADD68R,0.1025X0.1419*%
%ADD69R,0.0474X0.0316*%
%ADD70R,0.0631X0.0474*%
G04:AMPARAMS|DCode=71|XSize=56.8mil|YSize=29.7mil|CornerRadius=6.7mil|HoleSize=0mil|Usage=FLASHONLY|Rotation=0.000|XOffset=0mil|YOffset=0mil|HoleType=Round|Shape=RoundedRectangle|*
%AMROUNDEDRECTD71*
21,1,0.0568,0.0162,0,0,0.0*
21,1,0.0434,0.0297,0,0,0.0*
1,1,0.0134,0.0217,-0.0081*
1,1,0.0134,-0.0217,-0.0081*
1,1,0.0134,-0.0217,0.0081*
1,1,0.0134,0.0217,0.0081*
%
%ADD71ROUNDEDRECTD71*%
%ADD72O,0.0710X0.0966*%
%ADD73C,0.0710*%
%ADD74R,0.0710X0.0710*%
%ADD75C,0.0749*%
%ADD76R,0.0730X0.0730*%
%ADD77R,0.0730X0.0730*%
%ADD78C,0.0730*%
%ADD79O,0.0830X0.0780*%
%ADD80R,0.0780X0.0780*%
%ADD81C,0.0680*%
%ADD82R,0.0680X0.0680*%
%ADD83C,0.0039*%
%ADD84C,0.1575*%
%ADD85C,0.0171*%
G36*
X039405Y02499D02*
X03941Y024989D01*
X039415Y024987D01*
X03942Y024985D01*
X039424Y024982D01*
X039428Y024978D01*
X039432Y024974D01*
X039435Y02497D01*
X039437Y024965D01*
X039439Y02496D01*
X03944Y024955D01*
X03944Y02495D01*
X03944Y02475D01*
X03944Y024745D01*
X039439Y02474D01*
X039437Y024735D01*
X039435Y02473D01*
X039432Y024726D01*
X039428Y024722D01*
X039178Y024472D01*
X039174Y024468D01*
X03917Y024465D01*
X039165Y024463D01*
X03916Y024461D01*
X039155Y02446D01*
X03915Y02446D01*
X03805Y02446D01*
D01*
X03805D01*
X038045Y02446D01*
X03804Y024461D01*
X038035Y024463D01*
X038032Y024464D01*
X03803Y024465D01*
X038026Y024468D01*
X038022Y024472D01*
X037822Y024672D01*
X037818Y024676D01*
X037815Y02468D01*
X037813Y024685D01*
X037811Y02469D01*
X03781Y024695D01*
X03781Y0247D01*
X03781Y02495D01*
X03781Y024955D01*
X037811Y02496D01*
X037813Y024965D01*
X037815Y02497D01*
X037818Y024974D01*
X037822Y024978D01*
X037826Y024982D01*
X03783Y024985D01*
X037835Y024987D01*
X03784Y024989D01*
X037845Y02499D01*
X03785Y02499D01*
X0394D01*
X039405Y02499D01*
D02*
G37*
D54*
X03855Y024869D02*
D03*
Y025231D02*
D03*
D55*
X032649Y04345D02*
D03*
X0332D02*
D03*
X032649Y04515D02*
D03*
X0332D02*
D03*
X032674Y04685D02*
D03*
X033226D02*
D03*
X032649Y04855D02*
D03*
X0332D02*
D03*
X040074Y021634D02*
D03*
X040626D02*
D03*
X043776Y0235D02*
D03*
X043224D02*
D03*
X043776Y0226D02*
D03*
X043224D02*
D03*
X043776Y0218D02*
D03*
X043224D02*
D03*
X040776Y0263D02*
D03*
X040224D02*
D03*
D56*
X0325Y029539D02*
D03*
Y028961D02*
D03*
D57*
X033389Y03425D02*
D03*
X032811D02*
D03*
X033439Y032272D02*
D03*
X032861D02*
D03*
D58*
X034263Y03035D02*
D03*
X033337D02*
D03*
X034263Y026D02*
D03*
X033337D02*
D03*
X03265Y0428D02*
D03*
X031725D02*
D03*
X032663Y044467D02*
D03*
X031737D02*
D03*
X032663Y046133D02*
D03*
X031737D02*
D03*
X032663Y0478D02*
D03*
X031737D02*
D03*
D59*
X0328Y03325D02*
D03*
X032397D02*
D03*
X032848Y031294D02*
D03*
X033252D02*
D03*
X039298Y0258D02*
D03*
X039702D02*
D03*
D60*
X035035Y028D02*
D03*
X034465D02*
D03*
X035035Y0288D02*
D03*
X034465D02*
D03*
X035085Y02365D02*
D03*
X034515D02*
D03*
X035085Y02445D02*
D03*
X034515D02*
D03*
D61*
X03915Y024833D02*
D03*
Y025267D02*
D03*
D62*
X0325Y025189D02*
D03*
Y024611D02*
D03*
D63*
X049089Y0473D02*
D03*
X048511D02*
D03*
X049089Y0482D02*
D03*
X048511D02*
D03*
X049939Y04005D02*
D03*
X049361D02*
D03*
X049929Y04085D02*
D03*
X04935D02*
D03*
X031689Y0412D02*
D03*
X031111D02*
D03*
X029289Y04115D02*
D03*
X028711D02*
D03*
D64*
X049339Y0393D02*
D03*
X049961D02*
D03*
D65*
X050016Y044105D02*
D03*
X049362D02*
D03*
D66*
X03905Y030023D02*
D03*
Y030677D02*
D03*
X0428Y047073D02*
D03*
Y047727D02*
D03*
D67*
X040901Y0226D02*
D03*
X039799D02*
D03*
D68*
X042Y0258D02*
D03*
X044283D02*
D03*
D69*
X032778Y0284D02*
D03*
X033722Y028774D02*
D03*
Y028026D02*
D03*
X032778Y02405D02*
D03*
X033722Y024424D02*
D03*
Y023676D02*
D03*
D70*
X033985Y042737D02*
D03*
X034851Y043111D02*
D03*
Y042363D02*
D03*
X033985Y04445D02*
D03*
X034851Y044824D02*
D03*
Y044076D02*
D03*
X033985Y046163D02*
D03*
X034851Y046537D02*
D03*
Y045789D02*
D03*
X033985Y0479D02*
D03*
X034851Y048274D02*
D03*
Y047526D02*
D03*
D71*
X039933Y024874D02*
D03*
Y0245D02*
D03*
Y024126D02*
D03*
X040867D02*
D03*
Y0245D02*
D03*
Y024874D02*
D03*
D72*
X031111Y039801D02*
D03*
X032111D02*
D03*
Y036454D02*
D03*
X031111D02*
D03*
X0287Y039773D02*
D03*
X0297D02*
D03*
Y036427D02*
D03*
X0287D02*
D03*
D73*
X05005Y03745D02*
D03*
X04805D02*
D03*
X04905D02*
D03*
X0501Y0455D02*
D03*
X0481D02*
D03*
X0491D02*
D03*
D74*
X04705Y03745D02*
D03*
X0471Y0455D02*
D03*
D75*
X0294Y0187D02*
D03*
X0405D02*
D03*
X034875D02*
D03*
D76*
X0314D02*
D03*
X0425D02*
D03*
X036875D02*
D03*
D77*
X0378Y0477D02*
D03*
D78*
Y0467D02*
D03*
Y0457D02*
D03*
Y0447D02*
D03*
Y0437D02*
D03*
Y0427D02*
D03*
Y0417D02*
D03*
Y0407D02*
D03*
Y0397D02*
D03*
Y0387D02*
D03*
Y0377D02*
D03*
Y0367D02*
D03*
Y0357D02*
D03*
Y0347D02*
D03*
Y0337D02*
D03*
Y0327D02*
D03*
Y0317D02*
D03*
Y0307D02*
D03*
Y0297D02*
D03*
Y0287D02*
D03*
X0438D02*
D03*
Y0297D02*
D03*
Y0307D02*
D03*
Y0317D02*
D03*
Y0327D02*
D03*
Y0337D02*
D03*
Y0347D02*
D03*
Y0357D02*
D03*
Y0367D02*
D03*
Y0377D02*
D03*
Y0387D02*
D03*
Y0397D02*
D03*
Y0407D02*
D03*
Y0417D02*
D03*
Y0427D02*
D03*
Y0437D02*
D03*
Y0447D02*
D03*
Y0457D02*
D03*
Y0467D02*
D03*
Y0477D02*
D03*
D79*
X03027Y03321D02*
D03*
Y03421D02*
D03*
X0302Y029401D02*
D03*
X03017Y025D02*
D03*
D80*
X03027Y03221D02*
D03*
X0302Y028401D02*
D03*
X03017Y024D02*
D03*
D81*
X02995Y04775D02*
D03*
Y04675D02*
D03*
Y04575D02*
D03*
Y04475D02*
D03*
D82*
Y04375D02*
D03*
D83*
X0445Y0275D02*
D03*
X043D02*
D03*
X0415D02*
D03*
X04D02*
D03*
X0385D02*
D03*
X0505Y0245D02*
D03*
Y026D02*
D03*
Y0275D02*
D03*
Y029D02*
D03*
Y0305D02*
D03*
Y032D02*
D03*
Y0335D02*
D03*
Y035D02*
D03*
X0291Y0295D02*
D03*
Y029D02*
D03*
Y0285D02*
D03*
Y028D02*
D03*
Y0275D02*
D03*
Y027D02*
D03*
X039Y0294D02*
D03*
X0291Y0215D02*
D03*
Y022D02*
D03*
Y0225D02*
D03*
Y023D02*
D03*
Y0235D02*
D03*
Y024D02*
D03*
Y0245D02*
D03*
Y025D02*
D03*
X0494Y0434D02*
D03*
X05D02*
D03*
X0402Y046D02*
D03*
X042D02*
D03*
X043Y0489D02*
D03*
X0435D02*
D03*
X044D02*
D03*
X0445D02*
D03*
X045D02*
D03*
X0455D02*
D03*
X0507Y0475D02*
D03*
X0495Y0489D02*
D03*
X049D02*
D03*
X0485D02*
D03*
X048D02*
D03*
X0475D02*
D03*
X047D02*
D03*
X0465D02*
D03*
X046D02*
D03*
X0505Y0415D02*
D03*
Y042D02*
D03*
Y0425D02*
D03*
Y043D02*
D03*
Y0205D02*
D03*
X0495D02*
D03*
X0485D02*
D03*
X0475D02*
D03*
X0465D02*
D03*
X0505Y023D02*
D03*
X0495D02*
D03*
X0485D02*
D03*
X0475D02*
D03*
X0465D02*
D03*
X0315Y022D02*
D03*
X031Y0215D02*
D03*
X0305Y021D02*
D03*
X03Y0205D02*
D03*
X0355Y0222D02*
D03*
X0345D02*
D03*
X0335D02*
D03*
X0325D02*
D03*
X045Y0295D02*
D03*
X042D02*
D03*
X045Y0315D02*
D03*
X042D02*
D03*
X037Y032D02*
D03*
Y0335D02*
D03*
X045Y048D02*
D03*
Y0385D02*
D03*
Y041D02*
D03*
Y0435D02*
D03*
X034Y0395D02*
D03*
X033D02*
D03*
X034Y0375D02*
D03*
X033D02*
D03*
X0315D02*
D03*
X0305D02*
D03*
X0295D02*
D03*
X037Y0225D02*
D03*
Y0235D02*
D03*
Y0245D02*
D03*
Y0255D02*
D03*
Y0265D02*
D03*
X0323Y03125D02*
D03*
X0309Y031D02*
D03*
X0279D02*
D03*
Y033D02*
D03*
Y0335D02*
D03*
Y03475D02*
D03*
Y0378D02*
D03*
Y039D02*
D03*
Y0403D02*
D03*
X0507Y0398D02*
D03*
X0487Y0393D02*
D03*
X0402Y0488D02*
D03*
X0397D02*
D03*
X0392D02*
D03*
X0387D02*
D03*
X0382D02*
D03*
X0377D02*
D03*
X0372D02*
D03*
X0367D02*
D03*
X0362D02*
D03*
X0302Y0425D02*
D03*
X0297D02*
D03*
X0292D02*
D03*
X0287D02*
D03*
X0282D02*
D03*
X0277D02*
D03*
X0337Y0434D02*
D03*
Y0451D02*
D03*
Y0469D02*
D03*
Y0485D02*
D03*
X0402Y0335D02*
D03*
Y036D02*
D03*
Y0385D02*
D03*
Y041D02*
D03*
Y0435D02*
D03*
X042Y0335D02*
D03*
Y036D02*
D03*
Y0385D02*
D03*
Y041D02*
D03*
Y0435D02*
D03*
X041Y0215D02*
D03*
X0415D02*
D03*
X042D02*
D03*
X0425D02*
D03*
Y022D02*
D03*
X042D02*
D03*
X0415D02*
D03*
Y0225D02*
D03*
X042D02*
D03*
X0425D02*
D03*
Y023D02*
D03*
X042D02*
D03*
X0415D02*
D03*
Y0235D02*
D03*
X042D02*
D03*
X0425D02*
D03*
Y024D02*
D03*
X042D02*
D03*
X0415D02*
D03*
X0495Y0505D02*
D03*
X05D02*
D03*
X049D02*
D03*
X0485D02*
D03*
X048D02*
D03*
X0475D02*
D03*
X047D02*
D03*
X0465D02*
D03*
X046D02*
D03*
X0455D02*
D03*
X045D02*
D03*
X0445D02*
D03*
X044D02*
D03*
X0435D02*
D03*
X043D02*
D03*
X0425D02*
D03*
X042D02*
D03*
X0415D02*
D03*
X041D02*
D03*
X0405D02*
D03*
X04D02*
D03*
X0395D02*
D03*
X039D02*
D03*
X0385D02*
D03*
X038D02*
D03*
X0375D02*
D03*
X037D02*
D03*
X0365D02*
D03*
X036D02*
D03*
X0355D02*
D03*
X035D02*
D03*
X0345D02*
D03*
X034D02*
D03*
X0335D02*
D03*
X033D02*
D03*
X0325D02*
D03*
X032D02*
D03*
X0315D02*
D03*
X031D02*
D03*
X0305D02*
D03*
X03D02*
D03*
X0295D02*
D03*
X029D02*
D03*
X0285D02*
D03*
X028D02*
D03*
X05Y0151D02*
D03*
X0495D02*
D03*
X049D02*
D03*
X0485D02*
D03*
X048D02*
D03*
X0475D02*
D03*
X047D02*
D03*
X0465D02*
D03*
X046D02*
D03*
X0455D02*
D03*
X045D02*
D03*
X0445D02*
D03*
X044D02*
D03*
X0435D02*
D03*
X043D02*
D03*
X0425D02*
D03*
X042D02*
D03*
X0415D02*
D03*
X041D02*
D03*
X0405D02*
D03*
X04D02*
D03*
X0395D02*
D03*
X039D02*
D03*
X0385D02*
D03*
X038D02*
D03*
X0375D02*
D03*
X037D02*
D03*
X0365D02*
D03*
X036D02*
D03*
X0355D02*
D03*
X035D02*
D03*
X0345D02*
D03*
X034D02*
D03*
X0335D02*
D03*
X033D02*
D03*
X0325D02*
D03*
X032D02*
D03*
X0315D02*
D03*
X031D02*
D03*
X0305D02*
D03*
X03D02*
D03*
X0295D02*
D03*
X029D02*
D03*
X0285D02*
D03*
X0525Y0175D02*
D03*
Y018D02*
D03*
Y0185D02*
D03*
Y019D02*
D03*
Y0195D02*
D03*
Y02D02*
D03*
Y0205D02*
D03*
Y021D02*
D03*
Y0215D02*
D03*
Y022D02*
D03*
Y023D02*
D03*
Y0225D02*
D03*
Y0235D02*
D03*
Y024D02*
D03*
Y0245D02*
D03*
Y025D02*
D03*
Y0255D02*
D03*
Y026D02*
D03*
Y0265D02*
D03*
Y027D02*
D03*
Y0275D02*
D03*
Y028D02*
D03*
Y0285D02*
D03*
Y029D02*
D03*
Y0295D02*
D03*
Y03D02*
D03*
Y0305D02*
D03*
Y031D02*
D03*
Y0315D02*
D03*
Y032D02*
D03*
Y0325D02*
D03*
Y033D02*
D03*
Y0335D02*
D03*
Y034D02*
D03*
Y0345D02*
D03*
Y035D02*
D03*
Y0355D02*
D03*
Y036D02*
D03*
Y0365D02*
D03*
Y037D02*
D03*
Y0375D02*
D03*
Y038D02*
D03*
Y0385D02*
D03*
Y039D02*
D03*
Y0395D02*
D03*
Y04D02*
D03*
Y0405D02*
D03*
Y041D02*
D03*
Y0415D02*
D03*
Y042D02*
D03*
Y0425D02*
D03*
Y043D02*
D03*
Y0435D02*
D03*
Y044D02*
D03*
Y0445D02*
D03*
Y045D02*
D03*
Y0455D02*
D03*
Y046D02*
D03*
Y0465D02*
D03*
Y047D02*
D03*
Y0475D02*
D03*
Y048D02*
D03*
X026Y0175D02*
D03*
Y018D02*
D03*
Y0185D02*
D03*
Y019D02*
D03*
Y0195D02*
D03*
Y02D02*
D03*
Y0205D02*
D03*
Y021D02*
D03*
Y0215D02*
D03*
Y022D02*
D03*
Y0225D02*
D03*
Y023D02*
D03*
Y0235D02*
D03*
Y024D02*
D03*
Y0245D02*
D03*
Y025D02*
D03*
Y0255D02*
D03*
Y026D02*
D03*
Y0265D02*
D03*
Y027D02*
D03*
Y0275D02*
D03*
Y028D02*
D03*
Y0285D02*
D03*
Y029D02*
D03*
Y0295D02*
D03*
Y03D02*
D03*
Y0305D02*
D03*
Y031D02*
D03*
Y0315D02*
D03*
Y032D02*
D03*
Y0325D02*
D03*
Y033D02*
D03*
Y0335D02*
D03*
Y034D02*
D03*
Y0345D02*
D03*
Y035D02*
D03*
Y0355D02*
D03*
Y036D02*
D03*
Y0365D02*
D03*
Y037D02*
D03*
Y0375D02*
D03*
Y038D02*
D03*
Y0385D02*
D03*
Y039D02*
D03*
Y0395D02*
D03*
Y04D02*
D03*
Y0405D02*
D03*
Y041D02*
D03*
Y0415D02*
D03*
Y042D02*
D03*
Y0425D02*
D03*
Y043D02*
D03*
Y0435D02*
D03*
Y044D02*
D03*
Y0445D02*
D03*
Y0455D02*
D03*
Y045D02*
D03*
Y046D02*
D03*
Y0465D02*
D03*
Y047D02*
D03*
Y0475D02*
D03*
Y048D02*
D03*
Y0485D02*
D03*
X0381Y0248D02*
D03*
X04081Y02357D02*
D03*
D84*
X0519Y0157D02*
D03*
X0267D02*
D03*
X0519Y0498D02*
D03*
X0267D02*
D03*
D85*
X03115Y0478D02*
D03*
X031167Y046133D02*
D03*
X031167Y044467D02*
D03*
X03115Y0428D02*
D03*
X041Y04765D02*
D03*
Y04815D02*
D03*
X03545Y04485D02*
D03*
Y0483D02*
D03*
X035437Y046537D02*
D03*
X03545Y0431D02*
D03*
X0449Y0209D02*
D03*
M02*
