G04 Layer_Color=255*
%FSTAX24Y24*%
%MOIN*%
G70*
G01*
G75*
%ADD35C,0.0630*%
%ADD36R,0.0630X0.0630*%
%ADD37C,0.0669*%
%ADD38R,0.0650X0.0650*%
%ADD39R,0.0650X0.0650*%
%ADD40C,0.0650*%
%ADD41O,0.0750X0.0700*%
%ADD42R,0.0700X0.0700*%
%ADD43C,0.0600*%
%ADD44R,0.0600X0.0600*%
D35*
X05005Y03745D02*
D03*
X04805D02*
D03*
X04905D02*
D03*
X0501Y0455D02*
D03*
X0481D02*
D03*
X0491D02*
D03*
D36*
X04705Y03745D02*
D03*
X0471Y0455D02*
D03*
D37*
X0294Y0187D02*
D03*
X0405D02*
D03*
X034875D02*
D03*
D38*
X0314D02*
D03*
X0425D02*
D03*
X036875D02*
D03*
D39*
X0378Y0477D02*
D03*
D40*
Y0467D02*
D03*
Y0457D02*
D03*
Y0447D02*
D03*
Y0437D02*
D03*
Y0427D02*
D03*
Y0417D02*
D03*
Y0407D02*
D03*
Y0397D02*
D03*
Y0387D02*
D03*
Y0377D02*
D03*
Y0367D02*
D03*
Y0357D02*
D03*
Y0347D02*
D03*
Y0337D02*
D03*
Y0327D02*
D03*
Y0317D02*
D03*
Y0307D02*
D03*
Y0297D02*
D03*
Y0287D02*
D03*
X0438D02*
D03*
Y0297D02*
D03*
Y0307D02*
D03*
Y0317D02*
D03*
Y0327D02*
D03*
Y0337D02*
D03*
Y0347D02*
D03*
Y0357D02*
D03*
Y0367D02*
D03*
Y0377D02*
D03*
Y0387D02*
D03*
Y0397D02*
D03*
Y0407D02*
D03*
Y0417D02*
D03*
Y0427D02*
D03*
Y0437D02*
D03*
Y0447D02*
D03*
Y0457D02*
D03*
Y0467D02*
D03*
Y0477D02*
D03*
D41*
X03027Y03321D02*
D03*
Y03421D02*
D03*
X0302Y029401D02*
D03*
X03017Y025D02*
D03*
D42*
X03027Y03221D02*
D03*
X0302Y028401D02*
D03*
X03017Y024D02*
D03*
D43*
X02995Y04775D02*
D03*
Y04675D02*
D03*
Y04575D02*
D03*
Y04475D02*
D03*
D44*
Y04375D02*
D03*
M02*
