G04 Layer_Color=32896*
%FSTAX24Y24*%
%MOIN*%
G70*
G01*
G75*
%ADD34C,0.0300*%
D34*
X0493Y0319D02*
X0503D01*
Y031234D01*
Y0309D02*
X049634D01*
X0493Y030567D01*
X049634Y030234D01*
X0503D01*
X0498D01*
Y0309D01*
X0493Y029901D02*
X0503D01*
Y029401D01*
X050133Y029234D01*
X049967D01*
X0498Y029401D01*
Y029901D01*
Y029401D01*
X049634Y029234D01*
X049467D01*
X0493Y029401D01*
Y029901D01*
X050467Y028901D02*
Y028235D01*
X049467Y027235D02*
X0493Y027401D01*
Y027735D01*
X049467Y027901D01*
X050133D01*
X0503Y027735D01*
Y027401D01*
X050133Y027235D01*
X0493Y026402D02*
Y026735D01*
X049467Y026902D01*
X050133D01*
X0503Y026735D01*
Y026402D01*
X050133Y026235D01*
X049467D01*
X0493Y026402D01*
X0503Y025902D02*
X049634D01*
X0493Y025569D01*
X049634Y025235D01*
X0503D01*
X0498D01*
Y025902D01*
X0493Y024902D02*
Y024236D01*
Y024569D01*
X0503D01*
X0493Y023903D02*
Y023569D01*
Y023736D01*
X0503D01*
Y023903D01*
Y023569D01*
Y02307D02*
X0493D01*
X0503Y022403D01*
X0493D01*
X049467Y021403D02*
X0493Y02157D01*
Y021903D01*
X049467Y02207D01*
X050133D01*
X0503Y021903D01*
Y02157D01*
X050133Y021403D01*
X0498D01*
Y021737D01*
X050467Y02107D02*
Y020404D01*
X049467Y019404D02*
X0493Y019571D01*
Y019904D01*
X049467Y02007D01*
X050133D01*
X0503Y019904D01*
Y019571D01*
X050133Y019404D01*
X0493Y018571D02*
Y018904D01*
X049467Y019071D01*
X050133D01*
X0503Y018904D01*
Y018571D01*
X050133Y018404D01*
X049467D01*
X0493Y018571D01*
Y017405D02*
Y018071D01*
X0498D01*
Y017738D01*
Y018071D01*
X0503D01*
M02*
