M48
;Layer_Color=9474304
;FILE_FORMAT=2:4
INCH,LZ
;TYPE=PLATED
T2F00S00C0.0118
T3F00S00C0.0250
T4F00S00C0.0315
T5F00S00C0.0350
T6F00S00C0.0394
T7F00S00C0.0433
T8F00S00C0.1181
;TYPE=NON_PLATED
T1F00S00C0.0394
%
T02
X003Y00055
X0035
X004
X0045
X005
X0055
X006
X0065
X007
X0075
X008
X0085
X009
X0095
X01
X0105
X011
X0115
X012
X0125
X013
X0135
X014
X0145
X015
X0155
X016
X0165
X017
X0175
X018
X0185
X019
X0195
X02
X0205
X021
X0215
X022
X0225
X023
X0235
X024
X0245
X027Y00295
Y00345
Y00395
Y00445
Y00495
Y00545
Y00595
Y00645
Y00695
Y00745
Y00795
Y00845
Y00895
Y00945
Y00995
Y01045
Y01095
Y01145
Y01195
Y01245
Y01295
Y01345
Y01395
Y01445
Y01495
Y01545
Y01595
Y01645
X025Y01595
Y01445
Y01295
Y01145
Y00995
Y00845
X024
X023
X022
Y00595
X023
X024
X025
X021
Y00845
X017
Y00795
Y00745
Y00695
X0165
X016
X0155
X016Y00745
X0165
Y00795
X016
Y00845
X0165
Y00895
X016
Y00945
X0165
X017
Y00895
X01531Y00902
X0115Y00895
Y00795
X01Y00765
X009
X008
X007
X006Y00745
X0115Y00995
Y01095
Y01195
X013Y01295
X0145
X016
X0175
X019
X0195Y01495
X0165
X0135Y01485
X0126Y01025
X0036Y01045
Y00995
Y00945
Y00895
Y00845
Y00795
Y00745
Y00695
X0055
X005Y00645
X0045Y00595
X0005
Y00545
Y00495
Y00445
Y00395
Y00345
Y00295
Y00645
Y00695
Y00745
Y00795
Y00845
Y00895
Y00945
Y00995
Y01045
Y01095
Y01145
Y01195
Y01245
Y01295
Y01345
Y01395
Y01445
Y01495
Y01545
Y01595
Y01645
X0024
X0036Y01495
Y01445
Y01395
Y01345
Y01295
Y01245
X0054Y01645
X0024Y01845
Y01895
Y0202
X0005Y01995
Y01945
Y01895
Y01845
Y01795
Y01745
Y01695
Y02045
Y02095
Y02145
Y02195
Y02245
Y02295
Y02345
Y02395
Y02445
Y02495
Y02545
Y02595
Y02645
Y02695
Y02745
Y02795
Y02845
Y02895
Y02945
Y02995
Y03045
Y03095
Y03145
Y03195
X0022Y02795
X0027
X0032
X0037
X0042
X0047
X0024Y02575
Y02445
Y02325
X004Y02295
X005
X006
X0075
X0085
Y02495
X0075
X0082Y02885
Y03055
X0147Y03145
X0165
Y02895
X0147
Y02645
X0165
Y02395
X0147
Y02145
X0165
Y01895
X0147
X0115
Y01745
X0068Y0167
X0165Y01695
X0195
Y02395
Y02645
Y02895
X0239Y02885
X0245
X025Y02845
Y02795
Y02745
Y02695
X0252Y02525
X027Y02545
Y02495
Y02445
Y02395
Y02345
Y02295
Y02245
Y02195
Y02145
Y02095
Y02045
Y01995
Y01945
Y01895
Y01845
Y01795
Y01745
Y01695
X025Y01745
Y01895
Y02045
X0232Y02475
X027Y02595
Y02645
Y02695
Y02745
Y02795
Y02845
Y02895
Y02945
Y02995
Y03045
Y03095
Y03145
Y03195
Y03245
Y03295
Y03345
X0252Y03295
X024Y03435
X0235
X023
X0225
X022
X0215
Y03595
X022
X0225
X023
X0235
X024
X0245
X021
X0205
X02
X0195
X019
X0185
X018
X0175
X017
X0165
X016
X0155
X015
X0145
X014
X0135
X013
X0125
X012
X0115
X011
X0105
X01
X0095
X009
X0085
X008
X0075
X007
X0065
X006
X0082Y03395
Y03235
X0107Y03425
X0112
X0117
X0122
X0127
X0132
X0137
X0142
X0147
X0175Y03435
X018
X0185
X019
X0195
X02
X0205
X021
X0195Y03345
X0055Y03595
X005
X0045
X004
X0035
X003
X0025
X0005Y03395
Y03345
Y03295
Y03245
T03
X0194Y00635
X00565Y02825
X005667Y029917
X005667Y031583
X009937Y031987
X00995Y0303
Y02855
Y03375
X0155Y0336
Y0331
X00565Y03325
T04
X02155Y0229
X02255
X02355
X02455
X0246Y03095
X0236
X0226
X0216
T05
X00445Y0292
Y0302
Y0312
Y0322
Y0332
T06
X0123Y01415
Y01515
Y01615
X0183
Y01515
Y01415
X0047Y013851
Y014851
X00467Y01045
Y00945
X00477Y01866
Y01966
X0123Y02015
Y02115
Y02215
Y02315
Y02415
Y02515
Y02615
Y02715
Y02815
Y02915
Y03015
Y03115
Y03215
X0183
Y03115
Y03015
Y02915
Y02815
Y02715
Y02615
Y02515
Y02415
Y02315
Y02215
Y02115
Y02015
Y01915
Y01815
Y01715
X0123
Y01815
Y01915
Y03315
X0183
T07
X0059Y00415
X009375
X011375
X015
X017
X0039
T08
X0264Y00115
X0012
X0264Y03525
X0012
T01
X00477Y01766
M30
