G04 Layer_Color=16711935*
%FSTAX24Y24*%
%MOIN*%
G70*
G01*
G75*
%ADD73C,0.0710*%
%ADD74R,0.0710X0.0710*%
%ADD75C,0.0749*%
%ADD76R,0.0730X0.0730*%
%ADD77R,0.0730X0.0730*%
%ADD78C,0.0730*%
%ADD79O,0.0830X0.0780*%
%ADD80R,0.0780X0.0780*%
%ADD81C,0.0680*%
%ADD82R,0.0680X0.0680*%
%ADD83C,0.0039*%
%ADD84C,0.1575*%
%ADD85C,0.0171*%
D73*
X05005Y03745D02*
D03*
X04805D02*
D03*
X04905D02*
D03*
X0501Y0455D02*
D03*
X0481D02*
D03*
X0491D02*
D03*
D74*
X04705Y03745D02*
D03*
X0471Y0455D02*
D03*
D75*
X0294Y0187D02*
D03*
X0405D02*
D03*
X034875D02*
D03*
D76*
X0314D02*
D03*
X0425D02*
D03*
X036875D02*
D03*
D77*
X0378Y0477D02*
D03*
D78*
Y0467D02*
D03*
Y0457D02*
D03*
Y0447D02*
D03*
Y0437D02*
D03*
Y0427D02*
D03*
Y0417D02*
D03*
Y0407D02*
D03*
Y0397D02*
D03*
Y0387D02*
D03*
Y0377D02*
D03*
Y0367D02*
D03*
Y0357D02*
D03*
Y0347D02*
D03*
Y0337D02*
D03*
Y0327D02*
D03*
Y0317D02*
D03*
Y0307D02*
D03*
Y0297D02*
D03*
Y0287D02*
D03*
X0438D02*
D03*
Y0297D02*
D03*
Y0307D02*
D03*
Y0317D02*
D03*
Y0327D02*
D03*
Y0337D02*
D03*
Y0347D02*
D03*
Y0357D02*
D03*
Y0367D02*
D03*
Y0377D02*
D03*
Y0387D02*
D03*
Y0397D02*
D03*
Y0407D02*
D03*
Y0417D02*
D03*
Y0427D02*
D03*
Y0437D02*
D03*
Y0447D02*
D03*
Y0457D02*
D03*
Y0467D02*
D03*
Y0477D02*
D03*
D79*
X03027Y03321D02*
D03*
Y03421D02*
D03*
X0302Y029401D02*
D03*
X03017Y025D02*
D03*
D80*
X03027Y03221D02*
D03*
X0302Y028401D02*
D03*
X03017Y024D02*
D03*
D81*
X02995Y04775D02*
D03*
Y04675D02*
D03*
Y04575D02*
D03*
Y04475D02*
D03*
D82*
Y04375D02*
D03*
D83*
X0445Y0275D02*
D03*
X043D02*
D03*
X0415D02*
D03*
X04D02*
D03*
X0385D02*
D03*
X0505Y0245D02*
D03*
Y026D02*
D03*
Y0275D02*
D03*
Y029D02*
D03*
Y0305D02*
D03*
Y032D02*
D03*
Y0335D02*
D03*
Y035D02*
D03*
X0291Y0295D02*
D03*
Y029D02*
D03*
Y0285D02*
D03*
Y028D02*
D03*
Y0275D02*
D03*
Y027D02*
D03*
X039Y0294D02*
D03*
X0291Y0215D02*
D03*
Y022D02*
D03*
Y0225D02*
D03*
Y023D02*
D03*
Y0235D02*
D03*
Y024D02*
D03*
Y0245D02*
D03*
Y025D02*
D03*
X0494Y0434D02*
D03*
X05D02*
D03*
X0402Y046D02*
D03*
X042D02*
D03*
X043Y0489D02*
D03*
X0435D02*
D03*
X044D02*
D03*
X0445D02*
D03*
X045D02*
D03*
X0455D02*
D03*
X0507Y0475D02*
D03*
X0495Y0489D02*
D03*
X049D02*
D03*
X0485D02*
D03*
X048D02*
D03*
X0475D02*
D03*
X047D02*
D03*
X0465D02*
D03*
X046D02*
D03*
X0505Y0415D02*
D03*
Y042D02*
D03*
Y0425D02*
D03*
Y043D02*
D03*
Y0205D02*
D03*
X0495D02*
D03*
X0485D02*
D03*
X0475D02*
D03*
X0465D02*
D03*
X0505Y023D02*
D03*
X0495D02*
D03*
X0485D02*
D03*
X0475D02*
D03*
X0465D02*
D03*
X0315Y022D02*
D03*
X031Y0215D02*
D03*
X0305Y021D02*
D03*
X03Y0205D02*
D03*
X0355Y0222D02*
D03*
X0345D02*
D03*
X0335D02*
D03*
X0325D02*
D03*
X045Y0295D02*
D03*
X042D02*
D03*
X045Y0315D02*
D03*
X042D02*
D03*
X037Y032D02*
D03*
Y0335D02*
D03*
X045Y048D02*
D03*
Y0385D02*
D03*
Y041D02*
D03*
Y0435D02*
D03*
X034Y0395D02*
D03*
X033D02*
D03*
X034Y0375D02*
D03*
X033D02*
D03*
X0315D02*
D03*
X0305D02*
D03*
X0295D02*
D03*
X037Y0225D02*
D03*
Y0235D02*
D03*
Y0245D02*
D03*
Y0255D02*
D03*
Y0265D02*
D03*
X0323Y03125D02*
D03*
X0309Y031D02*
D03*
X0279D02*
D03*
Y033D02*
D03*
Y0335D02*
D03*
Y03475D02*
D03*
Y0378D02*
D03*
Y039D02*
D03*
Y0403D02*
D03*
X0507Y0398D02*
D03*
X0487Y0393D02*
D03*
X0402Y0488D02*
D03*
X0397D02*
D03*
X0392D02*
D03*
X0387D02*
D03*
X0382D02*
D03*
X0377D02*
D03*
X0372D02*
D03*
X0367D02*
D03*
X0362D02*
D03*
X0302Y0425D02*
D03*
X0297D02*
D03*
X0292D02*
D03*
X0287D02*
D03*
X0282D02*
D03*
X0277D02*
D03*
X0337Y0434D02*
D03*
Y0451D02*
D03*
Y0469D02*
D03*
Y0485D02*
D03*
X0402Y0335D02*
D03*
Y036D02*
D03*
Y0385D02*
D03*
Y041D02*
D03*
Y0435D02*
D03*
X042Y0335D02*
D03*
Y036D02*
D03*
Y0385D02*
D03*
Y041D02*
D03*
Y0435D02*
D03*
X041Y0215D02*
D03*
X0415D02*
D03*
X042D02*
D03*
X0425D02*
D03*
Y022D02*
D03*
X042D02*
D03*
X0415D02*
D03*
Y0225D02*
D03*
X042D02*
D03*
X0425D02*
D03*
Y023D02*
D03*
X042D02*
D03*
X0415D02*
D03*
Y0235D02*
D03*
X042D02*
D03*
X0425D02*
D03*
Y024D02*
D03*
X042D02*
D03*
X0415D02*
D03*
X0495Y0505D02*
D03*
X05D02*
D03*
X049D02*
D03*
X0485D02*
D03*
X048D02*
D03*
X0475D02*
D03*
X047D02*
D03*
X0465D02*
D03*
X046D02*
D03*
X0455D02*
D03*
X045D02*
D03*
X0445D02*
D03*
X044D02*
D03*
X0435D02*
D03*
X043D02*
D03*
X0425D02*
D03*
X042D02*
D03*
X0415D02*
D03*
X041D02*
D03*
X0405D02*
D03*
X04D02*
D03*
X0395D02*
D03*
X039D02*
D03*
X0385D02*
D03*
X038D02*
D03*
X0375D02*
D03*
X037D02*
D03*
X0365D02*
D03*
X036D02*
D03*
X0355D02*
D03*
X035D02*
D03*
X0345D02*
D03*
X034D02*
D03*
X0335D02*
D03*
X033D02*
D03*
X0325D02*
D03*
X032D02*
D03*
X0315D02*
D03*
X031D02*
D03*
X0305D02*
D03*
X03D02*
D03*
X0295D02*
D03*
X029D02*
D03*
X0285D02*
D03*
X028D02*
D03*
X05Y0151D02*
D03*
X0495D02*
D03*
X049D02*
D03*
X0485D02*
D03*
X048D02*
D03*
X0475D02*
D03*
X047D02*
D03*
X0465D02*
D03*
X046D02*
D03*
X0455D02*
D03*
X045D02*
D03*
X0445D02*
D03*
X044D02*
D03*
X0435D02*
D03*
X043D02*
D03*
X0425D02*
D03*
X042D02*
D03*
X0415D02*
D03*
X041D02*
D03*
X0405D02*
D03*
X04D02*
D03*
X0395D02*
D03*
X039D02*
D03*
X0385D02*
D03*
X038D02*
D03*
X0375D02*
D03*
X037D02*
D03*
X0365D02*
D03*
X036D02*
D03*
X0355D02*
D03*
X035D02*
D03*
X0345D02*
D03*
X034D02*
D03*
X0335D02*
D03*
X033D02*
D03*
X0325D02*
D03*
X032D02*
D03*
X0315D02*
D03*
X031D02*
D03*
X0305D02*
D03*
X03D02*
D03*
X0295D02*
D03*
X029D02*
D03*
X0285D02*
D03*
X0525Y0175D02*
D03*
Y018D02*
D03*
Y0185D02*
D03*
Y019D02*
D03*
Y0195D02*
D03*
Y02D02*
D03*
Y0205D02*
D03*
Y021D02*
D03*
Y0215D02*
D03*
Y022D02*
D03*
Y023D02*
D03*
Y0225D02*
D03*
Y0235D02*
D03*
Y024D02*
D03*
Y0245D02*
D03*
Y025D02*
D03*
Y0255D02*
D03*
Y026D02*
D03*
Y0265D02*
D03*
Y027D02*
D03*
Y0275D02*
D03*
Y028D02*
D03*
Y0285D02*
D03*
Y029D02*
D03*
Y0295D02*
D03*
Y03D02*
D03*
Y0305D02*
D03*
Y031D02*
D03*
Y0315D02*
D03*
Y032D02*
D03*
Y0325D02*
D03*
Y033D02*
D03*
Y0335D02*
D03*
Y034D02*
D03*
Y0345D02*
D03*
Y035D02*
D03*
Y0355D02*
D03*
Y036D02*
D03*
Y0365D02*
D03*
Y037D02*
D03*
Y0375D02*
D03*
Y038D02*
D03*
Y0385D02*
D03*
Y039D02*
D03*
Y0395D02*
D03*
Y04D02*
D03*
Y0405D02*
D03*
Y041D02*
D03*
Y0415D02*
D03*
Y042D02*
D03*
Y0425D02*
D03*
Y043D02*
D03*
Y0435D02*
D03*
Y044D02*
D03*
Y0445D02*
D03*
Y045D02*
D03*
Y0455D02*
D03*
Y046D02*
D03*
Y0465D02*
D03*
Y047D02*
D03*
Y0475D02*
D03*
Y048D02*
D03*
X026Y0175D02*
D03*
Y018D02*
D03*
Y0185D02*
D03*
Y019D02*
D03*
Y0195D02*
D03*
Y02D02*
D03*
Y0205D02*
D03*
Y021D02*
D03*
Y0215D02*
D03*
Y022D02*
D03*
Y0225D02*
D03*
Y023D02*
D03*
Y0235D02*
D03*
Y024D02*
D03*
Y0245D02*
D03*
Y025D02*
D03*
Y0255D02*
D03*
Y026D02*
D03*
Y0265D02*
D03*
Y027D02*
D03*
Y0275D02*
D03*
Y028D02*
D03*
Y0285D02*
D03*
Y029D02*
D03*
Y0295D02*
D03*
Y03D02*
D03*
Y0305D02*
D03*
Y031D02*
D03*
Y0315D02*
D03*
Y032D02*
D03*
Y0325D02*
D03*
Y033D02*
D03*
Y0335D02*
D03*
Y034D02*
D03*
Y0345D02*
D03*
Y035D02*
D03*
Y0355D02*
D03*
Y036D02*
D03*
Y0365D02*
D03*
Y037D02*
D03*
Y0375D02*
D03*
Y038D02*
D03*
Y0385D02*
D03*
Y039D02*
D03*
Y0395D02*
D03*
Y04D02*
D03*
Y0405D02*
D03*
Y041D02*
D03*
Y0415D02*
D03*
Y042D02*
D03*
Y0425D02*
D03*
Y043D02*
D03*
Y0435D02*
D03*
Y044D02*
D03*
Y0445D02*
D03*
Y0455D02*
D03*
Y045D02*
D03*
Y046D02*
D03*
Y0465D02*
D03*
Y047D02*
D03*
Y0475D02*
D03*
Y048D02*
D03*
Y0485D02*
D03*
X0381Y0248D02*
D03*
X04081Y02357D02*
D03*
D84*
X0519Y0157D02*
D03*
X0267D02*
D03*
X0519Y0498D02*
D03*
X0267D02*
D03*
D85*
X03115Y0478D02*
D03*
X031167Y046133D02*
D03*
X031167Y044467D02*
D03*
X03115Y0428D02*
D03*
X041Y04765D02*
D03*
Y04815D02*
D03*
X03545Y04485D02*
D03*
Y0483D02*
D03*
X035437Y046537D02*
D03*
X03545Y0431D02*
D03*
X0449Y0209D02*
D03*
M02*
