G04 Layer_Color=32768*
%FSTAX24Y24*%
%MOIN*%
G70*
G01*
G75*
%ADD49C,0.0020*%
%ADD86C,0.0039*%
%ADD87C,0.0020*%
%ADD88C,0.0020*%
D49*
X0322Y029844D02*
X0328D01*
X0322Y028656D02*
X0328D01*
X0322D02*
Y029844D01*
X0328Y028656D02*
Y029844D01*
X033694Y03395D02*
Y03455D01*
X032506Y03395D02*
Y03455D01*
X033694D01*
X032506Y03395D02*
X033694D01*
X033744Y031972D02*
Y032572D01*
X032556Y031972D02*
Y032572D01*
X033744D01*
X032556Y031972D02*
X033744D01*
X032498Y016987D02*
Y020413D01*
X028302D02*
X032498D01*
X028302Y016987D02*
Y020413D01*
Y016987D02*
X032498D01*
X043598D02*
Y020413D01*
X039402D02*
X043598D01*
X039402Y016987D02*
Y020413D01*
Y016987D02*
X043598D01*
X037973D02*
Y020413D01*
X033777D02*
X037973D01*
X033777Y016987D02*
Y020413D01*
Y016987D02*
X037973D01*
X0322Y025494D02*
X0328D01*
X0322Y024306D02*
X0328D01*
X0322D02*
Y025494D01*
X0328Y024306D02*
Y025494D01*
X049394Y047D02*
Y0476D01*
X048206Y047D02*
Y0476D01*
X049394D01*
X048206Y047D02*
X049394D01*
Y0479D02*
Y0485D01*
X048206Y0479D02*
Y0485D01*
X049394D01*
X048206Y0479D02*
X049394D01*
X050244Y03975D02*
Y04035D01*
X049056Y03975D02*
Y04035D01*
X050244D01*
X049056Y03975D02*
X050244D01*
X050233Y04055D02*
Y04115D01*
X049046Y04055D02*
Y04115D01*
X050233D01*
X049046Y04055D02*
X050233D01*
X031994Y0409D02*
Y0415D01*
X030806Y0409D02*
Y0415D01*
X031994D01*
X030806Y0409D02*
X031994D01*
X029594Y04085D02*
Y04145D01*
X028406Y04085D02*
Y04145D01*
X029594D01*
X028406Y04085D02*
X029594D01*
X036202Y049645D02*
X045398D01*
Y027602D02*
Y049645D01*
X036202Y027602D02*
X045398D01*
X036202D02*
Y049645D01*
X039591Y025169D02*
X041209D01*
X039591Y023831D02*
X041209D01*
X039591D02*
Y025169D01*
X041209Y023831D02*
Y025169D01*
D86*
X038452Y025247D02*
X038648D01*
X038452Y024853D02*
Y025247D01*
Y024853D02*
X038648D01*
Y025247D01*
X033239Y043293D02*
Y043607D01*
X032609D02*
X033239D01*
X032609Y043293D02*
Y043607D01*
Y043293D02*
X033239D01*
Y044993D02*
Y045307D01*
X032609D02*
X033239D01*
X032609Y044993D02*
Y045307D01*
Y044993D02*
X033239D01*
X033265Y046693D02*
Y047007D01*
X032635D02*
X033265D01*
X032635Y046693D02*
Y047007D01*
Y046693D02*
X033265D01*
X033239Y048393D02*
Y048707D01*
X032609D02*
X033239D01*
X032609Y048393D02*
Y048707D01*
Y048393D02*
X033239D01*
X040665Y021476D02*
Y021791D01*
X040035D02*
X040665D01*
X040035Y021476D02*
Y021791D01*
Y021476D02*
X040665D01*
X043185Y023343D02*
Y023657D01*
Y023343D02*
X043815D01*
Y023657D01*
X043185D02*
X043815D01*
X043185Y022443D02*
Y022757D01*
Y022443D02*
X043815D01*
Y022757D01*
X043185D02*
X043815D01*
X043185Y021643D02*
Y021957D01*
Y021643D02*
X043815D01*
Y021957D01*
X043185D02*
X043815D01*
X040185Y026143D02*
Y026457D01*
Y026143D02*
X040815D01*
Y026457D01*
X040185D02*
X040815D01*
X033406Y030104D02*
X034194D01*
X033406D02*
Y030596D01*
X034194D01*
Y030104D02*
Y030596D01*
X033406Y025754D02*
X034194D01*
X033406D02*
Y026246D01*
X034194D01*
Y025754D02*
Y026246D01*
X031794Y042554D02*
X032581D01*
X031794D02*
Y043046D01*
X032581D01*
Y042554D02*
Y043046D01*
X031806Y044221D02*
X032594D01*
X031806D02*
Y044713D01*
X032594D01*
Y044221D02*
Y044713D01*
X031806Y045887D02*
X032594D01*
X031806D02*
Y046379D01*
X032594D01*
Y045887D02*
Y046379D01*
X031806Y047554D02*
X032594D01*
X031806D02*
Y048046D01*
X032594D01*
Y047554D02*
Y048046D01*
X032402Y033152D02*
Y033348D01*
Y033152D02*
X032795D01*
Y033348D01*
X032402D02*
X032795D01*
X033247Y031195D02*
Y031392D01*
X032853D02*
X033247D01*
X032853Y031195D02*
Y031392D01*
Y031195D02*
X033247D01*
X039697Y025702D02*
Y025898D01*
X039303D02*
X039697D01*
X039303Y025702D02*
Y025898D01*
Y025702D02*
X039697D01*
X034435Y027843D02*
Y028157D01*
X035065D01*
Y027843D02*
Y028157D01*
X034435Y027843D02*
X035065D01*
X034435Y028643D02*
Y028957D01*
X035065D01*
Y028643D02*
Y028957D01*
X034435Y028643D02*
X035065D01*
X034485Y023493D02*
Y023807D01*
X035115D01*
Y023493D02*
Y023807D01*
X034485Y023493D02*
X035115D01*
X034485Y024293D02*
Y024607D01*
X035115D01*
Y024293D02*
Y024607D01*
X034485Y024293D02*
X035115D01*
X039052Y025247D02*
X039248D01*
X039052Y024853D02*
Y025247D01*
Y024853D02*
X039248D01*
Y025247D01*
X050044Y039054D02*
Y039546D01*
X049256D02*
X050044D01*
X049256Y039054D02*
Y039546D01*
Y039054D02*
X050044D01*
X049295Y043859D02*
X050083D01*
X049295D02*
Y044352D01*
X050083D01*
Y043859D02*
Y044352D01*
X038804Y029956D02*
Y030744D01*
X039296D01*
Y029956D02*
Y030744D01*
X038804Y029956D02*
X039296D01*
X042554Y047006D02*
Y047794D01*
X043046D01*
Y047006D02*
Y047794D01*
X042554Y047006D02*
X043046D01*
X03972Y022108D02*
X04098D01*
X03972D02*
Y023092D01*
X04098D01*
Y022108D02*
Y023092D01*
X041791Y027074D02*
X044492D01*
Y024526D02*
Y027074D01*
X041791Y024526D02*
X044492D01*
X041791D02*
Y027074D01*
X033132Y027825D02*
X033506Y028199D01*
Y027825D02*
Y028975D01*
X032994D02*
X033506D01*
X032994Y027825D02*
Y028975D01*
Y027825D02*
X033506D01*
X033132Y023475D02*
X033506Y023849D01*
Y023475D02*
Y024625D01*
X032994D02*
X033506D01*
X032994Y023475D02*
Y024625D01*
Y023475D02*
X033506D01*
D87*
X033558Y041941D02*
Y043533D01*
X035277Y041941D02*
Y043533D01*
X033558Y041941D02*
X035277D01*
X033558Y043533D02*
X035277D01*
X033558Y043654D02*
Y045246D01*
X035277Y043654D02*
Y045246D01*
X033558Y043654D02*
X035277D01*
X033558Y045246D02*
X035277D01*
X033558Y045367D02*
Y046959D01*
X035277Y045367D02*
Y046959D01*
X033558Y045367D02*
X035277D01*
X033558Y046959D02*
X035277D01*
X033558Y047104D02*
Y048696D01*
X035277Y047104D02*
Y048696D01*
X033558Y047104D02*
X035277D01*
X033558Y048696D02*
X035277D01*
D88*
X030508Y035903D02*
X032713D01*
Y040352D01*
X030508D02*
X032713D01*
X030508Y035903D02*
Y040352D01*
X028098Y035876D02*
X030302D01*
Y040324D01*
X028098D02*
X030302D01*
X028098Y035876D02*
Y040324D01*
M02*
