G04 Layer_Color=128*
%FSTAX24Y24*%
%MOIN*%
G70*
G01*
G75*
%ADD87C,0.0020*%
D87*
X049893Y03745D02*
X050207D01*
X05005Y037293D02*
Y037607D01*
X047893Y03745D02*
X048207D01*
X04805Y037293D02*
Y037607D01*
X046893Y03745D02*
X047207D01*
X04705Y037293D02*
Y037607D01*
X048893Y03745D02*
X049207D01*
X04905Y037293D02*
Y037607D01*
X049943Y0455D02*
X050257D01*
X0501Y045343D02*
Y045657D01*
X047943Y0455D02*
X048257D01*
X0481Y045343D02*
Y045657D01*
X046943Y0455D02*
X047257D01*
X0471Y045343D02*
Y045657D01*
X048943Y0455D02*
X049257D01*
X0491Y045343D02*
Y045657D01*
X029183Y0187D02*
X029617D01*
X0294Y018483D02*
Y018917D01*
X031183Y0187D02*
X031617D01*
X0314Y018483D02*
Y018917D01*
X040283Y0187D02*
X040717D01*
X0405Y018483D02*
Y018917D01*
X042283Y0187D02*
X042717D01*
X0425Y018483D02*
Y018917D01*
X034658Y0187D02*
X035092D01*
X034875Y018483D02*
Y018917D01*
X036658Y0187D02*
X037092D01*
X036875Y018483D02*
Y018917D01*
X037603Y0477D02*
X037997D01*
X0378Y047503D02*
Y047897D01*
X037603Y0467D02*
X037997D01*
X0378Y046503D02*
Y046897D01*
X037603Y0457D02*
X037997D01*
X0378Y045503D02*
Y045897D01*
X037603Y0447D02*
X037997D01*
X0378Y044503D02*
Y044897D01*
X037603Y0437D02*
X037997D01*
X0378Y043503D02*
Y043897D01*
X037603Y0427D02*
X037997D01*
X0378Y042503D02*
Y042897D01*
X037603Y0417D02*
X037997D01*
X0378Y041503D02*
Y041897D01*
X037603Y0407D02*
X037997D01*
X0378Y040503D02*
Y040897D01*
X037603Y0397D02*
X037997D01*
X0378Y039503D02*
Y039897D01*
X037603Y0387D02*
X037997D01*
X0378Y038503D02*
Y038897D01*
X037603Y0377D02*
X037997D01*
X0378Y037503D02*
Y037897D01*
X037603Y0367D02*
X037997D01*
X0378Y036503D02*
Y036897D01*
X037603Y0357D02*
X037997D01*
X0378Y035503D02*
Y035897D01*
X037603Y0347D02*
X037997D01*
X0378Y034503D02*
Y034897D01*
X037603Y0337D02*
X037997D01*
X0378Y033503D02*
Y033897D01*
X037603Y0327D02*
X037997D01*
X0378Y032503D02*
Y032897D01*
X037603Y0317D02*
X037997D01*
X0378Y031503D02*
Y031897D01*
X037603Y0307D02*
X037997D01*
X0378Y030503D02*
Y030897D01*
X037603Y0297D02*
X037997D01*
X0378Y029503D02*
Y029897D01*
X037603Y0287D02*
X037997D01*
X0378Y028503D02*
Y028897D01*
X043603Y0287D02*
X043997D01*
X0438Y028503D02*
Y028897D01*
X043603Y0297D02*
X043997D01*
X0438Y029503D02*
Y029897D01*
X043603Y0307D02*
X043997D01*
X0438Y030503D02*
Y030897D01*
X043603Y0317D02*
X043997D01*
X0438Y031503D02*
Y031897D01*
X043603Y0327D02*
X043997D01*
X0438Y032503D02*
Y032897D01*
X043603Y0337D02*
X043997D01*
X0438Y033503D02*
Y033897D01*
X043603Y0347D02*
X043997D01*
X0438Y034503D02*
Y034897D01*
X043603Y0357D02*
X043997D01*
X0438Y035503D02*
Y035897D01*
X043603Y0367D02*
X043997D01*
X0438Y036503D02*
Y036897D01*
X043603Y0377D02*
X043997D01*
X0438Y037503D02*
Y037897D01*
X043603Y0387D02*
X043997D01*
X0438Y038503D02*
Y038897D01*
X043603Y0397D02*
X043997D01*
X0438Y039503D02*
Y039897D01*
X043603Y0407D02*
X043997D01*
X0438Y040503D02*
Y040897D01*
X043603Y0417D02*
X043997D01*
X0438Y041503D02*
Y041897D01*
X043603Y0427D02*
X043997D01*
X0438Y042503D02*
Y042897D01*
X043603Y0437D02*
X043997D01*
X0438Y043503D02*
Y043897D01*
X043603Y0447D02*
X043997D01*
X0438Y044503D02*
Y044897D01*
X043603Y0457D02*
X043997D01*
X0438Y045503D02*
Y045897D01*
X043603Y0467D02*
X043997D01*
X0438Y046503D02*
Y046897D01*
X043603Y0477D02*
X043997D01*
X0438Y047503D02*
Y047897D01*
X030073Y03321D02*
X030467D01*
X03027Y033013D02*
Y033407D01*
X030073Y03221D02*
X030467D01*
X03027Y032013D02*
Y032407D01*
X030073Y03421D02*
X030467D01*
X03027Y034013D02*
Y034407D01*
X029775Y04775D02*
X030125D01*
X02995Y047575D02*
Y047925D01*
X029775Y04675D02*
X030125D01*
X02995Y046575D02*
Y046925D01*
X029775Y04575D02*
X030125D01*
X02995Y045575D02*
Y045925D01*
X029775Y04475D02*
X030125D01*
X02995Y044575D02*
Y044925D01*
X029775Y04375D02*
X030125D01*
X02995Y043575D02*
Y043925D01*
X030003Y028401D02*
X030397D01*
X0302Y028204D02*
Y028598D01*
X030003Y029401D02*
X030397D01*
X0302Y029204D02*
Y029598D01*
X029973Y025D02*
X030367D01*
X03017Y024803D02*
Y025197D01*
X029973Y024D02*
X030367D01*
X03017Y023803D02*
Y024197D01*
X044441Y0275D02*
X044559D01*
X0445Y027441D02*
Y027559D01*
X042941Y0275D02*
X043059D01*
X043Y027441D02*
Y027559D01*
X041441Y0275D02*
X041559D01*
X0415Y027441D02*
Y027559D01*
X039941Y0275D02*
X040059D01*
X04Y027441D02*
Y027559D01*
X038441Y0275D02*
X038559D01*
X0385Y027441D02*
Y027559D01*
X050441Y0245D02*
X050559D01*
X0505Y024441D02*
Y024559D01*
X050441Y026D02*
X050559D01*
X0505Y025941D02*
Y026059D01*
X050441Y0275D02*
X050559D01*
X0505Y027441D02*
Y027559D01*
X050441Y029D02*
X050559D01*
X0505Y028941D02*
Y029059D01*
X050441Y0305D02*
X050559D01*
X0505Y030441D02*
Y030559D01*
X050441Y032D02*
X050559D01*
X0505Y031941D02*
Y032059D01*
X050441Y0335D02*
X050559D01*
X0505Y033441D02*
Y033559D01*
X050441Y035D02*
X050559D01*
X0505Y034941D02*
Y035059D01*
X051309Y0157D02*
X052491D01*
X0519Y015109D02*
Y016291D01*
X026109Y0157D02*
X027291D01*
X0267Y015109D02*
Y016291D01*
X051309Y0498D02*
X052491D01*
X0519Y049209D02*
Y050391D01*
X026109Y0498D02*
X027291D01*
X0267Y049209D02*
Y050391D01*
X029041Y0295D02*
X029159D01*
X0291Y029441D02*
Y029559D01*
X029041Y029D02*
X029159D01*
X0291Y028941D02*
Y029059D01*
X029041Y0285D02*
X029159D01*
X0291Y028441D02*
Y028559D01*
X029041Y028D02*
X029159D01*
X0291Y027941D02*
Y028059D01*
X029041Y0275D02*
X029159D01*
X0291Y027441D02*
Y027559D01*
X029041Y027D02*
X029159D01*
X0291Y026941D02*
Y027059D01*
X038941Y0294D02*
X039059D01*
X039Y029341D02*
Y029459D01*
X029041Y0215D02*
X029159D01*
X0291Y021441D02*
Y021559D01*
X029041Y022D02*
X029159D01*
X0291Y021941D02*
Y022059D01*
X029041Y0225D02*
X029159D01*
X0291Y022441D02*
Y022559D01*
X029041Y023D02*
X029159D01*
X0291Y022941D02*
Y023059D01*
X029041Y0235D02*
X029159D01*
X0291Y023441D02*
Y023559D01*
X029041Y024D02*
X029159D01*
X0291Y023941D02*
Y024059D01*
X029041Y0245D02*
X029159D01*
X0291Y024441D02*
Y024559D01*
X029041Y025D02*
X029159D01*
X0291Y024941D02*
Y025059D01*
X049341Y0434D02*
X049459D01*
X0494Y043341D02*
Y043459D01*
X049941Y0434D02*
X050059D01*
X05Y043341D02*
Y043459D01*
X040141Y046D02*
X040259D01*
X0402Y045941D02*
Y046059D01*
X041941Y046D02*
X042059D01*
X042Y045941D02*
Y046059D01*
X042941Y0489D02*
X043059D01*
X043Y048841D02*
Y048959D01*
X043441Y0489D02*
X043559D01*
X0435Y048841D02*
Y048959D01*
X043941Y0489D02*
X044059D01*
X044Y048841D02*
Y048959D01*
X044441Y0489D02*
X044559D01*
X0445Y048841D02*
Y048959D01*
X044941Y0489D02*
X045059D01*
X045Y048841D02*
Y048959D01*
X045441Y0489D02*
X045559D01*
X0455Y048841D02*
Y048959D01*
X050641Y0475D02*
X050759D01*
X0507Y047441D02*
Y047559D01*
X049441Y0489D02*
X049559D01*
X0495Y048841D02*
Y048959D01*
X048941Y0489D02*
X049059D01*
X049Y048841D02*
Y048959D01*
X048441Y0489D02*
X048559D01*
X0485Y048841D02*
Y048959D01*
X047941Y0489D02*
X048059D01*
X048Y048841D02*
Y048959D01*
X047441Y0489D02*
X047559D01*
X0475Y048841D02*
Y048959D01*
X046941Y0489D02*
X047059D01*
X047Y048841D02*
Y048959D01*
X046441Y0489D02*
X046559D01*
X0465Y048841D02*
Y048959D01*
X045941Y0489D02*
X046059D01*
X046Y048841D02*
Y048959D01*
X050441Y0415D02*
X050559D01*
X0505Y041441D02*
Y041559D01*
X050441Y042D02*
X050559D01*
X0505Y041941D02*
Y042059D01*
X050441Y0425D02*
X050559D01*
X0505Y042441D02*
Y042559D01*
X050441Y043D02*
X050559D01*
X0505Y042941D02*
Y043059D01*
X050441Y0205D02*
X050559D01*
X0505Y020441D02*
Y020559D01*
X049441Y0205D02*
X049559D01*
X0495Y020441D02*
Y020559D01*
X048441Y0205D02*
X048559D01*
X0485Y020441D02*
Y020559D01*
X047441Y0205D02*
X047559D01*
X0475Y020441D02*
Y020559D01*
X046441Y0205D02*
X046559D01*
X0465Y020441D02*
Y020559D01*
X050441Y023D02*
X050559D01*
X0505Y022941D02*
Y023059D01*
X049441Y023D02*
X049559D01*
X0495Y022941D02*
Y023059D01*
X048441Y023D02*
X048559D01*
X0485Y022941D02*
Y023059D01*
X047441Y023D02*
X047559D01*
X0475Y022941D02*
Y023059D01*
X046441Y023D02*
X046559D01*
X0465Y022941D02*
Y023059D01*
X031441Y022D02*
X031559D01*
X0315Y021941D02*
Y022059D01*
X030941Y0215D02*
X031059D01*
X031Y021441D02*
Y021559D01*
X030441Y021D02*
X030559D01*
X0305Y020941D02*
Y021059D01*
X029941Y0205D02*
X030059D01*
X03Y020441D02*
Y020559D01*
X035441Y0222D02*
X035559D01*
X0355Y022141D02*
Y022259D01*
X034441Y0222D02*
X034559D01*
X0345Y022141D02*
Y022259D01*
X033441Y0222D02*
X033559D01*
X0335Y022141D02*
Y022259D01*
X032441Y0222D02*
X032559D01*
X0325Y022141D02*
Y022259D01*
X044941Y0295D02*
X045059D01*
X045Y029441D02*
Y029559D01*
X041941Y0295D02*
X042059D01*
X042Y029441D02*
Y029559D01*
X044941Y0315D02*
X045059D01*
X045Y031441D02*
Y031559D01*
X041941Y0315D02*
X042059D01*
X042Y031441D02*
Y031559D01*
X036941Y032D02*
X037059D01*
X037Y031941D02*
Y032059D01*
X036941Y0335D02*
X037059D01*
X037Y033441D02*
Y033559D01*
X044941Y048D02*
X045059D01*
X045Y047941D02*
Y048059D01*
X044941Y0385D02*
X045059D01*
X045Y038441D02*
Y038559D01*
X044941Y041D02*
X045059D01*
X045Y040941D02*
Y041059D01*
X044941Y0435D02*
X045059D01*
X045Y043441D02*
Y043559D01*
X033941Y0395D02*
X034059D01*
X034Y039441D02*
Y039559D01*
X032941Y0395D02*
X033059D01*
X033Y039441D02*
Y039559D01*
X033941Y0375D02*
X034059D01*
X034Y037441D02*
Y037559D01*
X032941Y0375D02*
X033059D01*
X033Y037441D02*
Y037559D01*
X031441Y0375D02*
X031559D01*
X0315Y037441D02*
Y037559D01*
X030441Y0375D02*
X030559D01*
X0305Y037441D02*
Y037559D01*
X029441Y0375D02*
X029559D01*
X0295Y037441D02*
Y037559D01*
X036941Y0225D02*
X037059D01*
X037Y022441D02*
Y022559D01*
X036941Y0235D02*
X037059D01*
X037Y023441D02*
Y023559D01*
X036941Y0245D02*
X037059D01*
X037Y024441D02*
Y024559D01*
X036941Y0255D02*
X037059D01*
X037Y025441D02*
Y025559D01*
X036941Y0265D02*
X037059D01*
X037Y026441D02*
Y026559D01*
X032241Y03125D02*
X032359D01*
X0323Y031191D02*
Y031309D01*
X030841Y031D02*
X030959D01*
X0309Y030941D02*
Y031059D01*
X027841Y031D02*
X027959D01*
X0279Y030941D02*
Y031059D01*
X027841Y033D02*
X027959D01*
X0279Y032941D02*
Y033059D01*
X027841Y0335D02*
X027959D01*
X0279Y033441D02*
Y033559D01*
X027841Y03475D02*
X027959D01*
X0279Y034691D02*
Y034809D01*
X027841Y0378D02*
X027959D01*
X0279Y037741D02*
Y037859D01*
X027841Y039D02*
X027959D01*
X0279Y038941D02*
Y039059D01*
X027841Y0403D02*
X027959D01*
X0279Y040241D02*
Y040359D01*
X050641Y0398D02*
X050759D01*
X0507Y039741D02*
Y039859D01*
X048641Y0393D02*
X048759D01*
X0487Y039241D02*
Y039359D01*
X040141Y0488D02*
X040259D01*
X0402Y048741D02*
Y048859D01*
X039641Y0488D02*
X039759D01*
X0397Y048741D02*
Y048859D01*
X039141Y0488D02*
X039259D01*
X0392Y048741D02*
Y048859D01*
X038641Y0488D02*
X038759D01*
X0387Y048741D02*
Y048859D01*
X038141Y0488D02*
X038259D01*
X0382Y048741D02*
Y048859D01*
X037641Y0488D02*
X037759D01*
X0377Y048741D02*
Y048859D01*
X037141Y0488D02*
X037259D01*
X0372Y048741D02*
Y048859D01*
X036641Y0488D02*
X036759D01*
X0367Y048741D02*
Y048859D01*
X036141Y0488D02*
X036259D01*
X0362Y048741D02*
Y048859D01*
X030141Y0425D02*
X030259D01*
X0302Y042441D02*
Y042559D01*
X029641Y0425D02*
X029759D01*
X0297Y042441D02*
Y042559D01*
X029141Y0425D02*
X029259D01*
X0292Y042441D02*
Y042559D01*
X028641Y0425D02*
X028759D01*
X0287Y042441D02*
Y042559D01*
X028141Y0425D02*
X028259D01*
X0282Y042441D02*
Y042559D01*
X027641Y0425D02*
X027759D01*
X0277Y042441D02*
Y042559D01*
X033641Y0434D02*
X033759D01*
X0337Y043341D02*
Y043459D01*
X033641Y0451D02*
X033759D01*
X0337Y045041D02*
Y045159D01*
X033641Y0469D02*
X033759D01*
X0337Y046841D02*
Y046959D01*
X033641Y0485D02*
X033759D01*
X0337Y048441D02*
Y048559D01*
X040141Y0335D02*
X040259D01*
X0402Y033441D02*
Y033559D01*
X040141Y036D02*
X040259D01*
X0402Y035941D02*
Y036059D01*
X040141Y0385D02*
X040259D01*
X0402Y038441D02*
Y038559D01*
X040141Y041D02*
X040259D01*
X0402Y040941D02*
Y041059D01*
X040141Y0435D02*
X040259D01*
X0402Y043441D02*
Y043559D01*
X041941Y0335D02*
X042059D01*
X042Y033441D02*
Y033559D01*
X041941Y036D02*
X042059D01*
X042Y035941D02*
Y036059D01*
X041941Y0385D02*
X042059D01*
X042Y038441D02*
Y038559D01*
X041941Y041D02*
X042059D01*
X042Y040941D02*
Y041059D01*
X041941Y0435D02*
X042059D01*
X042Y043441D02*
Y043559D01*
X040941Y0215D02*
X041059D01*
X041Y021441D02*
Y021559D01*
X041441Y0215D02*
X041559D01*
X0415Y021441D02*
Y021559D01*
X041941Y0215D02*
X042059D01*
X042Y021441D02*
Y021559D01*
X042441Y0215D02*
X042559D01*
X0425Y021441D02*
Y021559D01*
X042441Y022D02*
X042559D01*
X0425Y021941D02*
Y022059D01*
X041941Y022D02*
X042059D01*
X042Y021941D02*
Y022059D01*
X041441Y022D02*
X041559D01*
X0415Y021941D02*
Y022059D01*
X041441Y0225D02*
X041559D01*
X0415Y022441D02*
Y022559D01*
X041941Y0225D02*
X042059D01*
X042Y022441D02*
Y022559D01*
X042441Y0225D02*
X042559D01*
X0425Y022441D02*
Y022559D01*
X042441Y023D02*
X042559D01*
X0425Y022941D02*
Y023059D01*
X041941Y023D02*
X042059D01*
X042Y022941D02*
Y023059D01*
X041441Y023D02*
X041559D01*
X0415Y022941D02*
Y023059D01*
X041441Y0235D02*
X041559D01*
X0415Y023441D02*
Y023559D01*
X041941Y0235D02*
X042059D01*
X042Y023441D02*
Y023559D01*
X042441Y0235D02*
X042559D01*
X0425Y023441D02*
Y023559D01*
X042441Y024D02*
X042559D01*
X0425Y023941D02*
Y024059D01*
X041941Y024D02*
X042059D01*
X042Y023941D02*
Y024059D01*
X041441Y024D02*
X041559D01*
X0415Y023941D02*
Y024059D01*
X049441Y0505D02*
X049559D01*
X0495Y050441D02*
Y050559D01*
X049941Y0505D02*
X050059D01*
X05Y050441D02*
Y050559D01*
X048941Y0505D02*
X049059D01*
X049Y050441D02*
Y050559D01*
X048441Y0505D02*
X048559D01*
X0485Y050441D02*
Y050559D01*
X047941Y0505D02*
X048059D01*
X048Y050441D02*
Y050559D01*
X047441Y0505D02*
X047559D01*
X0475Y050441D02*
Y050559D01*
X046941Y0505D02*
X047059D01*
X047Y050441D02*
Y050559D01*
X046441Y0505D02*
X046559D01*
X0465Y050441D02*
Y050559D01*
X045941Y0505D02*
X046059D01*
X046Y050441D02*
Y050559D01*
X045441Y0505D02*
X045559D01*
X0455Y050441D02*
Y050559D01*
X044941Y0505D02*
X045059D01*
X045Y050441D02*
Y050559D01*
X044441Y0505D02*
X044559D01*
X0445Y050441D02*
Y050559D01*
X043941Y0505D02*
X044059D01*
X044Y050441D02*
Y050559D01*
X043441Y0505D02*
X043559D01*
X0435Y050441D02*
Y050559D01*
X042941Y0505D02*
X043059D01*
X043Y050441D02*
Y050559D01*
X042441Y0505D02*
X042559D01*
X0425Y050441D02*
Y050559D01*
X041941Y0505D02*
X042059D01*
X042Y050441D02*
Y050559D01*
X041441Y0505D02*
X041559D01*
X0415Y050441D02*
Y050559D01*
X040941Y0505D02*
X041059D01*
X041Y050441D02*
Y050559D01*
X040441Y0505D02*
X040559D01*
X0405Y050441D02*
Y050559D01*
X039941Y0505D02*
X040059D01*
X04Y050441D02*
Y050559D01*
X039441Y0505D02*
X039559D01*
X0395Y050441D02*
Y050559D01*
X038941Y0505D02*
X039059D01*
X039Y050441D02*
Y050559D01*
X038441Y0505D02*
X038559D01*
X0385Y050441D02*
Y050559D01*
X037941Y0505D02*
X038059D01*
X038Y050441D02*
Y050559D01*
X037441Y0505D02*
X037559D01*
X0375Y050441D02*
Y050559D01*
X036941Y0505D02*
X037059D01*
X037Y050441D02*
Y050559D01*
X036441Y0505D02*
X036559D01*
X0365Y050441D02*
Y050559D01*
X035941Y0505D02*
X036059D01*
X036Y050441D02*
Y050559D01*
X035441Y0505D02*
X035559D01*
X0355Y050441D02*
Y050559D01*
X034941Y0505D02*
X035059D01*
X035Y050441D02*
Y050559D01*
X034441Y0505D02*
X034559D01*
X0345Y050441D02*
Y050559D01*
X033941Y0505D02*
X034059D01*
X034Y050441D02*
Y050559D01*
X033441Y0505D02*
X033559D01*
X0335Y050441D02*
Y050559D01*
X032941Y0505D02*
X033059D01*
X033Y050441D02*
Y050559D01*
X032441Y0505D02*
X032559D01*
X0325Y050441D02*
Y050559D01*
X031941Y0505D02*
X032059D01*
X032Y050441D02*
Y050559D01*
X031441Y0505D02*
X031559D01*
X0315Y050441D02*
Y050559D01*
X030941Y0505D02*
X031059D01*
X031Y050441D02*
Y050559D01*
X030441Y0505D02*
X030559D01*
X0305Y050441D02*
Y050559D01*
X029941Y0505D02*
X030059D01*
X03Y050441D02*
Y050559D01*
X029441Y0505D02*
X029559D01*
X0295Y050441D02*
Y050559D01*
X028941Y0505D02*
X029059D01*
X029Y050441D02*
Y050559D01*
X028441Y0505D02*
X028559D01*
X0285Y050441D02*
Y050559D01*
X027941Y0505D02*
X028059D01*
X028Y050441D02*
Y050559D01*
X049941Y0151D02*
X050059D01*
X05Y015041D02*
Y015159D01*
X049441Y0151D02*
X049559D01*
X0495Y015041D02*
Y015159D01*
X048941Y0151D02*
X049059D01*
X049Y015041D02*
Y015159D01*
X048441Y0151D02*
X048559D01*
X0485Y015041D02*
Y015159D01*
X047941Y0151D02*
X048059D01*
X048Y015041D02*
Y015159D01*
X047441Y0151D02*
X047559D01*
X0475Y015041D02*
Y015159D01*
X046941Y0151D02*
X047059D01*
X047Y015041D02*
Y015159D01*
X046441Y0151D02*
X046559D01*
X0465Y015041D02*
Y015159D01*
X045941Y0151D02*
X046059D01*
X046Y015041D02*
Y015159D01*
X045441Y0151D02*
X045559D01*
X0455Y015041D02*
Y015159D01*
X044941Y0151D02*
X045059D01*
X045Y015041D02*
Y015159D01*
X044441Y0151D02*
X044559D01*
X0445Y015041D02*
Y015159D01*
X043941Y0151D02*
X044059D01*
X044Y015041D02*
Y015159D01*
X043441Y0151D02*
X043559D01*
X0435Y015041D02*
Y015159D01*
X042941Y0151D02*
X043059D01*
X043Y015041D02*
Y015159D01*
X042441Y0151D02*
X042559D01*
X0425Y015041D02*
Y015159D01*
X041941Y0151D02*
X042059D01*
X042Y015041D02*
Y015159D01*
X041441Y0151D02*
X041559D01*
X0415Y015041D02*
Y015159D01*
X040941Y0151D02*
X041059D01*
X041Y015041D02*
Y015159D01*
X040441Y0151D02*
X040559D01*
X0405Y015041D02*
Y015159D01*
X039941Y0151D02*
X040059D01*
X04Y015041D02*
Y015159D01*
X039441Y0151D02*
X039559D01*
X0395Y015041D02*
Y015159D01*
X038941Y0151D02*
X039059D01*
X039Y015041D02*
Y015159D01*
X038441Y0151D02*
X038559D01*
X0385Y015041D02*
Y015159D01*
X037941Y0151D02*
X038059D01*
X038Y015041D02*
Y015159D01*
X037441Y0151D02*
X037559D01*
X0375Y015041D02*
Y015159D01*
X036941Y0151D02*
X037059D01*
X037Y015041D02*
Y015159D01*
X036441Y0151D02*
X036559D01*
X0365Y015041D02*
Y015159D01*
X035941Y0151D02*
X036059D01*
X036Y015041D02*
Y015159D01*
X035441Y0151D02*
X035559D01*
X0355Y015041D02*
Y015159D01*
X034941Y0151D02*
X035059D01*
X035Y015041D02*
Y015159D01*
X034441Y0151D02*
X034559D01*
X0345Y015041D02*
Y015159D01*
X033941Y0151D02*
X034059D01*
X034Y015041D02*
Y015159D01*
X033441Y0151D02*
X033559D01*
X0335Y015041D02*
Y015159D01*
X032941Y0151D02*
X033059D01*
X033Y015041D02*
Y015159D01*
X032441Y0151D02*
X032559D01*
X0325Y015041D02*
Y015159D01*
X031941Y0151D02*
X032059D01*
X032Y015041D02*
Y015159D01*
X031441Y0151D02*
X031559D01*
X0315Y015041D02*
Y015159D01*
X030941Y0151D02*
X031059D01*
X031Y015041D02*
Y015159D01*
X030441Y0151D02*
X030559D01*
X0305Y015041D02*
Y015159D01*
X029941Y0151D02*
X030059D01*
X03Y015041D02*
Y015159D01*
X029441Y0151D02*
X029559D01*
X0295Y015041D02*
Y015159D01*
X028941Y0151D02*
X029059D01*
X029Y015041D02*
Y015159D01*
X028441Y0151D02*
X028559D01*
X0285Y015041D02*
Y015159D01*
X052441Y0175D02*
X052559D01*
X0525Y017441D02*
Y017559D01*
X052441Y018D02*
X052559D01*
X0525Y017941D02*
Y018059D01*
X052441Y0185D02*
X052559D01*
X0525Y018441D02*
Y018559D01*
X052441Y019D02*
X052559D01*
X0525Y018941D02*
Y019059D01*
X052441Y0195D02*
X052559D01*
X0525Y019441D02*
Y019559D01*
X052441Y02D02*
X052559D01*
X0525Y019941D02*
Y020059D01*
X052441Y0205D02*
X052559D01*
X0525Y020441D02*
Y020559D01*
X052441Y021D02*
X052559D01*
X0525Y020941D02*
Y021059D01*
X052441Y0215D02*
X052559D01*
X0525Y021441D02*
Y021559D01*
X052441Y022D02*
X052559D01*
X0525Y021941D02*
Y022059D01*
X052441Y023D02*
X052559D01*
X0525Y022941D02*
Y023059D01*
X052441Y0225D02*
X052559D01*
X0525Y022441D02*
Y022559D01*
X052441Y0235D02*
X052559D01*
X0525Y023441D02*
Y023559D01*
X052441Y024D02*
X052559D01*
X0525Y023941D02*
Y024059D01*
X052441Y0245D02*
X052559D01*
X0525Y024441D02*
Y024559D01*
X052441Y025D02*
X052559D01*
X0525Y024941D02*
Y025059D01*
X052441Y0255D02*
X052559D01*
X0525Y025441D02*
Y025559D01*
X052441Y026D02*
X052559D01*
X0525Y025941D02*
Y026059D01*
X052441Y0265D02*
X052559D01*
X0525Y026441D02*
Y026559D01*
X052441Y027D02*
X052559D01*
X0525Y026941D02*
Y027059D01*
X052441Y0275D02*
X052559D01*
X0525Y027441D02*
Y027559D01*
X052441Y028D02*
X052559D01*
X0525Y027941D02*
Y028059D01*
X052441Y0285D02*
X052559D01*
X0525Y028441D02*
Y028559D01*
X052441Y029D02*
X052559D01*
X0525Y028941D02*
Y029059D01*
X052441Y0295D02*
X052559D01*
X0525Y029441D02*
Y029559D01*
X052441Y03D02*
X052559D01*
X0525Y029941D02*
Y030059D01*
X052441Y0305D02*
X052559D01*
X0525Y030441D02*
Y030559D01*
X052441Y031D02*
X052559D01*
X0525Y030941D02*
Y031059D01*
X052441Y0315D02*
X052559D01*
X0525Y031441D02*
Y031559D01*
X052441Y032D02*
X052559D01*
X0525Y031941D02*
Y032059D01*
X052441Y0325D02*
X052559D01*
X0525Y032441D02*
Y032559D01*
X052441Y033D02*
X052559D01*
X0525Y032941D02*
Y033059D01*
X052441Y0335D02*
X052559D01*
X0525Y033441D02*
Y033559D01*
X052441Y034D02*
X052559D01*
X0525Y033941D02*
Y034059D01*
X052441Y0345D02*
X052559D01*
X0525Y034441D02*
Y034559D01*
X052441Y035D02*
X052559D01*
X0525Y034941D02*
Y035059D01*
X052441Y0355D02*
X052559D01*
X0525Y035441D02*
Y035559D01*
X052441Y036D02*
X052559D01*
X0525Y035941D02*
Y036059D01*
X052441Y0365D02*
X052559D01*
X0525Y036441D02*
Y036559D01*
X052441Y037D02*
X052559D01*
X0525Y036941D02*
Y037059D01*
X052441Y0375D02*
X052559D01*
X0525Y037441D02*
Y037559D01*
X052441Y038D02*
X052559D01*
X0525Y037941D02*
Y038059D01*
X052441Y0385D02*
X052559D01*
X0525Y038441D02*
Y038559D01*
X052441Y039D02*
X052559D01*
X0525Y038941D02*
Y039059D01*
X052441Y0395D02*
X052559D01*
X0525Y039441D02*
Y039559D01*
X052441Y04D02*
X052559D01*
X0525Y039941D02*
Y040059D01*
X052441Y0405D02*
X052559D01*
X0525Y040441D02*
Y040559D01*
X052441Y041D02*
X052559D01*
X0525Y040941D02*
Y041059D01*
X052441Y0415D02*
X052559D01*
X0525Y041441D02*
Y041559D01*
X052441Y042D02*
X052559D01*
X0525Y041941D02*
Y042059D01*
X052441Y0425D02*
X052559D01*
X0525Y042441D02*
Y042559D01*
X052441Y043D02*
X052559D01*
X0525Y042941D02*
Y043059D01*
X052441Y0435D02*
X052559D01*
X0525Y043441D02*
Y043559D01*
X052441Y044D02*
X052559D01*
X0525Y043941D02*
Y044059D01*
X052441Y0445D02*
X052559D01*
X0525Y044441D02*
Y044559D01*
X052441Y045D02*
X052559D01*
X0525Y044941D02*
Y045059D01*
X052441Y0455D02*
X052559D01*
X0525Y045441D02*
Y045559D01*
X052441Y046D02*
X052559D01*
X0525Y045941D02*
Y046059D01*
X052441Y0465D02*
X052559D01*
X0525Y046441D02*
Y046559D01*
X052441Y047D02*
X052559D01*
X0525Y046941D02*
Y047059D01*
X052441Y0475D02*
X052559D01*
X0525Y047441D02*
Y047559D01*
X052441Y048D02*
X052559D01*
X0525Y047941D02*
Y048059D01*
X025941Y0175D02*
X026059D01*
X026Y017441D02*
Y017559D01*
X025941Y018D02*
X026059D01*
X026Y017941D02*
Y018059D01*
X025941Y0185D02*
X026059D01*
X026Y018441D02*
Y018559D01*
X025941Y019D02*
X026059D01*
X026Y018941D02*
Y019059D01*
X025941Y0195D02*
X026059D01*
X026Y019441D02*
Y019559D01*
X025941Y02D02*
X026059D01*
X026Y019941D02*
Y020059D01*
X025941Y0205D02*
X026059D01*
X026Y020441D02*
Y020559D01*
X025941Y021D02*
X026059D01*
X026Y020941D02*
Y021059D01*
X025941Y0215D02*
X026059D01*
X026Y021441D02*
Y021559D01*
X025941Y022D02*
X026059D01*
X026Y021941D02*
Y022059D01*
X025941Y0225D02*
X026059D01*
X026Y022441D02*
Y022559D01*
X025941Y023D02*
X026059D01*
X026Y022941D02*
Y023059D01*
X025941Y0235D02*
X026059D01*
X026Y023441D02*
Y023559D01*
X025941Y024D02*
X026059D01*
X026Y023941D02*
Y024059D01*
X025941Y0245D02*
X026059D01*
X026Y024441D02*
Y024559D01*
X025941Y025D02*
X026059D01*
X026Y024941D02*
Y025059D01*
X025941Y0255D02*
X026059D01*
X026Y025441D02*
Y025559D01*
X025941Y026D02*
X026059D01*
X026Y025941D02*
Y026059D01*
X025941Y0265D02*
X026059D01*
X026Y026441D02*
Y026559D01*
X025941Y027D02*
X026059D01*
X026Y026941D02*
Y027059D01*
X025941Y0275D02*
X026059D01*
X026Y027441D02*
Y027559D01*
X025941Y028D02*
X026059D01*
X026Y027941D02*
Y028059D01*
X025941Y0285D02*
X026059D01*
X026Y028441D02*
Y028559D01*
X025941Y029D02*
X026059D01*
X026Y028941D02*
Y029059D01*
X025941Y0295D02*
X026059D01*
X026Y029441D02*
Y029559D01*
X025941Y03D02*
X026059D01*
X026Y029941D02*
Y030059D01*
X025941Y0305D02*
X026059D01*
X026Y030441D02*
Y030559D01*
X025941Y031D02*
X026059D01*
X026Y030941D02*
Y031059D01*
X025941Y0315D02*
X026059D01*
X026Y031441D02*
Y031559D01*
X025941Y032D02*
X026059D01*
X026Y031941D02*
Y032059D01*
X025941Y0325D02*
X026059D01*
X026Y032441D02*
Y032559D01*
X025941Y033D02*
X026059D01*
X026Y032941D02*
Y033059D01*
X025941Y0335D02*
X026059D01*
X026Y033441D02*
Y033559D01*
X025941Y034D02*
X026059D01*
X026Y033941D02*
Y034059D01*
X025941Y0345D02*
X026059D01*
X026Y034441D02*
Y034559D01*
X025941Y035D02*
X026059D01*
X026Y034941D02*
Y035059D01*
X025941Y0355D02*
X026059D01*
X026Y035441D02*
Y035559D01*
X025941Y036D02*
X026059D01*
X026Y035941D02*
Y036059D01*
X025941Y0365D02*
X026059D01*
X026Y036441D02*
Y036559D01*
X025941Y037D02*
X026059D01*
X026Y036941D02*
Y037059D01*
X025941Y0375D02*
X026059D01*
X026Y037441D02*
Y037559D01*
X025941Y038D02*
X026059D01*
X026Y037941D02*
Y038059D01*
X025941Y0385D02*
X026059D01*
X026Y038441D02*
Y038559D01*
X025941Y039D02*
X026059D01*
X026Y038941D02*
Y039059D01*
X025941Y0395D02*
X026059D01*
X026Y039441D02*
Y039559D01*
X025941Y04D02*
X026059D01*
X026Y039941D02*
Y040059D01*
X025941Y0405D02*
X026059D01*
X026Y040441D02*
Y040559D01*
X025941Y041D02*
X026059D01*
X026Y040941D02*
Y041059D01*
X025941Y0415D02*
X026059D01*
X026Y041441D02*
Y041559D01*
X025941Y042D02*
X026059D01*
X026Y041941D02*
Y042059D01*
X025941Y0425D02*
X026059D01*
X026Y042441D02*
Y042559D01*
X025941Y043D02*
X026059D01*
X026Y042941D02*
Y043059D01*
X025941Y0435D02*
X026059D01*
X026Y043441D02*
Y043559D01*
X025941Y044D02*
X026059D01*
X026Y043941D02*
Y044059D01*
X025941Y0445D02*
X026059D01*
X026Y044441D02*
Y044559D01*
X025941Y0455D02*
X026059D01*
X026Y045441D02*
Y045559D01*
X025941Y045D02*
X026059D01*
X026Y044941D02*
Y045059D01*
X025941Y046D02*
X026059D01*
X026Y045941D02*
Y046059D01*
X025941Y0465D02*
X026059D01*
X026Y046441D02*
Y046559D01*
X025941Y047D02*
X026059D01*
X026Y046941D02*
Y047059D01*
X025941Y0475D02*
X026059D01*
X026Y047441D02*
Y047559D01*
X025941Y048D02*
X026059D01*
X026Y047941D02*
Y048059D01*
X025941Y0485D02*
X026059D01*
X026Y048441D02*
Y048559D01*
X031025Y0478D02*
X031275D01*
X03115Y047675D02*
Y047925D01*
X031042Y046133D02*
X031292D01*
X031167Y046008D02*
Y046258D01*
X031042Y044467D02*
X031292D01*
X031167Y044342D02*
Y044592D01*
X031025Y0428D02*
X031275D01*
X03115Y042675D02*
Y042925D01*
X040875Y04765D02*
X041125D01*
X041Y047525D02*
Y047775D01*
X040875Y04815D02*
X041125D01*
X041Y048025D02*
Y048275D01*
X035325Y04485D02*
X035575D01*
X03545Y044725D02*
Y044975D01*
X035325Y0483D02*
X035575D01*
X03545Y048175D02*
Y048425D01*
X035312Y046537D02*
X035562D01*
X035437Y046412D02*
Y046662D01*
X035325Y0431D02*
X035575D01*
X03545Y042975D02*
Y043225D01*
X038041Y0248D02*
X038159D01*
X0381Y024741D02*
Y024859D01*
X044775Y0209D02*
X045025D01*
X0449Y020775D02*
Y021025D01*
X040751Y02357D02*
X040869D01*
X04081Y023511D02*
Y023629D01*
M02*
