G04 Layer_Color=16711935*
%FSTAX24Y24*%
%MOIN*%
G70*
G01*
G75*
%ADD48C,0.0079*%
%ADD53C,0.0050*%
G36*
X034929Y043989D02*
X034698D01*
Y04417D01*
X034929D01*
Y043989D01*
D02*
G37*
G36*
X034137Y04436D02*
X033908D01*
Y04454D01*
X034137D01*
Y04436D01*
D02*
G37*
G36*
X034928Y04473D02*
X034698D01*
Y04491D01*
X034928D01*
Y04473D01*
D02*
G37*
G36*
X034929Y042276D02*
X034698D01*
Y042457D01*
X034929D01*
Y042276D01*
D02*
G37*
G36*
X034137Y042647D02*
X033908D01*
Y042827D01*
X034137D01*
Y042647D01*
D02*
G37*
G36*
X034928Y043017D02*
X034698D01*
Y043197D01*
X034928D01*
Y043017D01*
D02*
G37*
G36*
X034929Y047439D02*
X034698D01*
Y04762D01*
X034929D01*
Y047439D01*
D02*
G37*
G36*
X034137Y04781D02*
X033908D01*
Y04799D01*
X034137D01*
Y04781D01*
D02*
G37*
G36*
X034928Y04818D02*
X034698D01*
Y04836D01*
X034928D01*
Y04818D01*
D02*
G37*
G36*
X034929Y045702D02*
X034698D01*
Y045883D01*
X034929D01*
Y045702D01*
D02*
G37*
G36*
X034137Y046073D02*
X033908D01*
Y046253D01*
X034137D01*
Y046073D01*
D02*
G37*
G36*
X034928Y046443D02*
X034698D01*
Y046623D01*
X034928D01*
Y046443D01*
D02*
G37*
D48*
X031439Y0192D02*
G03*
X031439Y0192I-000039J0D01*
G01*
X042539D02*
G03*
X042539Y0192I-000039J0D01*
G01*
X036914D02*
G03*
X036914Y0192I-000039J0D01*
G01*
X036115Y0477D02*
G03*
X036115Y0477I-000039J0D01*
G01*
X039534Y024874D02*
G03*
X039534Y024874I-000039J0D01*
G01*
D53*
X032299Y028896D02*
X032701D01*
X032299Y029604D02*
X032701D01*
X032299Y028896D02*
Y029604D01*
X032701Y028896D02*
Y029604D01*
X032746Y034049D02*
Y034451D01*
X033454Y034049D02*
Y034451D01*
X032746D02*
X033454D01*
X032746Y034049D02*
X033454D01*
X032796Y032071D02*
Y032473D01*
X033504Y032071D02*
Y032473D01*
X032796D02*
X033504D01*
X032796Y032071D02*
X033504D01*
X0324Y017086D02*
Y020314D01*
X0284D02*
X0324D01*
X0284Y017086D02*
Y020314D01*
Y017086D02*
X0324D01*
X0435D02*
Y020314D01*
X0395D02*
X0435D01*
X0395Y017086D02*
Y020314D01*
Y017086D02*
X0435D01*
X037875D02*
Y020314D01*
X033875D02*
X037875D01*
X033875Y017086D02*
Y020314D01*
Y017086D02*
X037875D01*
X032299Y024546D02*
X032701D01*
X032299Y025254D02*
X032701D01*
X032299Y024546D02*
Y025254D01*
X032701Y024546D02*
Y025254D01*
X048446Y047099D02*
Y047501D01*
X049154Y047099D02*
Y047501D01*
X048446D02*
X049154D01*
X048446Y047099D02*
X049154D01*
X048446Y047999D02*
Y048401D01*
X049154Y047999D02*
Y048401D01*
X048446D02*
X049154D01*
X048446Y047999D02*
X049154D01*
X049296Y039849D02*
Y040251D01*
X050004Y039849D02*
Y040251D01*
X049296D02*
X050004D01*
X049296Y039849D02*
X050004D01*
X049285Y040649D02*
Y041051D01*
X049994Y040649D02*
Y041051D01*
X049285D02*
X049994D01*
X049285Y040649D02*
X049994D01*
X031046Y040999D02*
Y041401D01*
X031754Y040999D02*
Y041401D01*
X031046D02*
X031754D01*
X031046Y040999D02*
X031754D01*
X028646Y040949D02*
Y041351D01*
X029354Y040949D02*
Y041351D01*
X028646D02*
X029354D01*
X028646Y040949D02*
X029354D01*
X0363Y049546D02*
X0453D01*
Y0487D02*
Y049546D01*
Y0277D02*
Y0487D01*
X0363Y0277D02*
X0453D01*
X0363D02*
Y0487D01*
Y049546D01*
Y0487D02*
X0453D01*
X034162Y042442D02*
Y043032D01*
X034477Y042166D02*
X034673D01*
Y042639D01*
Y042835D02*
Y043308D01*
X034477D02*
X034673D01*
X034162Y044155D02*
Y044745D01*
X034477Y043879D02*
X034673D01*
Y044352D01*
Y044548D02*
Y045021D01*
X034477D02*
X034673D01*
X034162Y045868D02*
Y046458D01*
X034477Y045592D02*
X034673D01*
Y046065D01*
Y046261D02*
Y046734D01*
X034477D02*
X034673D01*
X034162Y047605D02*
Y048195D01*
X034477Y047329D02*
X034673D01*
Y047802D01*
Y047998D02*
Y048471D01*
X034477D02*
X034673D01*
X040085Y025071D02*
X040715D01*
X040085Y023929D02*
X040715D01*
X040085D02*
Y025071D01*
X040715Y023929D02*
Y025071D01*
M02*
