G04 Layer_Color=65535*
%FSTAX24Y24*%
%MOIN*%
G70*
G01*
G75*
%ADD48C,0.0079*%
%ADD49C,0.0020*%
%ADD50C,0.0000*%
%ADD51C,0.0100*%
%ADD52C,0.0250*%
%ADD53C,0.0050*%
G36*
X031365Y031855D02*
X031005Y032215D01*
X031015D01*
X031365Y032565D01*
Y031855D01*
D02*
G37*
G36*
X031195Y028046D02*
X030835Y028406D01*
X030845D01*
X031195Y028756D01*
Y028046D01*
D02*
G37*
G36*
X031165Y023645D02*
X030805Y024005D01*
X030815D01*
X031165Y024355D01*
Y023645D01*
D02*
G37*
G36*
X03105Y043395D02*
X03069Y043755D01*
X0307D01*
X03105Y044105D01*
Y043395D01*
D02*
G37*
G36*
X031217Y037339D02*
X030981D01*
Y037576D01*
X031217D01*
Y037339D01*
D02*
G37*
G36*
X028806Y037312D02*
X02857D01*
Y037549D01*
X028806D01*
Y037312D01*
D02*
G37*
D48*
X034627Y030311D02*
G03*
X034627Y030389I0J000039D01*
G01*
D02*
G03*
X034627Y030311I0J-000039D01*
G01*
Y025961D02*
G03*
X034627Y026039I0J000039D01*
G01*
D02*
G03*
X034627Y025961I0J-000039D01*
G01*
X033014Y042761D02*
G03*
X033014Y042839I0J000039D01*
G01*
D02*
G03*
X033014Y042761I0J-000039D01*
G01*
X033027Y044427D02*
G03*
X033027Y044506I0J000039D01*
G01*
D02*
G03*
X033027Y044427I0J-000039D01*
G01*
Y046094D02*
G03*
X033027Y046173I0J000039D01*
G01*
D02*
G03*
X033027Y046094I0J-000039D01*
G01*
Y047761D02*
G03*
X033027Y047839I0J000039D01*
G01*
D02*
G03*
X033027Y047761I0J-000039D01*
G01*
X034159Y027961D02*
G03*
X034159Y028039I0J000039D01*
G01*
D02*
G03*
X034159Y027961I0J-000039D01*
G01*
Y028761D02*
G03*
X034159Y028839I0J000039D01*
G01*
D02*
G03*
X034159Y028761I0J-000039D01*
G01*
X034209Y023611D02*
G03*
X034209Y023689I0J000039D01*
G01*
D02*
G03*
X034209Y023611I0J-000039D01*
G01*
Y024411D02*
G03*
X034209Y024489I0J000039D01*
G01*
D02*
G03*
X034209Y024411I0J-000039D01*
G01*
X036115Y0477D02*
G03*
X036115Y0477I-000039J0D01*
G01*
X039534Y024874D02*
G03*
X039534Y024874I-000039J0D01*
G01*
X030564Y036434D02*
G03*
X030564Y036434I-000056J0D01*
G01*
X031241Y037458D02*
G03*
X031241Y037458I-000142J0D01*
G01*
X028153Y036407D02*
G03*
X028153Y036407I-000056J0D01*
G01*
X02883Y037431D02*
G03*
X02883Y037431I-000142J0D01*
G01*
X04035Y022147D02*
Y023053D01*
X041791Y027074D02*
X044492D01*
X041791Y024526D02*
X044492D01*
X033526Y027809D02*
X033919D01*
X033388Y027825D02*
Y028975D01*
X033112D02*
X033388D01*
X033112Y027825D02*
Y028975D01*
Y027825D02*
X033388D01*
X033526Y023459D02*
X033919D01*
X033388Y023475D02*
Y024625D01*
X033112D02*
X033388D01*
X033112Y023475D02*
Y024625D01*
Y023475D02*
X033388D01*
X03087Y034053D02*
Y034492D01*
Y034771D02*
Y03511D01*
Y03128D02*
Y032338D01*
Y034492D02*
Y034771D01*
X02762Y03128D02*
X03087D01*
X02762D02*
Y03511D01*
X03087D01*
Y032338D02*
Y034053D01*
X02763Y04867D02*
X0305D01*
X030705Y037005D02*
X032516D01*
Y039249D01*
X030705D02*
X032516D01*
X030705Y037005D02*
Y039249D01*
X028294Y036978D02*
X030106D01*
Y039222D01*
X028294D02*
X030106D01*
X028294Y036978D02*
Y039222D01*
X03075Y028258D02*
Y029513D01*
X02765Y030301D02*
X03075D01*
X02765Y027471D02*
Y030301D01*
Y027471D02*
X03075D01*
Y029513D02*
Y030301D01*
Y027471D02*
Y028258D01*
X03072Y02307D02*
Y023858D01*
Y025113D02*
Y0259D01*
X02762Y02307D02*
X03072D01*
X02762D02*
Y0259D01*
X03072D01*
Y023858D02*
Y025113D01*
X041038Y02699D02*
X04109Y027043D01*
Y027148D01*
X041038Y0272D01*
X040828D01*
X040776Y027148D01*
Y027043D01*
X040828Y02699D01*
Y026885D02*
X040776Y026833D01*
Y026728D01*
X040828Y026675D01*
X041038D01*
X04109Y026728D01*
Y026833D01*
X041038Y026885D01*
X040985D01*
X040933Y026833D01*
Y026675D01*
X03835Y024615D02*
Y024352D01*
X038402Y0243D01*
X038507D01*
X03856Y024352D01*
Y024615D01*
X038822Y0243D02*
Y024615D01*
X038665Y024457D01*
X038875D01*
X027915Y0401D02*
X027652D01*
X0276Y040048D01*
Y039943D01*
X027652Y03989D01*
X027915D01*
X027862Y039785D02*
X027915Y039733D01*
Y039628D01*
X027862Y039575D01*
X02781D01*
X027757Y039628D01*
Y03968D01*
Y039628D01*
X027705Y039575D01*
X027652D01*
X0276Y039628D01*
Y039733D01*
X027652Y039785D01*
X032896Y039727D02*
X033158D01*
X033211Y03978D01*
Y039885D01*
X033158Y039937D01*
X032896D01*
X033211Y040252D02*
Y040042D01*
X033001Y040252D01*
X032948D01*
X032896Y0402D01*
Y040095D01*
X032948Y040042D01*
X039552Y0262D02*
Y026515D01*
X039709D01*
X039761Y026462D01*
Y026357D01*
X039709Y026305D01*
X039552D01*
X039657D02*
X039761Y0262D01*
X040076D02*
X039866D01*
X040076Y02641D01*
Y026462D01*
X040024Y026515D01*
X039919D01*
X039866Y026462D01*
X040339Y0262D02*
Y026515D01*
X040181Y026357D01*
X040391D01*
X0391Y0257D02*
X038785D01*
Y025857D01*
X038838Y02591D01*
X038943D01*
X038995Y025857D01*
Y0257D01*
Y025805D02*
X0391Y02591D01*
Y026225D02*
Y026015D01*
X03889Y026225D01*
X038838D01*
X038785Y026172D01*
Y026067D01*
X038838Y026015D01*
Y02633D02*
X038785Y026382D01*
Y026487D01*
X038838Y02654D01*
X03889D01*
X038943Y026487D01*
Y026435D01*
Y026487D01*
X038995Y02654D01*
X039048D01*
X0391Y026487D01*
Y026382D01*
X039048Y02633D01*
X0336Y03115D02*
Y031465D01*
X033757D01*
X03381Y031412D01*
Y031307D01*
X033757Y031255D01*
X0336D01*
X033705D02*
X03381Y03115D01*
X034125D02*
X033915D01*
X034125Y03136D01*
Y031412D01*
X034072Y031465D01*
X033967D01*
X033915Y031412D01*
X03444Y03115D02*
X03423D01*
X03444Y03136D01*
Y031412D01*
X034387Y031465D01*
X034282D01*
X03423Y031412D01*
X033098Y03305D02*
Y033365D01*
X033256D01*
X033308Y033312D01*
Y033207D01*
X033256Y033155D01*
X033098D01*
X033203D02*
X033308Y03305D01*
X033623D02*
X033413D01*
X033623Y03326D01*
Y033312D01*
X033571Y033365D01*
X033466D01*
X033413Y033312D01*
X033728Y03305D02*
X033833D01*
X033781D01*
Y033365D01*
X033728Y033312D01*
X0274Y04095D02*
Y041265D01*
X027557D01*
X02761Y041212D01*
Y041107D01*
X027557Y041055D01*
X0274D01*
X027505D02*
X02761Y04095D01*
X027925D02*
X027715D01*
X027925Y04116D01*
Y041212D01*
X027872Y041265D01*
X027767D01*
X027715Y041212D01*
X02803D02*
X028082Y041265D01*
X028187D01*
X02824Y041212D01*
Y041002D01*
X028187Y04095D01*
X028082D01*
X02803Y041002D01*
Y041212D01*
X0323Y041D02*
Y041315D01*
X032457D01*
X03251Y041262D01*
Y041157D01*
X032457Y041105D01*
X0323D01*
X032405D02*
X03251Y041D01*
X032615D02*
X03272D01*
X032667D01*
Y041315D01*
X032615Y041262D01*
X032877Y041052D02*
X03293Y041D01*
X033035D01*
X033087Y041052D01*
Y041262D01*
X033035Y041315D01*
X03293D01*
X032877Y041262D01*
Y04121D01*
X03293Y041157D01*
X033087D01*
X034Y031972D02*
Y032287D01*
X034157D01*
X03421Y032234D01*
Y032129D01*
X034157Y032077D01*
X034D01*
X034105D02*
X03421Y031972D01*
X034315D02*
X03442D01*
X034367D01*
Y032287D01*
X034315Y032234D01*
X034577D02*
X03463Y032287D01*
X034735D01*
X034787Y032234D01*
Y032182D01*
X034735Y032129D01*
X034787Y032077D01*
Y032024D01*
X034735Y031972D01*
X03463D01*
X034577Y032024D01*
Y032077D01*
X03463Y032129D01*
X034577Y032182D01*
Y032234D01*
X03463Y032129D02*
X034735D01*
X0338Y034314D02*
Y034629D01*
X033957D01*
X03401Y034576D01*
Y034472D01*
X033957Y034419D01*
X0338D01*
X033905D02*
X03401Y034314D01*
X034115D02*
X03422D01*
X034167D01*
Y034629D01*
X034115Y034576D01*
X034377Y034629D02*
X034587D01*
Y034576D01*
X034377Y034367D01*
Y034314D01*
X0315Y0471D02*
Y047415D01*
X031657D01*
X03171Y047362D01*
Y047257D01*
X031657Y047205D01*
X0315D01*
X031605D02*
X03171Y0471D01*
X031815D02*
X03192D01*
X031867D01*
Y047415D01*
X031815Y047362D01*
X032287Y047415D02*
X032182Y047362D01*
X032077Y047257D01*
Y047152D01*
X03213Y0471D01*
X032235D01*
X032287Y047152D01*
Y047205D01*
X032235Y047257D01*
X032077D01*
X0315Y04535D02*
Y045665D01*
X031657D01*
X03171Y045612D01*
Y045507D01*
X031657Y045455D01*
X0315D01*
X031605D02*
X03171Y04535D01*
X031815D02*
X03192D01*
X031867D01*
Y045665D01*
X031815Y045612D01*
X032287Y045665D02*
X032077D01*
Y045507D01*
X032182Y04556D01*
X032235D01*
X032287Y045507D01*
Y045402D01*
X032235Y04535D01*
X03213D01*
X032077Y045402D01*
X03145Y0437D02*
Y044015D01*
X031607D01*
X03166Y043962D01*
Y043857D01*
X031607Y043805D01*
X03145D01*
X031555D02*
X03166Y0437D01*
X031765D02*
X03187D01*
X031817D01*
Y044015D01*
X031765Y043962D01*
X032185Y0437D02*
Y044015D01*
X032027Y043857D01*
X032237D01*
X0315Y0421D02*
Y042415D01*
X031657D01*
X03171Y042362D01*
Y042257D01*
X031657Y042205D01*
X0315D01*
X031605D02*
X03171Y0421D01*
X031815D02*
X03192D01*
X031867D01*
Y042415D01*
X031815Y042362D01*
X032077D02*
X03213Y042415D01*
X032235D01*
X032287Y042362D01*
Y04231D01*
X032235Y042257D01*
X032182D01*
X032235D01*
X032287Y042205D01*
Y042152D01*
X032235Y0421D01*
X03213D01*
X032077Y042152D01*
X047744Y040731D02*
Y041046D01*
X047902D01*
X047954Y040993D01*
Y040888D01*
X047902Y040836D01*
X047744D01*
X047849D02*
X047954Y040731D01*
X048059D02*
X048164D01*
X048112D01*
Y041046D01*
X048059Y040993D01*
X048532Y040731D02*
X048322D01*
X048532Y040941D01*
Y040993D01*
X048479Y041046D01*
X048374D01*
X048322Y040993D01*
X035585Y0243D02*
Y024615D01*
X035743D01*
X035795Y024562D01*
Y024457D01*
X035743Y024405D01*
X035585D01*
X03569D02*
X035795Y0243D01*
X0359D02*
X036005D01*
X035953D01*
Y024615D01*
X0359Y024562D01*
X036163Y0243D02*
X036268D01*
X036215D01*
Y024615D01*
X036163Y024562D01*
X04775Y039938D02*
Y040253D01*
X047907D01*
X04796Y0402D01*
Y040095D01*
X047907Y040043D01*
X04775D01*
X047855D02*
X04796Y039938D01*
X048065D02*
X04817D01*
X048117D01*
Y040253D01*
X048065Y0402D01*
X048327D02*
X04838Y040253D01*
X048485D01*
X048537Y0402D01*
Y03999D01*
X048485Y039938D01*
X04838D01*
X048327Y03999D01*
Y0402D01*
X035585Y0235D02*
Y023815D01*
X035743D01*
X035795Y023762D01*
Y023657D01*
X035743Y023605D01*
X035585D01*
X03569D02*
X035795Y0235D01*
X0359Y023552D02*
X035953Y0235D01*
X036058D01*
X03611Y023552D01*
Y023762D01*
X036058Y023815D01*
X035953D01*
X0359Y023762D01*
Y02371D01*
X035953Y023657D01*
X03611D01*
X047292Y048068D02*
Y048382D01*
X04745D01*
X047502Y04833D01*
Y048225D01*
X04745Y048172D01*
X047292D01*
X047397D02*
X047502Y048068D01*
X047607Y04833D02*
X04766Y048382D01*
X047765D01*
X047817Y04833D01*
Y048277D01*
X047765Y048225D01*
X047817Y048172D01*
Y04812D01*
X047765Y048068D01*
X04766D01*
X047607Y04812D01*
Y048172D01*
X04766Y048225D01*
X047607Y048277D01*
Y04833D01*
X04766Y048225D02*
X047765D01*
X047292Y047137D02*
Y047451D01*
X04745D01*
X047502Y047399D01*
Y047294D01*
X04745Y047241D01*
X047292D01*
X047397D02*
X047502Y047137D01*
X047607Y047451D02*
X047817D01*
Y047399D01*
X047607Y047189D01*
Y047137D01*
X0322Y0256D02*
Y025915D01*
X032357D01*
X03241Y025862D01*
Y025757D01*
X032357Y025705D01*
X0322D01*
X032305D02*
X03241Y0256D01*
X032725Y025915D02*
X03262Y025862D01*
X032515Y025757D01*
Y025652D01*
X032567Y0256D01*
X032672D01*
X032725Y025652D01*
Y025705D01*
X032672Y025757D01*
X032515D01*
X035Y0258D02*
Y026115D01*
X035157D01*
X03521Y026062D01*
Y025957D01*
X035157Y025905D01*
X035D01*
X035105D02*
X03521Y0258D01*
X035525Y026115D02*
X035315D01*
Y025957D01*
X03542Y02601D01*
X035472D01*
X035525Y025957D01*
Y025852D01*
X035472Y0258D01*
X035367D01*
X035315Y025852D01*
X03535Y0286D02*
Y028915D01*
X035507D01*
X03556Y028862D01*
Y028757D01*
X035507Y028705D01*
X03535D01*
X035455D02*
X03556Y0286D01*
X035822D02*
Y028915D01*
X035665Y028757D01*
X035875D01*
X03535Y0278D02*
Y028115D01*
X035507D01*
X03556Y028062D01*
Y027957D01*
X035507Y027905D01*
X03535D01*
X035455D02*
X03556Y0278D01*
X035665Y028062D02*
X035717Y028115D01*
X035822D01*
X035875Y028062D01*
Y02801D01*
X035822Y027957D01*
X03577D01*
X035822D01*
X035875Y027905D01*
Y027852D01*
X035822Y0278D01*
X035717D01*
X035665Y027852D01*
X03265Y03005D02*
X032335D01*
Y030207D01*
X032388Y03026D01*
X032493D01*
X032545Y030207D01*
Y03005D01*
Y030155D02*
X03265Y03026D01*
Y030575D02*
Y030365D01*
X03244Y030575D01*
X032388D01*
X032335Y030522D01*
Y030417D01*
X032388Y030365D01*
X035Y03015D02*
Y030465D01*
X035157D01*
X03521Y030412D01*
Y030307D01*
X035157Y030255D01*
X035D01*
X035105D02*
X03521Y03015D01*
X035315D02*
X03542D01*
X035367D01*
Y030465D01*
X035315Y030412D01*
X03286Y023102D02*
Y023312D01*
X032807Y023365D01*
X032702D01*
X03265Y023312D01*
Y023102D01*
X032702Y02305D01*
X032807D01*
X032755Y023155D02*
X03286Y02305D01*
X032807D02*
X03286Y023102D01*
X033175Y02305D02*
X032965D01*
X033175Y02326D01*
Y023312D01*
X033122Y023365D01*
X033017D01*
X032965Y023312D01*
X03286Y027452D02*
Y027662D01*
X032807Y027715D01*
X032702D01*
X03265Y027662D01*
Y027452D01*
X032702Y0274D01*
X032807D01*
X032755Y027505D02*
X03286Y0274D01*
X032807D02*
X03286Y027452D01*
X032965Y0274D02*
X03307D01*
X033017D01*
Y027715D01*
X032965Y027662D01*
X033775Y02055D02*
Y020865D01*
X033932D01*
X033985Y020812D01*
Y020707D01*
X033932Y020655D01*
X033775D01*
X03409Y020812D02*
X034142Y020865D01*
X034247D01*
X0343Y020812D01*
Y02076D01*
X034247Y020707D01*
X034195D01*
X034247D01*
X0343Y020655D01*
Y020602D01*
X034247Y02055D01*
X034142D01*
X03409Y020602D01*
X03945Y02055D02*
Y020865D01*
X039607D01*
X03966Y020812D01*
Y020707D01*
X039607Y020655D01*
X03945D01*
X039975Y02055D02*
X039765D01*
X039975Y02076D01*
Y020812D01*
X039922Y020865D01*
X039817D01*
X039765Y020812D01*
X0284Y0206D02*
Y020915D01*
X028557D01*
X02861Y020862D01*
Y020757D01*
X028557Y020705D01*
X0284D01*
X028715Y0206D02*
X02882D01*
X028767D01*
Y020915D01*
X028715Y020862D01*
X045207Y02715D02*
X044892D01*
Y02694D01*
Y026835D02*
Y02673D01*
Y026783D01*
X045207D01*
X045154Y026835D01*
X02767Y035725D02*
Y03541D01*
Y035567D01*
X02788D01*
Y035725D01*
Y03541D01*
X028195Y035725D02*
X027985D01*
Y035567D01*
X02809Y03562D01*
X028142D01*
X028195Y035567D01*
Y035462D01*
X028142Y03541D01*
X028037D01*
X027985Y035462D01*
X02677Y025715D02*
Y0254D01*
Y025557D01*
X02698D01*
Y025715D01*
Y0254D01*
X027085Y025662D02*
X027137Y025715D01*
X027242D01*
X027295Y025662D01*
Y02561D01*
X027242Y025557D01*
X02719D01*
X027242D01*
X027295Y025505D01*
Y025452D01*
X027242Y0254D01*
X027137D01*
X027085Y025452D01*
X0467Y035885D02*
Y0362D01*
Y036043D01*
X04649D01*
Y035885D01*
Y0362D01*
X046175D02*
X046385D01*
X046175Y03599D01*
Y035938D01*
X046228Y035885D01*
X046333D01*
X046385Y035938D01*
X0268Y030716D02*
Y030401D01*
Y030558D01*
X02701D01*
Y030716D01*
Y030401D01*
X027115D02*
X02722D01*
X027167D01*
Y030716D01*
X027115Y030663D01*
X0346Y049015D02*
Y0487D01*
X034757D01*
X03481Y048752D01*
Y048962D01*
X034757Y049015D01*
X0346D01*
X035072Y0487D02*
Y049015D01*
X034915Y048857D01*
X035125D01*
X035554Y047134D02*
Y04682D01*
X035712D01*
X035764Y046872D01*
Y047082D01*
X035712Y047134D01*
X035554D01*
X035869Y047082D02*
X035921Y047134D01*
X036026D01*
X036079Y047082D01*
Y04703D01*
X036026Y046977D01*
X035974D01*
X036026D01*
X036079Y046925D01*
Y046872D01*
X036026Y04682D01*
X035921D01*
X035869Y046872D01*
X035567Y045447D02*
Y045133D01*
X035724D01*
X035777Y045185D01*
Y045395D01*
X035724Y045447D01*
X035567D01*
X036092Y045133D02*
X035882D01*
X036092Y045342D01*
Y045395D01*
X036039Y045447D01*
X035934D01*
X035882Y045395D01*
X0356Y043815D02*
Y0435D01*
X035757D01*
X03581Y043552D01*
Y043762D01*
X035757Y043815D01*
X0356D01*
X035915Y0435D02*
X03602D01*
X035967D01*
Y043815D01*
X035915Y043762D01*
X04451Y021962D02*
X044457Y022015D01*
X044352D01*
X0443Y021962D01*
Y021752D01*
X044352Y0217D01*
X044457D01*
X04451Y021752D01*
X044615Y0217D02*
X04472D01*
X044667D01*
Y022015D01*
X044615Y021962D01*
X045087Y022015D02*
X044877D01*
Y021857D01*
X044982Y02191D01*
X045035D01*
X045087Y021857D01*
Y021752D01*
X045035Y0217D01*
X04493D01*
X044877Y021752D01*
X04451Y022737D02*
X044457Y02279D01*
X044352D01*
X0443Y022737D01*
Y022527D01*
X044352Y022475D01*
X044457D01*
X04451Y022527D01*
X044615Y022475D02*
X04472D01*
X044667D01*
Y02279D01*
X044615Y022737D01*
X045035Y022475D02*
Y02279D01*
X044877Y022632D01*
X045087D01*
X04451Y023612D02*
X044457Y023665D01*
X044352D01*
X0443Y023612D01*
Y023402D01*
X044352Y02335D01*
X044457D01*
X04451Y023402D01*
X044615Y02335D02*
X04472D01*
X044667D01*
Y023665D01*
X044615Y023612D01*
X044877D02*
X04493Y023665D01*
X045035D01*
X045087Y023612D01*
Y02356D01*
X045035Y023507D01*
X044982D01*
X045035D01*
X045087Y023455D01*
Y023402D01*
X045035Y02335D01*
X04493D01*
X044877Y023402D01*
X038038Y02591D02*
X037985Y025857D01*
Y025752D01*
X038038Y0257D01*
X038248D01*
X0383Y025752D01*
Y025857D01*
X038248Y02591D01*
X0383Y026015D02*
Y02612D01*
Y026067D01*
X037985D01*
X038038Y026015D01*
X0383Y026487D02*
Y026277D01*
X03809Y026487D01*
X038038D01*
X037985Y026435D01*
Y02633D01*
X038038Y026277D01*
X038871Y021746D02*
X038818Y021799D01*
X038714D01*
X038661Y021746D01*
Y021536D01*
X038714Y021484D01*
X038818D01*
X038871Y021536D01*
X038976Y021484D02*
X039081D01*
X039028D01*
Y021799D01*
X038976Y021746D01*
X039238Y021484D02*
X039343D01*
X039291D01*
Y021799D01*
X039238Y021746D01*
X038811Y023112D02*
X038759Y023165D01*
X038654D01*
X038601Y023112D01*
Y022902D01*
X038654Y02285D01*
X038759D01*
X038811Y022902D01*
X038916Y02285D02*
X039021D01*
X038969D01*
Y023165D01*
X038916Y023112D01*
X039178D02*
X039231Y023165D01*
X039336D01*
X039388Y023112D01*
Y022902D01*
X039336Y02285D01*
X039231D01*
X039178Y022902D01*
Y023112D01*
X03171Y048662D02*
X031657Y048715D01*
X031552D01*
X0315Y048662D01*
Y048452D01*
X031552Y0484D01*
X031657D01*
X03171Y048452D01*
X031815Y048662D02*
X031867Y048715D01*
X031972D01*
X032025Y048662D01*
Y04861D01*
X031972Y048557D01*
X032025Y048505D01*
Y048452D01*
X031972Y0484D01*
X031867D01*
X031815Y048452D01*
Y048505D01*
X031867Y048557D01*
X031815Y04861D01*
Y048662D01*
X031867Y048557D02*
X031972D01*
X03176Y046862D02*
X031707Y046915D01*
X031602D01*
X03155Y046862D01*
Y046652D01*
X031602Y0466D01*
X031707D01*
X03176Y046652D01*
X031865Y046915D02*
X032075D01*
Y046862D01*
X031865Y046652D01*
Y0466D01*
X03171Y045112D02*
X031657Y045165D01*
X031552D01*
X0315Y045112D01*
Y044902D01*
X031552Y04485D01*
X031657D01*
X03171Y044902D01*
X032025Y045165D02*
X03192Y045112D01*
X031815Y045007D01*
Y044902D01*
X031867Y04485D01*
X031972D01*
X032025Y044902D01*
Y044955D01*
X031972Y045007D01*
X031815D01*
X03171Y043462D02*
X031657Y043515D01*
X031552D01*
X0315Y043462D01*
Y043252D01*
X031552Y0432D01*
X031657D01*
X03171Y043252D01*
X032025Y043515D02*
X031815D01*
Y043357D01*
X03192Y04341D01*
X031972D01*
X032025Y043357D01*
Y043252D01*
X031972Y0432D01*
X031867D01*
X031815Y043252D01*
X042731Y048529D02*
X042679Y048582D01*
X042574D01*
X042521Y048529D01*
Y048319D01*
X042574Y048267D01*
X042679D01*
X042731Y048319D01*
X042994Y048267D02*
Y048582D01*
X042836Y048424D01*
X043046D01*
X03898Y031482D02*
X038927Y031535D01*
X038822D01*
X03877Y031482D01*
Y031272D01*
X038822Y03122D01*
X038927D01*
X03898Y031272D01*
X039085Y031482D02*
X039137Y031535D01*
X039242D01*
X039295Y031482D01*
Y03143D01*
X039242Y031377D01*
X03919D01*
X039242D01*
X039295Y031325D01*
Y031272D01*
X039242Y03122D01*
X039137D01*
X039085Y031272D01*
X04801Y039362D02*
X047957Y039415D01*
X047852D01*
X0478Y039362D01*
Y039152D01*
X047852Y0391D01*
X047957D01*
X04801Y039152D01*
X048325Y0391D02*
X048115D01*
X048325Y03931D01*
Y039362D01*
X048272Y039415D01*
X048167D01*
X048115Y039362D01*
X048699Y044268D02*
X048646Y04432D01*
X048542D01*
X048489Y044268D01*
Y044058D01*
X048542Y044005D01*
X048646D01*
X048699Y044058D01*
X048804Y044005D02*
X048909D01*
X048856D01*
Y04432D01*
X048804Y044268D01*
X031062Y04299D02*
X031115Y043043D01*
Y043148D01*
X031062Y0432D01*
X030852D01*
X0308Y043148D01*
Y043043D01*
X030852Y04299D01*
X030957D01*
Y043095D01*
X0308Y042885D02*
X031115D01*
X0308Y042675D01*
X031115D01*
Y04257D02*
X0308D01*
Y042413D01*
X030852Y04236D01*
X031062D01*
X031115Y042413D01*
Y04257D01*
X030947Y02984D02*
Y02963D01*
X031052Y029735D02*
X030842D01*
X031037Y02592D02*
Y02571D01*
X031142Y025815D02*
X030932D01*
X043857Y0203D02*
Y02009D01*
X043962Y020195D02*
X043752D01*
X038257Y0203D02*
Y02009D01*
X038362Y020195D02*
X038152D01*
X032657Y02025D02*
Y02004D01*
X032762Y020145D02*
X032552D01*
D49*
X032224Y03324D02*
G03*
X032224Y03326I0J00001D01*
G01*
D02*
G03*
X032224Y03324I0J-00001D01*
G01*
X033424Y031304D02*
G03*
X033424Y031284I0J-00001D01*
G01*
D02*
G03*
X033424Y031304I0J00001D01*
G01*
X039874Y02581D02*
G03*
X039874Y02579I0J-00001D01*
G01*
D02*
G03*
X039874Y02581I0J00001D01*
G01*
D50*
X035166Y042028D02*
G03*
X035166Y042028I-000039J0D01*
G01*
Y043741D02*
G03*
X035166Y043741I-000039J0D01*
G01*
Y045454D02*
G03*
X035166Y045454I-000039J0D01*
G01*
Y047191D02*
G03*
X035166Y047191I-000039J0D01*
G01*
D51*
X02865Y03185D02*
G03*
X02866Y03186I0J00001D01*
G01*
X02765Y0344D02*
G03*
X02764Y03441I-00001J0D01*
G01*
X02766D02*
G03*
X02765Y0344I0J-00001D01*
G01*
X02768Y029701D02*
G03*
X02767Y029711I-00001J0D01*
G01*
X02769D02*
G03*
X02768Y029701I0J-00001D01*
G01*
X02868Y028051D02*
G03*
X02869Y028061I0J00001D01*
G01*
X02865Y02365D02*
G03*
X02866Y02366I0J00001D01*
G01*
X02766Y02531D02*
G03*
X02765Y0253I0J-00001D01*
G01*
D02*
G03*
X02764Y02531I-00001J0D01*
G01*
X046Y02D02*
Y0356D01*
Y02D02*
X051D01*
Y0358D01*
X0462D02*
X051D01*
X046D02*
X0462D01*
X046Y0356D02*
Y0358D01*
X02766Y03184D02*
X02866D01*
Y03225D01*
X02764D02*
X02866D01*
X02766Y03441D02*
X02865D01*
Y034D02*
Y03441D01*
X02763Y034D02*
X02865D01*
X02763Y04275D02*
X0305D01*
Y04867D01*
X02763Y04333D02*
X02867D01*
Y04395D01*
X02764D02*
X02867D01*
X02763Y04817D02*
X0286D01*
Y04766D02*
Y04817D01*
X02857Y04763D02*
X0286Y04766D01*
X02764Y04763D02*
X02857D01*
X02763Y04275D02*
Y04867D01*
X02769Y029711D02*
X02868D01*
Y029301D02*
Y029711D01*
X02766Y029301D02*
X02868D01*
X02767Y028451D02*
X02869D01*
Y028041D02*
Y028451D01*
X02769Y028041D02*
X02869D01*
X02766Y02364D02*
X02866D01*
Y02405D01*
X02764D02*
X02866D01*
X02763Y0249D02*
X02865D01*
Y02531D01*
X02766D02*
X02865D01*
X0461Y04789D02*
Y04729D01*
Y04759D01*
X0465D01*
Y04789D01*
Y04729D01*
X0471Y04789D02*
X0469Y04779D01*
X0467Y04759D01*
Y04739D01*
X0468Y04729D01*
X047D01*
X0471Y04739D01*
Y04749D01*
X047Y04759D01*
X0467D01*
X0278Y049462D02*
Y04895D01*
Y049206D01*
X028141D01*
Y049462D01*
Y04895D01*
X028567D02*
Y049462D01*
X028312Y049206D01*
X028653D01*
X03625Y049512D02*
Y049085D01*
X036335Y049D01*
X036506D01*
X036591Y049085D01*
Y049512D01*
X036762Y049D02*
X036932D01*
X036847D01*
Y049512D01*
X036762Y049426D01*
X031722Y03502D02*
X03121D01*
Y034679D01*
X031722Y034508D02*
Y034338D01*
Y034423D01*
X03121D01*
Y034508D01*
Y034338D01*
Y034082D02*
X031722D01*
X031551Y033911D01*
X031722Y033741D01*
X03121D01*
X031722Y03357D02*
Y0334D01*
Y033485D01*
X03121D01*
Y03357D01*
Y0334D01*
X031722Y033144D02*
Y032803D01*
Y032973D01*
X03121D01*
X031262Y04775D02*
X03075D01*
Y047494D01*
X030835Y047409D01*
X030921D01*
X031006Y047494D01*
Y04775D01*
Y047494D01*
X031091Y047409D01*
X031176D01*
X031262Y047494D01*
Y04775D01*
Y047238D02*
X030835D01*
X03075Y047153D01*
Y046983D01*
X030835Y046897D01*
X031262D01*
Y046727D02*
Y046386D01*
Y046556D01*
X03075D01*
X031262Y046215D02*
Y045874D01*
Y046045D01*
X03075D01*
X031262Y045448D02*
Y045618D01*
X031176Y045703D01*
X030835D01*
X03075Y045618D01*
Y045448D01*
X030835Y045362D01*
X031176D01*
X031262Y045448D01*
X03075Y045192D02*
X031262D01*
X03075Y044851D01*
X031262D01*
X03143Y02899D02*
X031942D01*
Y028734D01*
X031856Y028649D01*
X031686D01*
X031601Y028734D01*
Y02899D01*
X031942Y028478D02*
X031515D01*
X03143Y028393D01*
Y028223D01*
X031515Y028137D01*
X031942D01*
Y027967D02*
X03143D01*
Y027626D01*
X031856Y027114D02*
X031942Y027199D01*
Y02737D01*
X031856Y027455D01*
X031771D01*
X031686Y02737D01*
Y027199D01*
X031601Y027114D01*
X031515D01*
X03143Y027199D01*
Y02737D01*
X031515Y027455D01*
X031942Y026602D02*
Y026943D01*
X03143D01*
Y026602D01*
X031686Y026943D02*
Y026773D01*
X031942Y02458D02*
X03143D01*
Y024324D01*
X031515Y024239D01*
X031856D01*
X031942Y024324D01*
Y02458D01*
Y024068D02*
Y023898D01*
Y023983D01*
X03143D01*
Y024068D01*
Y023898D01*
Y023642D02*
X031942D01*
Y023386D01*
X031856Y023301D01*
X031686D01*
X031601Y023386D01*
Y023642D01*
Y023471D02*
X03143Y023301D01*
X0291Y020856D02*
X029441D01*
X029271Y021026D02*
Y020685D01*
X029953Y0206D02*
X029612D01*
X029953Y020941D01*
Y021026D01*
X029867Y021112D01*
X029697D01*
X029612Y021026D01*
X030379Y0206D02*
Y021112D01*
X030123Y020856D01*
X030464D01*
X030635Y021112D02*
Y020771D01*
X030805Y0206D01*
X030976Y020771D01*
Y021112D01*
X031147Y020515D02*
X031488D01*
X031658Y021112D02*
X031829D01*
X031744D01*
Y0206D01*
X031658D01*
X031829D01*
X032085D02*
Y020941D01*
X03234D01*
X032426Y020856D01*
Y0206D01*
X0345Y020856D02*
X034841D01*
X034671Y021026D02*
Y020685D01*
X035353Y0206D02*
X035012D01*
X035353Y020941D01*
Y021026D01*
X035267Y021112D01*
X035097D01*
X035012Y021026D01*
X035779Y0206D02*
Y021112D01*
X035523Y020856D01*
X035864D01*
X036035Y021112D02*
Y020771D01*
X036205Y0206D01*
X036376Y020771D01*
Y021112D01*
X036547Y020515D02*
X036888D01*
X037314Y021112D02*
X037143D01*
X037058Y021026D01*
Y020685D01*
X037143Y0206D01*
X037314D01*
X037399Y020685D01*
Y021026D01*
X037314Y021112D01*
X03757Y020941D02*
Y020685D01*
X037655Y0206D01*
X037911D01*
Y020941D01*
X038167Y021026D02*
Y020941D01*
X038082D01*
X038252D01*
X038167D01*
Y020685D01*
X038252Y0206D01*
X04025Y020856D02*
X040591D01*
X040421Y021026D02*
Y020685D01*
X040762Y021026D02*
X040847Y021112D01*
X041017D01*
X041103Y021026D01*
Y020941D01*
X041017Y020856D01*
X040932D01*
X041017D01*
X041103Y020771D01*
Y020685D01*
X041017Y0206D01*
X040847D01*
X040762Y020685D01*
X041273Y021112D02*
Y020771D01*
X041444Y0206D01*
X041614Y020771D01*
Y021112D01*
X041785Y021026D02*
X04187Y021112D01*
X042041D01*
X042126Y021026D01*
Y020941D01*
X042041Y020856D01*
X041955D01*
X042041D01*
X042126Y020771D01*
Y020685D01*
X042041Y0206D01*
X04187D01*
X041785Y020685D01*
X042297Y020515D02*
X042638D01*
X043064Y021112D02*
X042894D01*
X042808Y021026D01*
Y020685D01*
X042894Y0206D01*
X043064D01*
X043149Y020685D01*
Y021026D01*
X043064Y021112D01*
X04332Y020941D02*
Y020685D01*
X043405Y0206D01*
X043661D01*
Y020941D01*
X043917Y021026D02*
Y020941D01*
X043832D01*
X044002D01*
X043917D01*
Y020685D01*
X044002Y0206D01*
X046356Y044112D02*
X046185D01*
X0461Y044026D01*
Y043685D01*
X046185Y0436D01*
X046356D01*
X046441Y043685D01*
Y044026D01*
X046356Y044112D01*
X046612D02*
Y0436D01*
X046953D01*
X047464Y044112D02*
X047123D01*
Y0436D01*
X047464D01*
X047123Y043856D02*
X047294D01*
X047635Y044112D02*
Y0436D01*
X047891D01*
X047976Y043685D01*
Y044026D01*
X047891Y044112D01*
X047635D01*
X0466Y035512D02*
Y035D01*
X046941D01*
X047197D02*
X047367D01*
X047453Y035085D01*
Y035256D01*
X047367Y035341D01*
X047197D01*
X047112Y035256D01*
Y035085D01*
X047197Y035D01*
X047709Y035341D02*
X047879D01*
X047964Y035256D01*
Y035D01*
X047709D01*
X047623Y035085D01*
X047709Y035171D01*
X047964D01*
X048476Y035512D02*
Y035D01*
X04822D01*
X048135Y035085D01*
Y035256D01*
X04822Y035341D01*
X048476D01*
X048988Y035426D02*
X048902Y035512D01*
X048732D01*
X048647Y035426D01*
Y035085D01*
X048732Y035D01*
X048902D01*
X048988Y035085D01*
X049414Y035D02*
X049243D01*
X049158Y035085D01*
Y035256D01*
X049243Y035341D01*
X049414D01*
X049499Y035256D01*
Y035171D01*
X049158D01*
X04967Y035D02*
X04984D01*
X049755D01*
Y035512D01*
X04967D01*
X050096Y035D02*
X050267D01*
X050182D01*
Y035512D01*
X050096D01*
D52*
X046074Y03656D02*
X051026D01*
Y038812D01*
X046074D02*
X051026D01*
X046074Y03656D02*
Y038812D01*
X046124Y04461D02*
X051076D01*
Y046862D01*
X046124D02*
X051076D01*
X046124Y04461D02*
Y046862D01*
D53*
X0284Y01992D02*
X0324D01*
Y017086D02*
Y01992D01*
Y020314D01*
X0284D02*
X0324D01*
X0284Y01992D02*
Y020314D01*
Y017086D02*
Y01992D01*
Y017086D02*
X0324D01*
X0395Y01992D02*
X0435D01*
Y017086D02*
Y01992D01*
Y020314D01*
X0395D02*
X0435D01*
X0395Y01992D02*
Y020314D01*
Y017086D02*
Y01992D01*
Y017086D02*
X0435D01*
X033875Y01992D02*
X037875D01*
Y017086D02*
Y01992D01*
Y020314D01*
X033875D02*
X037875D01*
X033875Y01992D02*
Y020314D01*
Y017086D02*
Y01992D01*
Y017086D02*
X037875D01*
X0363Y0487D02*
X0453D01*
Y0277D02*
Y0487D01*
X0363Y0277D02*
X0453D01*
X0363D02*
Y0487D01*
X034162Y042166D02*
Y042442D01*
Y043032D02*
Y043308D01*
X034477D01*
X034162Y042166D02*
X034477D01*
X034162Y043879D02*
Y044155D01*
Y044745D02*
Y045021D01*
X034477D01*
X034162Y043879D02*
X034477D01*
X034162Y045592D02*
Y045868D01*
Y046458D02*
Y046734D01*
X034477D01*
X034162Y045592D02*
X034477D01*
X034162Y047329D02*
Y047605D01*
Y048195D02*
Y048471D01*
X034477D01*
X034162Y047329D02*
X034477D01*
X040085Y025138D02*
X040715D01*
X040085Y023862D02*
X040715D01*
M02*
