G04 Layer_Physical_Order=1*
G04 Layer_Color=255*
%FSTAX24Y24*%
%MOIN*%
G70*
G01*
G75*
%ADD10R,0.0244X0.0236*%
%ADD11R,0.0307X0.0386*%
%ADD12R,0.0402X0.0409*%
%ADD13R,0.0409X0.0402*%
%ADD14R,0.0453X0.0551*%
%ADD15R,0.0187X0.0197*%
%ADD16R,0.0256X0.0354*%
%ADD17R,0.0236X0.0295*%
%ADD18R,0.0378X0.0547*%
%ADD19R,0.0382X0.0579*%
%ADD20R,0.0579X0.0382*%
%ADD21R,0.0402X0.1071*%
%ADD22R,0.0945X0.1339*%
%ADD23R,0.0394X0.0236*%
%ADD24R,0.0551X0.0394*%
G04:AMPARAMS|DCode=25|XSize=48.8mil|YSize=21.7mil|CornerRadius=2.7mil|HoleSize=0mil|Usage=FLASHONLY|Rotation=0.000|XOffset=0mil|YOffset=0mil|HoleType=Round|Shape=RoundedRectangle|*
%AMROUNDEDRECTD25*
21,1,0.0488,0.0162,0,0,0.0*
21,1,0.0434,0.0217,0,0,0.0*
1,1,0.0054,0.0217,-0.0081*
1,1,0.0054,-0.0217,-0.0081*
1,1,0.0054,-0.0217,0.0081*
1,1,0.0054,0.0217,0.0081*
%
%ADD25ROUNDEDRECTD25*%
%ADD26O,0.0630X0.0886*%
%ADD27C,0.0197*%
%ADD28C,0.0157*%
%ADD29C,0.0800*%
%ADD30C,0.0500*%
%ADD31C,0.0400*%
%ADD32C,0.0200*%
%ADD33C,0.0118*%
%ADD34C,0.0300*%
%ADD35C,0.0630*%
%ADD36R,0.0630X0.0630*%
%ADD37C,0.0669*%
%ADD38R,0.0650X0.0650*%
%ADD39R,0.0650X0.0650*%
%ADD40C,0.0650*%
%ADD41O,0.0750X0.0700*%
%ADD42R,0.0700X0.0700*%
%ADD43C,0.0600*%
%ADD44R,0.0600X0.0600*%
%ADD45C,0.0236*%
%ADD46C,0.1575*%
%ADD47C,0.0400*%
G36*
X052969Y014681D02*
X025631D01*
Y050869D01*
X052969D01*
Y014681D01*
D02*
G37*
%LPC*%
G36*
X0438Y032107D02*
X043695Y032093D01*
X043596Y032053D01*
X043512Y031988D01*
X043447Y031904D01*
X043407Y031805D01*
X043393Y0317D01*
X043407Y031595D01*
X043447Y031496D01*
X043512Y031412D01*
X043596Y031347D01*
X043695Y031307D01*
X0438Y031293D01*
X043905Y031307D01*
X044004Y031347D01*
X044088Y031412D01*
X044153Y031496D01*
X044193Y031595D01*
X044207Y0317D01*
X044193Y031805D01*
X044153Y031904D01*
X044088Y031988D01*
X044004Y032053D01*
X043905Y032093D01*
X0438Y032107D01*
D02*
G37*
G36*
X0378D02*
X037695Y032093D01*
X037596Y032053D01*
X037512Y031988D01*
X037447Y031904D01*
X037407Y031805D01*
X037393Y0317D01*
X037407Y031595D01*
X037447Y031496D01*
X037512Y031412D01*
X037596Y031347D01*
X037695Y031307D01*
X0378Y031293D01*
X037905Y031307D01*
X038004Y031347D01*
X038088Y031412D01*
X038153Y031496D01*
X038193Y031595D01*
X038207Y0317D01*
X038193Y031805D01*
X038153Y031904D01*
X038088Y031988D01*
X038004Y032053D01*
X037905Y032093D01*
X0378Y032107D01*
D02*
G37*
G36*
X0438Y031107D02*
X043695Y031093D01*
X043596Y031053D01*
X043512Y030988D01*
X043447Y030904D01*
X043407Y030805D01*
X043393Y0307D01*
X043407Y030595D01*
X043447Y030496D01*
X043512Y030412D01*
X043596Y030347D01*
X043695Y030307D01*
X0438Y030293D01*
X043905Y030307D01*
X044004Y030347D01*
X044088Y030412D01*
X044153Y030496D01*
X044193Y030595D01*
X044207Y0307D01*
X044193Y030805D01*
X044153Y030904D01*
X044088Y030988D01*
X044004Y031053D01*
X043905Y031093D01*
X0438Y031107D01*
D02*
G37*
G36*
X03012Y03206D02*
X029866D01*
Y03186D01*
X029882Y031822D01*
X02992Y031806D01*
X03012D01*
Y03206D01*
D02*
G37*
G36*
X0438Y033107D02*
X043695Y033093D01*
X043596Y033053D01*
X043512Y032988D01*
X043447Y032904D01*
X043407Y032805D01*
X043393Y0327D01*
X043407Y032595D01*
X043447Y032496D01*
X043512Y032412D01*
X043596Y032347D01*
X043695Y032307D01*
X0438Y032293D01*
X043905Y032307D01*
X044004Y032347D01*
X044088Y032412D01*
X044153Y032496D01*
X044193Y032595D01*
X044207Y0327D01*
X044193Y032805D01*
X044153Y032904D01*
X044088Y032988D01*
X044004Y033053D01*
X043905Y033093D01*
X0438Y033107D01*
D02*
G37*
G36*
X03012Y032614D02*
X02992D01*
X029882Y032598D01*
X029866Y03256D01*
Y03236D01*
X03012D01*
Y032614D01*
D02*
G37*
G36*
X030674Y03206D02*
X03042D01*
Y031806D01*
X03062D01*
X030658Y031822D01*
X030674Y03186D01*
Y03206D01*
D02*
G37*
G36*
X0378Y033107D02*
X037695Y033093D01*
X037596Y033053D01*
X037512Y032988D01*
X037447Y032904D01*
X037407Y032805D01*
X037393Y0327D01*
X037407Y032595D01*
X037447Y032496D01*
X037512Y032412D01*
X037596Y032347D01*
X037695Y032307D01*
X0378Y032293D01*
X037905Y032307D01*
X038004Y032347D01*
X038088Y032412D01*
X038153Y032496D01*
X038193Y032595D01*
X038207Y0327D01*
X038193Y032805D01*
X038153Y032904D01*
X038088Y032988D01*
X038004Y033053D01*
X037905Y033093D01*
X0378Y033107D01*
D02*
G37*
G36*
X03765Y02955D02*
X037449D01*
X03753Y02943D01*
X03765Y029349D01*
Y02955D01*
D02*
G37*
G36*
X038151D02*
X03795D01*
Y029349D01*
X03807Y02943D01*
X038151Y02955D01*
D02*
G37*
G36*
X034615Y029022D02*
Y02895D01*
X034647D01*
Y028977D01*
X034631Y029015D01*
X034615Y029022D01*
D02*
G37*
G36*
X0438Y030107D02*
X043695Y030093D01*
X043596Y030053D01*
X043512Y029988D01*
X043447Y029904D01*
X043407Y029805D01*
X043393Y0297D01*
X043407Y029595D01*
X043447Y029496D01*
X043512Y029412D01*
X043596Y029347D01*
X043695Y029307D01*
X0438Y029293D01*
X043905Y029307D01*
X044004Y029347D01*
X044088Y029412D01*
X044153Y029496D01*
X044193Y029595D01*
X044207Y0297D01*
X044193Y029805D01*
X044153Y029904D01*
X044088Y029988D01*
X044004Y030053D01*
X043905Y030093D01*
X0438Y030107D01*
D02*
G37*
G36*
X03765Y030051D02*
X03753Y02997D01*
X037449Y02985D01*
X03765D01*
Y030051D01*
D02*
G37*
G36*
X03795D02*
Y02985D01*
X038151D01*
X03807Y02997D01*
X03795Y030051D01*
D02*
G37*
G36*
X0389Y029873D02*
X038707D01*
Y029832D01*
X038722Y029794D01*
X038761Y029778D01*
X0389D01*
Y029873D01*
D02*
G37*
G36*
X039393D02*
X0392D01*
Y029778D01*
X039339D01*
X039378Y029794D01*
X039393Y029832D01*
Y029873D01*
D02*
G37*
G36*
X02985Y036893D02*
Y036577D01*
X030068D01*
X030044Y036697D01*
X029963Y036818D01*
X02985Y036893D01*
D02*
G37*
G36*
X031961Y036921D02*
X031848Y036845D01*
X031767Y036724D01*
X031743Y036604D01*
X031961D01*
Y036921D01*
D02*
G37*
G36*
X0438Y037107D02*
X043695Y037093D01*
X043596Y037053D01*
X043512Y036988D01*
X043447Y036904D01*
X043407Y036805D01*
X043393Y0367D01*
X043407Y036595D01*
X043447Y036496D01*
X043512Y036412D01*
X043596Y036347D01*
X043695Y036307D01*
X0438Y036293D01*
X043905Y036307D01*
X044004Y036347D01*
X044088Y036412D01*
X044153Y036496D01*
X044193Y036595D01*
X044207Y0367D01*
X044193Y036805D01*
X044153Y036904D01*
X044088Y036988D01*
X044004Y037053D01*
X043905Y037093D01*
X0438Y037107D01*
D02*
G37*
G36*
X02955Y036893D02*
X029437Y036818D01*
X029356Y036697D01*
X029332Y036577D01*
X02955D01*
Y036893D01*
D02*
G37*
G36*
X047419Y0373D02*
X0472D01*
Y037081D01*
X047365D01*
X047403Y037097D01*
X047419Y037135D01*
Y0373D01*
D02*
G37*
G36*
X0438Y038107D02*
X043695Y038093D01*
X043596Y038053D01*
X043512Y037988D01*
X043447Y037904D01*
X043407Y037805D01*
X043393Y0377D01*
X043407Y037595D01*
X043447Y037496D01*
X043512Y037412D01*
X043596Y037347D01*
X043695Y037307D01*
X0438Y037293D01*
X043905Y037307D01*
X044004Y037347D01*
X044088Y037412D01*
X044153Y037496D01*
X044193Y037595D01*
X044207Y0377D01*
X044193Y037805D01*
X044153Y037904D01*
X044088Y037988D01*
X044004Y038053D01*
X043905Y038093D01*
X0438Y038107D01*
D02*
G37*
G36*
X032261Y036921D02*
Y036604D01*
X032478D01*
X032454Y036724D01*
X032374Y036845D01*
X032261Y036921D01*
D02*
G37*
G36*
X0469Y0373D02*
X046681D01*
Y037135D01*
X046697Y037097D01*
X046735Y037081D01*
X0469D01*
Y0373D01*
D02*
G37*
G36*
X032478Y036304D02*
X032261D01*
Y035987D01*
X032374Y036063D01*
X032454Y036184D01*
X032478Y036304D01*
D02*
G37*
G36*
X0378Y035107D02*
X037695Y035093D01*
X037596Y035053D01*
X037512Y034988D01*
X037447Y034904D01*
X037418Y034832D01*
X0363D01*
X0363Y034832D01*
X03623Y034818D01*
X036171Y034779D01*
X036171Y034779D01*
X035571Y034179D01*
X035532Y03412D01*
X035518Y03405D01*
X035518Y03405D01*
Y026775D01*
X034971Y026229D01*
X034932Y02617D01*
X034918Y0261D01*
X034918Y0261D01*
Y024696D01*
X034897Y024687D01*
X034872Y024627D01*
Y024273D01*
X034897Y024213D01*
X034918Y024204D01*
Y023896D01*
X034897Y023887D01*
X034872Y023827D01*
Y023473D01*
X034897Y023413D01*
X034957Y023388D01*
X035213D01*
X035274Y023413D01*
X035299Y023473D01*
Y023827D01*
X035282Y023867D01*
Y024233D01*
X035299Y024273D01*
Y024627D01*
X035282Y024667D01*
Y026025D01*
X035829Y026571D01*
X035829Y026571D01*
X035868Y02663D01*
X035882Y0267D01*
X035882Y0267D01*
Y033975D01*
X036375Y034468D01*
X037469D01*
X037512Y034412D01*
X037596Y034347D01*
X037695Y034307D01*
X0378Y034293D01*
X037905Y034307D01*
X038004Y034347D01*
X038088Y034412D01*
X038153Y034496D01*
X038193Y034595D01*
X038207Y0347D01*
X038193Y034805D01*
X038153Y034904D01*
X038088Y034988D01*
X038004Y035053D01*
X037905Y035093D01*
X0378Y035107D01*
D02*
G37*
G36*
X0438Y036107D02*
X043695Y036093D01*
X043596Y036053D01*
X043512Y035988D01*
X043447Y035904D01*
X043407Y035805D01*
X043393Y0357D01*
X043407Y035595D01*
X043447Y035496D01*
X043512Y035412D01*
X043596Y035347D01*
X043695Y035307D01*
X0438Y035293D01*
X043905Y035307D01*
X044004Y035347D01*
X044088Y035412D01*
X044153Y035496D01*
X044193Y035595D01*
X044207Y0357D01*
X044193Y035805D01*
X044153Y035904D01*
X044088Y035988D01*
X044004Y036053D01*
X043905Y036093D01*
X0438Y036107D01*
D02*
G37*
G36*
X03062Y032614D02*
X03042D01*
Y03236D01*
X030674D01*
Y03256D01*
X030658Y032598D01*
X03062Y032614D01*
D02*
G37*
G36*
X0378Y034107D02*
X037695Y034093D01*
X037596Y034053D01*
X037512Y033988D01*
X037447Y033904D01*
X037407Y033805D01*
X037393Y0337D01*
X037407Y033595D01*
X037447Y033496D01*
X037512Y033412D01*
X037596Y033347D01*
X037695Y033307D01*
X0378Y033293D01*
X037905Y033307D01*
X038004Y033347D01*
X038088Y033412D01*
X038153Y033496D01*
X038193Y033595D01*
X038207Y0337D01*
X038193Y033805D01*
X038153Y033904D01*
X038088Y033988D01*
X038004Y034053D01*
X037905Y034093D01*
X0378Y034107D01*
D02*
G37*
G36*
X030068Y036277D02*
X02985D01*
Y03596D01*
X029963Y036036D01*
X030044Y036156D01*
X030068Y036277D01*
D02*
G37*
G36*
X031961Y036304D02*
X031743D01*
X031767Y036184D01*
X031848Y036063D01*
X031961Y035987D01*
Y036304D01*
D02*
G37*
G36*
X0378Y036107D02*
X037695Y036093D01*
X037596Y036053D01*
X037512Y035988D01*
X037447Y035904D01*
X037438Y035882D01*
X0359D01*
X0359Y035882D01*
X03583Y035868D01*
X035771Y035829D01*
X035771Y035829D01*
X034921Y034979D01*
X034882Y03492D01*
X034868Y03485D01*
X034868Y03485D01*
Y029046D01*
X034847Y029037D01*
X034822Y028977D01*
Y028623D01*
X034847Y028563D01*
X034868Y028554D01*
Y028246D01*
X034847Y028237D01*
X034822Y028177D01*
Y027823D01*
X034847Y027763D01*
X034907Y027738D01*
X035163D01*
X035224Y027763D01*
X035249Y027823D01*
Y028177D01*
X035232Y028217D01*
Y028583D01*
X035249Y028623D01*
Y028977D01*
X035232Y029017D01*
Y034775D01*
X035975Y035518D01*
X037438D01*
X037447Y035496D01*
X037512Y035412D01*
X037596Y035347D01*
X037695Y035307D01*
X0378Y035293D01*
X037905Y035307D01*
X038004Y035347D01*
X038088Y035412D01*
X038153Y035496D01*
X038193Y035595D01*
X038207Y0357D01*
X038193Y035805D01*
X038153Y035904D01*
X038088Y035988D01*
X038004Y036053D01*
X037905Y036093D01*
X0378Y036107D01*
D02*
G37*
G36*
X02955Y036277D02*
X029332D01*
X029356Y036156D01*
X029437Y036036D01*
X02955Y03596D01*
Y036277D01*
D02*
G37*
G36*
X03396Y024274D02*
X033872D01*
Y024252D01*
X033919D01*
X033958Y024268D01*
X03396Y024274D01*
D02*
G37*
G36*
X035237Y01855D02*
X035025D01*
Y018338D01*
X035025Y018338D01*
X035152Y018423D01*
X035237Y01855D01*
X035237Y01855D01*
D02*
G37*
G36*
X034697Y0243D02*
X034665D01*
Y024228D01*
X034681Y024235D01*
X034697Y024273D01*
Y0243D01*
D02*
G37*
G36*
X033572Y024274D02*
X033485D01*
X033487Y024268D01*
X033526Y024252D01*
X033572D01*
Y024274D01*
D02*
G37*
G36*
X033919Y024596D02*
X033872D01*
Y024574D01*
X03396D01*
X033958Y02458D01*
X033919Y024596D01*
D02*
G37*
G36*
X04035Y01855D02*
X040138D01*
X040138Y01855D01*
X040223Y018423D01*
X04035Y018338D01*
X04035Y018338D01*
Y01855D01*
D02*
G37*
G36*
X029762D02*
X02955D01*
Y018338D01*
X02955Y018338D01*
X029677Y018423D01*
X029762Y01855D01*
X029762Y01855D01*
D02*
G37*
G36*
X033572Y024596D02*
X033526D01*
X033487Y02458D01*
X033485Y024574D01*
X033572D01*
Y024596D01*
D02*
G37*
G36*
X034365Y0243D02*
X034332D01*
Y024273D01*
X034348Y024235D01*
X034365Y024228D01*
Y0243D01*
D02*
G37*
G36*
X02925Y019062D02*
X02925Y019062D01*
X029123Y018977D01*
X029038Y01885D01*
X029038Y01885D01*
X02925D01*
Y019062D01*
D02*
G37*
G36*
X035025D02*
Y01885D01*
X035237D01*
X035237Y01885D01*
X035152Y018977D01*
X035025Y019062D01*
X035025Y019062D01*
D02*
G37*
G36*
X034725D02*
X034725Y019062D01*
X034598Y018977D01*
X034513Y01885D01*
X034513Y01885D01*
X034725D01*
Y019062D01*
D02*
G37*
G36*
X04035D02*
X04035Y019062D01*
X040223Y018977D01*
X040138Y01885D01*
X040138Y01885D01*
X04035D01*
Y019062D01*
D02*
G37*
G36*
X040862Y01855D02*
X04065D01*
Y018338D01*
X04065Y018338D01*
X040777Y018423D01*
X040862Y01855D01*
X040862Y01855D01*
D02*
G37*
G36*
X034643Y023912D02*
X034387D01*
X034326Y023887D01*
X034314Y023857D01*
X033974D01*
X033919Y023879D01*
X033526D01*
X033465Y023854D01*
X03344Y023794D01*
Y023558D01*
X033465Y023498D01*
X033526Y023473D01*
X033919D01*
X033974Y023495D01*
X034301D01*
Y023473D01*
X034326Y023413D01*
X034387Y023388D01*
X034643D01*
X034703Y023413D01*
X034728Y023473D01*
Y023827D01*
X034703Y023887D01*
X034643Y023912D01*
D02*
G37*
G36*
X04065Y019062D02*
Y01885D01*
X040862D01*
X040862Y01885D01*
X040777Y018977D01*
X04065Y019062D01*
X04065Y019062D01*
D02*
G37*
G36*
X02955D02*
Y01885D01*
X029762D01*
X029762Y01885D01*
X029677Y018977D01*
X02955Y019062D01*
X02955Y019062D01*
D02*
G37*
G36*
X03396Y028624D02*
X033872D01*
Y028602D01*
X033919D01*
X033958Y028618D01*
X03396Y028624D01*
D02*
G37*
G36*
X03765Y029051D02*
X03753Y02897D01*
X037449Y02885D01*
X03765D01*
Y029051D01*
D02*
G37*
G36*
X034647Y02865D02*
X034615D01*
Y028578D01*
X034631Y028585D01*
X034647Y028623D01*
Y02865D01*
D02*
G37*
G36*
X033572Y028624D02*
X033485D01*
X033487Y028618D01*
X033526Y028602D01*
X033572D01*
Y028624D01*
D02*
G37*
G36*
X033919Y028946D02*
X033872D01*
Y028924D01*
X03396D01*
X033958Y02893D01*
X033919Y028946D01*
D02*
G37*
G36*
X034315Y029022D02*
X034298Y029015D01*
X034282Y028977D01*
Y02895D01*
X034315D01*
Y029022D01*
D02*
G37*
G36*
X03795Y029051D02*
Y02885D01*
X038151D01*
X03807Y02897D01*
X03795Y029051D01*
D02*
G37*
G36*
X033572Y028946D02*
X033526D01*
X033487Y02893D01*
X033485Y028924D01*
X033572D01*
Y028946D01*
D02*
G37*
G36*
X034315Y02865D02*
X034282D01*
Y028623D01*
X034298Y028585D01*
X034315Y028578D01*
Y02865D01*
D02*
G37*
G36*
X034725Y01855D02*
X034513D01*
X034513Y01855D01*
X034598Y018423D01*
X034725Y018338D01*
X034725Y018338D01*
Y01855D01*
D02*
G37*
G36*
X02925D02*
X029038D01*
X029038Y01855D01*
X029123Y018423D01*
X02925Y018338D01*
X02925Y018338D01*
Y01855D01*
D02*
G37*
G36*
X034365Y024672D02*
X034348Y024665D01*
X034332Y024627D01*
Y0246D01*
X034365D01*
Y024672D01*
D02*
G37*
G36*
X034665Y024672D02*
Y0246D01*
X034697D01*
Y024627D01*
X034681Y024665D01*
X034665Y024672D01*
D02*
G37*
G36*
X03765Y02855D02*
X037449D01*
X03753Y02843D01*
X03765Y028349D01*
Y02855D01*
D02*
G37*
G36*
X038151D02*
X03795D01*
Y028349D01*
X03807Y02843D01*
X038151Y02855D01*
D02*
G37*
G36*
X034593Y028262D02*
X034337D01*
X034276Y028237D01*
X034264Y028208D01*
X03397D01*
X033919Y028229D01*
X033526D01*
X033465Y028204D01*
X03344Y028144D01*
Y027908D01*
X033465Y027848D01*
X033526Y027823D01*
X033919D01*
X03397Y027844D01*
X034251D01*
Y027823D01*
X034276Y027763D01*
X034337Y027738D01*
X034593D01*
X034653Y027763D01*
X034678Y027823D01*
Y028177D01*
X034653Y028237D01*
X034593Y028262D01*
D02*
G37*
G36*
X0438Y029107D02*
X043695Y029093D01*
X043596Y029053D01*
X043512Y028988D01*
X043447Y028904D01*
X043407Y028805D01*
X043393Y0287D01*
X043407Y028595D01*
X043447Y028496D01*
X043512Y028412D01*
X043596Y028347D01*
X043695Y028307D01*
X0438Y028293D01*
X043905Y028307D01*
X044004Y028347D01*
X044088Y028412D01*
X044153Y028496D01*
X044193Y028595D01*
X044207Y0287D01*
X044193Y028805D01*
X044153Y028904D01*
X044088Y028988D01*
X044004Y029053D01*
X043905Y029093D01*
X0438Y029107D01*
D02*
G37*
G36*
X0469Y037819D02*
X046735D01*
X046697Y037803D01*
X046681Y037765D01*
Y0376D01*
X0469D01*
Y037819D01*
D02*
G37*
G36*
X03518Y045639D02*
X035001D01*
Y045538D01*
X035126D01*
X035165Y045554D01*
X03518Y045592D01*
Y045639D01*
D02*
G37*
G36*
X04895Y045839D02*
X048837Y045763D01*
X048761Y04565D01*
X04895D01*
Y045839D01*
D02*
G37*
G36*
X033354Y045397D02*
X03335D01*
Y0453D01*
X033408D01*
Y045343D01*
X033392Y045381D01*
X033354Y045397D01*
D02*
G37*
G36*
X034701Y045639D02*
X034521D01*
Y045592D01*
X034537Y045554D01*
X034575Y045538D01*
X034701D01*
Y045639D01*
D02*
G37*
G36*
X04365Y04655D02*
X043449D01*
X04353Y04643D01*
X04365Y046349D01*
Y04655D01*
D02*
G37*
G36*
X044151D02*
X04395D01*
Y046349D01*
X04407Y04643D01*
X044151Y04655D01*
D02*
G37*
G36*
X04925Y045839D02*
Y04565D01*
X049439D01*
X049363Y045763D01*
X04925Y045839D01*
D02*
G37*
G36*
X0378Y047107D02*
X037695Y047093D01*
X037596Y047053D01*
X037512Y046988D01*
X037447Y046904D01*
X037407Y046805D01*
X037393Y0467D01*
X037407Y046595D01*
X037447Y046496D01*
X037512Y046412D01*
X037596Y046347D01*
X037695Y046307D01*
X0378Y046293D01*
X037905Y046307D01*
X038004Y046347D01*
X038088Y046412D01*
X038153Y046496D01*
X038193Y046595D01*
X038207Y0467D01*
X038193Y046805D01*
X038153Y046904D01*
X038088Y046988D01*
X038004Y047053D01*
X037905Y047093D01*
X0378Y047107D01*
D02*
G37*
G36*
X03305Y045397D02*
X033046D01*
X033008Y045381D01*
X032992Y045343D01*
Y0453D01*
X03305D01*
Y045397D01*
D02*
G37*
G36*
Y045D02*
X032992D01*
Y044957D01*
X033008Y044919D01*
X033046Y044903D01*
X03305D01*
Y045D01*
D02*
G37*
G36*
X033408D02*
X03335D01*
Y044903D01*
X033354D01*
X033392Y044919D01*
X033408Y044957D01*
Y045D01*
D02*
G37*
G36*
X0438Y045107D02*
X043695Y045093D01*
X043596Y045053D01*
X043512Y044988D01*
X043447Y044904D01*
X043407Y044805D01*
X043393Y0447D01*
X043407Y044595D01*
X043447Y044496D01*
X043512Y044412D01*
X043596Y044347D01*
X043695Y044307D01*
X0438Y044293D01*
X043905Y044307D01*
X044004Y044347D01*
X044088Y044412D01*
X044153Y044496D01*
X044193Y044595D01*
X044207Y0447D01*
X044193Y044805D01*
X044153Y044904D01*
X044088Y044988D01*
X044004Y045053D01*
X043905Y045093D01*
X0438Y045107D01*
D02*
G37*
G36*
X0498Y050183D02*
X0424D01*
X042275Y050166D01*
X042159Y050118D01*
X042059Y050041D01*
X040809Y048791D01*
X040732Y048691D01*
X040684Y048575D01*
X040667Y04845D01*
X040684Y048325D01*
X040694Y0483D01*
X040684Y048275D01*
X040667Y04815D01*
Y047727D01*
X040672Y047688D01*
X040667Y04765D01*
Y031035D01*
X038026D01*
X038004Y031053D01*
X037905Y031093D01*
X0378Y031107D01*
X037695Y031093D01*
X037596Y031053D01*
X037512Y030988D01*
X037447Y030904D01*
X037407Y030805D01*
X037393Y0307D01*
X037407Y030595D01*
X037447Y030496D01*
X037512Y030412D01*
X037596Y030347D01*
X037695Y030307D01*
X0378Y030293D01*
X037905Y030307D01*
X038004Y030347D01*
X038026Y030365D01*
X038752D01*
X038761Y030268D01*
X038722Y030252D01*
X038707Y030214D01*
Y030173D01*
X03905D01*
X039393D01*
Y030214D01*
X039378Y030252D01*
X039339Y030268D01*
X039348Y030365D01*
X040804D01*
X040809Y030359D01*
X040909Y030282D01*
X041025Y030234D01*
X04115Y030217D01*
X041275Y030234D01*
X041391Y030282D01*
X041491Y030359D01*
X041568Y030459D01*
X041616Y030575D01*
X041633Y0307D01*
Y047392D01*
X042431D01*
X042468Y047292D01*
X042457Y047264D01*
Y047223D01*
X0428D01*
X043143D01*
Y047264D01*
X043132Y047292D01*
X043169Y047392D01*
X043539D01*
X043596Y047347D01*
X043695Y047307D01*
X0438Y047293D01*
X043905Y047307D01*
X044004Y047347D01*
X044088Y047412D01*
X044153Y047496D01*
X044193Y047595D01*
X044207Y0477D01*
X044193Y047805D01*
X044153Y047904D01*
X044088Y047988D01*
X044004Y048053D01*
X043905Y048093D01*
X0438Y048107D01*
X043695Y048093D01*
X043619Y048062D01*
X041633D01*
Y04815D01*
X041621Y048238D01*
X0426Y049217D01*
X0496D01*
X051067Y04775D01*
Y044633D01*
X050335D01*
Y044815D01*
X05036Y04484D01*
X05036Y04484D01*
X05041Y04489D01*
X050435Y04495D01*
Y045293D01*
X050471Y045346D01*
X050501Y0455D01*
X050471Y045654D01*
X050435Y045707D01*
X050435Y04655D01*
X05041Y04661D01*
X049535Y047485D01*
X049535Y0483D01*
X04951Y04836D01*
X04945Y048385D01*
X049379D01*
Y048401D01*
X049354Y048461D01*
X049294Y048486D01*
X048885D01*
X048824Y048461D01*
X048776Y048461D01*
X048715Y048486D01*
X048306D01*
X048246Y048461D01*
X048221Y048401D01*
Y048382D01*
X04745D01*
X04738Y048368D01*
X047321Y048329D01*
X047321Y048329D01*
X046921Y047929D01*
X046882Y04787D01*
X046868Y0478D01*
X046868Y0478D01*
Y0459D01*
X046785D01*
X046725Y045875D01*
X0467Y045815D01*
Y045185D01*
X046725Y045125D01*
X046785Y0451D01*
X046868D01*
Y043925D01*
X045825Y042882D01*
X044162D01*
X044153Y042904D01*
X044088Y042988D01*
X044004Y043053D01*
X043905Y043093D01*
X0438Y043107D01*
X043695Y043093D01*
X043596Y043053D01*
X043512Y042988D01*
X043447Y042904D01*
X043407Y042805D01*
X043393Y0427D01*
X043407Y042595D01*
X043447Y042496D01*
X043512Y042412D01*
X043596Y042347D01*
X043695Y042307D01*
X0438Y042293D01*
X043905Y042307D01*
X044004Y042347D01*
X044088Y042412D01*
X044153Y042496D01*
X044162Y042518D01*
X0459D01*
X0459Y042518D01*
X04597Y042532D01*
X046029Y042571D01*
X047179Y043721D01*
X047179Y043721D01*
X047218Y04378D01*
X047232Y04385D01*
X047232Y04385D01*
Y0451D01*
X047415D01*
X047475Y045125D01*
X0475Y045185D01*
Y045815D01*
X047475Y045875D01*
X047415Y0459D01*
X047232D01*
Y047725D01*
X047525Y048018D01*
X048221D01*
Y047999D01*
X048246Y047939D01*
X048306Y047914D01*
X048715D01*
X048813Y047846D01*
X048813Y047654D01*
X048716Y047586D01*
X048713Y047586D01*
X048306D01*
X048246Y047561D01*
X048221Y047501D01*
Y047366D01*
X047972Y047117D01*
X047933Y047059D01*
X047919Y046989D01*
Y045853D01*
X047816Y045784D01*
X047729Y045654D01*
X047699Y0455D01*
X047729Y045346D01*
X047816Y045216D01*
X047919Y045147D01*
Y043575D01*
X046225Y041881D01*
X044162D01*
X044153Y041904D01*
X044088Y041988D01*
X044004Y042053D01*
X043905Y042093D01*
X0438Y042107D01*
X043695Y042093D01*
X043596Y042053D01*
X043512Y041988D01*
X043447Y041904D01*
X043407Y041805D01*
X043393Y0417D01*
X043407Y041595D01*
X043447Y041496D01*
X043512Y041412D01*
X043596Y041347D01*
X043695Y041307D01*
X0438Y041293D01*
X043905Y041307D01*
X044004Y041347D01*
X044088Y041412D01*
X044153Y041496D01*
X044162Y041519D01*
X0463D01*
X046369Y041533D01*
X046428Y041572D01*
X048228Y043372D01*
X048267Y043431D01*
X048281Y0435D01*
Y045147D01*
X048384Y045216D01*
X048471Y045346D01*
X048501Y0455D01*
X048471Y045654D01*
X048384Y045784D01*
X048281Y045853D01*
Y046915D01*
X04838Y047014D01*
X048715D01*
X048776Y047039D01*
X048824Y047039D01*
X048885Y047014D01*
X048965D01*
X049615Y046365D01*
Y044532D01*
X049553Y044449D01*
X049515Y044449D01*
X049512D01*
Y044105D01*
Y043762D01*
X049553D01*
X049591Y043778D01*
X049607Y043816D01*
Y043997D01*
X049707Y04405D01*
X04974Y044027D01*
Y043816D01*
X049765Y043756D01*
X049787Y043747D01*
X04979Y04374D01*
X04985Y043715D01*
X05025D01*
X05031Y04374D01*
X050335Y0438D01*
Y044167D01*
X051067D01*
Y039433D01*
X050335D01*
X050335Y04115D01*
X05031Y04121D01*
X05025Y041235D01*
X04965D01*
X04959Y04121D01*
X049565Y04115D01*
Y041143D01*
X049555Y041136D01*
X049145D01*
X049085Y041111D01*
X04906Y041051D01*
Y041032D01*
X0482D01*
X04813Y041018D01*
X048071Y040979D01*
X048071Y040979D01*
X047171Y040079D01*
X047132Y04002D01*
X047118Y03995D01*
X047118Y03995D01*
Y0382D01*
X047118Y0382D01*
X047132Y03813D01*
X047171Y038071D01*
X047323Y037919D01*
X047282Y037819D01*
X0472D01*
Y0376D01*
X047419D01*
Y037682D01*
X047519Y037723D01*
X047672Y03757D01*
X047649Y03745D01*
X047679Y037296D01*
X047766Y037166D01*
X047896Y037079D01*
X047909Y037077D01*
Y035408D01*
X047342Y034841D01*
X044179D01*
X044153Y034904D01*
X044088Y034988D01*
X044004Y035053D01*
X043905Y035093D01*
X0438Y035107D01*
X043695Y035093D01*
X043596Y035053D01*
X043512Y034988D01*
X043447Y034904D01*
X043407Y034805D01*
X043393Y0347D01*
X043407Y034595D01*
X043447Y034496D01*
X043512Y034412D01*
X043596Y034347D01*
X043695Y034307D01*
X0438Y034293D01*
X043905Y034307D01*
X044004Y034347D01*
X044088Y034412D01*
X044153Y034496D01*
X044179Y03456D01*
X0474D01*
X047454Y03457D01*
X047499Y034601D01*
X048149Y035251D01*
X04818Y035296D01*
X04819Y03535D01*
Y037077D01*
X048204Y037079D01*
X048334Y037166D01*
X048421Y037296D01*
X048451Y03745D01*
X048439Y037512D01*
X048531Y037561D01*
X04865Y037442D01*
X048679Y037296D01*
X048759Y037176D01*
Y034708D01*
X047892Y03384D01*
X044179D01*
X044153Y033904D01*
X044088Y033988D01*
X044004Y034053D01*
X043905Y034093D01*
X0438Y034107D01*
X043695Y034093D01*
X043596Y034053D01*
X043512Y033988D01*
X043447Y033904D01*
X043407Y033805D01*
X043393Y0337D01*
X043407Y033595D01*
X043447Y033496D01*
X043512Y033412D01*
X043596Y033347D01*
X043695Y033307D01*
X0438Y033293D01*
X043905Y033307D01*
X044004Y033347D01*
X044088Y033412D01*
X044153Y033496D01*
X044179Y03356D01*
X04795D01*
X048004Y03357D01*
X048049Y033601D01*
X048999Y034551D01*
X04903Y034596D01*
X04904Y03465D01*
Y037041D01*
X04905Y037049D01*
X049204Y037079D01*
X049334Y037166D01*
X049421Y037296D01*
X049451Y03745D01*
X049421Y037604D01*
X049334Y037734D01*
X049204Y037821D01*
X04905Y037851D01*
X048896Y037821D01*
X048831Y037777D01*
X048132Y038475D01*
Y039625D01*
X048375Y039868D01*
X049071D01*
Y039849D01*
X049096Y039789D01*
X049156Y039764D01*
X049565D01*
Y039652D01*
X049528Y039628D01*
X049489D01*
Y0393D01*
Y038972D01*
X049528D01*
X049565Y038948D01*
Y03835D01*
Y0371D01*
X04959Y03704D01*
X04969Y03694D01*
X04975Y036915D01*
X0506Y036915D01*
X05066Y03694D01*
X050685Y037D01*
X050685Y0379D01*
X05066Y03796D01*
X05061Y03801D01*
X05055Y038035D01*
X050435Y038035D01*
X050335Y038135D01*
X050335Y0383D01*
Y038967D01*
X051067D01*
Y0224D01*
X051Y022333D01*
X045635D01*
X045635Y0261D01*
X04561Y02616D01*
X04521Y02656D01*
X04515Y026585D01*
X0437D01*
X04364Y02656D01*
X043615Y0265D01*
Y024397D01*
X043515Y024356D01*
X04351Y02436D01*
X04345Y024385D01*
X042636D01*
X042579Y024485D01*
X042585Y0245D01*
X042585Y0266D01*
X04256Y02666D01*
X0425Y026685D01*
X0407D01*
X040664Y02667D01*
X04059Y026654D01*
X04056Y02666D01*
X0405Y026685D01*
X04D01*
X03994Y02666D01*
X039915Y0266D01*
Y025986D01*
X0399Y02598D01*
Y0257D01*
X03985Y02565D01*
X03955D01*
X0395Y0257D01*
X039502Y025702D01*
Y025976D01*
X039485Y025983D01*
Y0261D01*
X03946Y02616D01*
X0394Y026185D01*
X03855D01*
X03849Y02616D01*
X03829Y02596D01*
X038265Y0259D01*
X038265Y02515D01*
X038271Y025135D01*
X038214Y025035D01*
X03785D01*
X03779Y02501D01*
X037765Y02495D01*
X037765Y0247D01*
X037773Y024679D01*
X03779Y02464D01*
X03799Y02444D01*
X03805Y024415D01*
X039028Y024415D01*
X039069Y024315D01*
X03859Y023835D01*
X038565Y023775D01*
Y021885D01*
X038365Y021685D01*
X032225Y021685D01*
X032165Y02166D01*
X03034Y019835D01*
X030315Y019775D01*
Y0185D01*
X030326Y018474D01*
X030333Y018447D01*
X030533Y018197D01*
X030538Y018194D01*
X03054Y01819D01*
X030566Y018179D01*
X030591Y018165D01*
X030595Y018167D01*
X0306Y018165D01*
X032D01*
X03206Y01819D01*
X03231Y01844D01*
X032335Y0185D01*
Y01954D01*
X033085Y02029D01*
X035515D01*
X03579Y020015D01*
X03579Y020015D01*
X035965Y01984D01*
Y018264D01*
X035536Y017835D01*
X028889D01*
X028735Y017989D01*
Y025785D01*
X033026D01*
Y025724D01*
X033051Y025664D01*
X033111Y025639D01*
X033505D01*
X033546Y025539D01*
X033377Y02537D01*
X032786D01*
Y025394D01*
X032761Y025454D01*
X032701Y025479D01*
X032299D01*
X032239Y025454D01*
X032214Y025394D01*
Y025381D01*
X0315D01*
X031431Y025367D01*
X031372Y025328D01*
X031225Y025181D01*
X030584D01*
X03057Y025216D01*
X030501Y025306D01*
X030411Y025375D01*
X030307Y025418D01*
X030195Y025432D01*
X030145D01*
X030033Y025418D01*
X029929Y025375D01*
X029839Y025306D01*
X029771Y025216D01*
X029727Y025112D01*
X029713Y025D01*
X029727Y024888D01*
X029771Y024784D01*
X029839Y024694D01*
X029929Y024625D01*
X030033Y024582D01*
X030145Y024568D01*
X030195D01*
X030307Y024582D01*
X030411Y024625D01*
X030501Y024694D01*
X03057Y024784D01*
X030584Y024819D01*
X0313D01*
X031369Y024833D01*
X031428Y024872D01*
X031575Y025019D01*
X032214D01*
Y024985D01*
X032239Y024924D01*
X032239Y024876D01*
X032214Y024815D01*
Y024406D01*
X032239Y024346D01*
X032299Y024321D01*
X032403D01*
X032456Y024221D01*
X032429Y024181D01*
X030605D01*
Y02435D01*
X03058Y02441D01*
X03052Y024435D01*
X02982D01*
X02976Y02441D01*
X029735Y02435D01*
Y02365D01*
X02976Y02359D01*
X02982Y023565D01*
X03052D01*
X03058Y02359D01*
X030605Y02365D01*
Y023819D01*
X032728D01*
X032797Y023833D01*
X032817Y023847D01*
X032974D01*
X033035Y023872D01*
X03306Y023932D01*
Y024168D01*
X033035Y024228D01*
X032974Y024253D01*
X032908D01*
Y024383D01*
X032894Y024452D01*
X032855Y024511D01*
X032786Y02458D01*
Y024815D01*
X032761Y024876D01*
X032761Y024919D01*
X032799Y025009D01*
X033452D01*
X033521Y025022D01*
X03358Y025062D01*
X034157Y025639D01*
X034489D01*
X034549Y025664D01*
X034574Y025724D01*
Y026276D01*
X034549Y026336D01*
X034489Y026361D01*
X034036D01*
X033976Y026336D01*
X033951Y026276D01*
Y025944D01*
X033749Y025742D01*
X033649Y025783D01*
Y025881D01*
X033673Y026D01*
X033649Y026119D01*
Y026276D01*
X033624Y026336D01*
X033564Y026361D01*
X033449D01*
X033346Y02643D01*
X033217Y026455D01*
X028735D01*
Y029833D01*
X029005Y030103D01*
X033026D01*
Y030074D01*
X033051Y030014D01*
X033111Y029989D01*
X033505D01*
X033546Y029889D01*
X033427Y02977D01*
X032775D01*
X032761Y029804D01*
X032701Y029829D01*
X032299D01*
X032239Y029804D01*
X032229Y029781D01*
X03155D01*
X031481Y029767D01*
X031422Y029728D01*
X031275Y029581D01*
X030615D01*
X0306Y029617D01*
X030531Y029707D01*
X030441Y029775D01*
X030337Y029818D01*
X030225Y029833D01*
X030175D01*
X030063Y029818D01*
X029959Y029775D01*
X029869Y029707D01*
X029801Y029617D01*
X029757Y029513D01*
X029743Y029401D01*
X029757Y029289D01*
X029801Y029185D01*
X029869Y029095D01*
X029959Y029026D01*
X030063Y028983D01*
X030175Y028968D01*
X030225D01*
X030337Y028983D01*
X030441Y029026D01*
X030531Y029095D01*
X0306Y029185D01*
X030614Y029219D01*
X03135D01*
X031419Y029233D01*
X031478Y029272D01*
X031625Y029419D01*
X032214D01*
Y029335D01*
X032239Y029274D01*
X032239Y029226D01*
X032214Y029165D01*
Y028756D01*
X032239Y028696D01*
X032275Y028681D01*
X032255Y028581D01*
X030635D01*
Y028751D01*
X03061Y028811D01*
X03055Y028836D01*
X02985D01*
X02979Y028811D01*
X029765Y028751D01*
Y028051D01*
X02979Y027991D01*
X02985Y027966D01*
X03055D01*
X03061Y027991D01*
X030635Y028051D01*
Y028219D01*
X032526D01*
X032581Y028197D01*
X032974D01*
X033035Y028222D01*
X03306Y028282D01*
Y028518D01*
X033035Y028578D01*
X032974Y028603D01*
X032958D01*
Y028783D01*
X032944Y028852D01*
X032905Y028911D01*
X032786Y02903D01*
Y029165D01*
X032761Y029226D01*
X032761Y029274D01*
X032786Y029335D01*
Y029409D01*
X033502D01*
X033571Y029422D01*
X03363Y029462D01*
X034157Y029989D01*
X034489D01*
X034549Y030014D01*
X034574Y030074D01*
Y030626D01*
X034549Y030686D01*
X034489Y030711D01*
X034064D01*
X034017Y030794D01*
X034015Y030803D01*
X034451Y031239D01*
X034513Y031331D01*
X034534Y03144D01*
Y0331D01*
Y034D01*
X034513Y034109D01*
X034451Y034201D01*
X034251Y034401D01*
X034159Y034463D01*
X03405Y034484D01*
X033665D01*
X033654Y034511D01*
X033594Y034536D01*
X033185D01*
X033124Y034511D01*
X033076Y034511D01*
X033015Y034536D01*
X032888D01*
X03247Y034954D01*
X032418Y034988D01*
X032357Y035001D01*
X032357Y035001D01*
X031388D01*
X031271Y035117D01*
Y03596D01*
X031394Y036042D01*
X031481Y036172D01*
X031512Y036326D01*
Y036582D01*
X031481Y036736D01*
X031394Y036866D01*
X031264Y036953D01*
X031111Y036983D01*
X030957Y036953D01*
X030827Y036866D01*
X03074Y036736D01*
X030709Y036582D01*
Y036326D01*
X03074Y036172D01*
X030827Y036042D01*
X03095Y03596D01*
Y035117D01*
X030445Y034612D01*
X030407Y034628D01*
X030295Y034642D01*
X030245D01*
X030133Y034628D01*
X030029Y034585D01*
X029939Y034516D01*
X029871Y034426D01*
X029827Y034322D01*
X029813Y03421D01*
X029827Y034098D01*
X029871Y033994D01*
X029939Y033904D01*
X030029Y033835D01*
X030133Y033792D01*
X030245Y033778D01*
X030295D01*
X030407Y033792D01*
X030511Y033835D01*
X030601Y033904D01*
X03067Y033994D01*
X030713Y034098D01*
X030727Y03421D01*
X030713Y034322D01*
X030682Y034395D01*
X031111Y034824D01*
X031208Y034726D01*
X031208Y034726D01*
X03126Y034692D01*
X031321Y034679D01*
X031321Y034679D01*
X03229D01*
X032521Y034449D01*
Y034049D01*
X032546Y033989D01*
X032606Y033964D01*
X03265D01*
Y033481D01*
X032609Y033437D01*
X032547Y033398D01*
Y03325D01*
Y033114D01*
X032637D01*
X032646Y033091D01*
X032706Y033066D01*
X032894D01*
X032954Y033091D01*
X032979Y033152D01*
Y033348D01*
X032971Y033367D01*
Y033964D01*
X033015D01*
X033076Y033989D01*
X033124Y033989D01*
X033185Y033964D01*
X033291D01*
X033331Y033937D01*
X033439Y033916D01*
X033932D01*
X033966Y033882D01*
Y033384D01*
X033439D01*
X033331Y033363D01*
X033238Y033301D01*
X033177Y033209D01*
X033155Y0331D01*
Y032629D01*
X033065Y032558D01*
X032819D01*
X032764Y032614D01*
X032711Y032648D01*
X03265Y032661D01*
X03265Y032661D01*
X031617D01*
X030954Y033324D01*
X030901Y033358D01*
X03084Y033371D01*
X03084Y033371D01*
X030693D01*
X03067Y033426D01*
X030601Y033516D01*
X030511Y033584D01*
X030407Y033628D01*
X030295Y033642D01*
X030245D01*
X030133Y033628D01*
X030029Y033584D01*
X029939Y033516D01*
X029871Y033426D01*
X029843Y033361D01*
X029567D01*
X028861Y034067D01*
Y035933D01*
X028984Y036015D01*
X029071Y036145D01*
X029101Y036299D01*
Y036555D01*
X029071Y036708D01*
X028984Y036839D01*
X028854Y036926D01*
X0287Y036956D01*
X028546Y036926D01*
X028416Y036839D01*
X028329Y036708D01*
X028299Y036555D01*
Y036299D01*
X028329Y036145D01*
X028416Y036015D01*
X028539Y035933D01*
Y034D01*
X028539Y034D01*
X028552Y033939D01*
X028586Y033886D01*
X029386Y033086D01*
X029386Y033086D01*
X029439Y033052D01*
X0295Y033039D01*
X0295Y033039D01*
X029852D01*
X029871Y032994D01*
X029939Y032904D01*
X030029Y032836D01*
X030133Y032792D01*
X030245Y032778D01*
X030295D01*
X030407Y032792D01*
X030511Y032836D01*
X030601Y032904D01*
X03067Y032994D01*
X030683Y033026D01*
X030785Y033038D01*
X031436Y032386D01*
X031436Y032386D01*
X031489Y032352D01*
X03155Y032339D01*
X03155Y032339D01*
X032571D01*
Y032071D01*
X032596Y032011D01*
X032656Y031986D01*
X0327D01*
Y031455D01*
X032695Y031453D01*
X03267Y031392D01*
Y031195D01*
X032695Y031135D01*
X032755Y03111D01*
X032942D01*
X033002Y031135D01*
X033012Y031158D01*
X033102D01*
Y031294D01*
Y031435D01*
X033021Y031454D01*
Y031986D01*
X033065D01*
X033126Y032011D01*
X033174Y032011D01*
X033235Y031986D01*
X033644D01*
X033704Y032011D01*
X033729Y032071D01*
Y032473D01*
X033724Y032487D01*
Y032816D01*
X033966D01*
Y031558D01*
X033119Y030711D01*
X033111D01*
X033051Y030686D01*
X033045Y030672D01*
X028887D01*
X028779Y03065D01*
X028686Y030588D01*
X028317Y030219D01*
X028272Y03021D01*
X028163Y030137D01*
X02809Y030028D01*
X028065Y0299D01*
Y02612D01*
Y01785D01*
X02809Y017722D01*
X028163Y017613D01*
X028513Y017263D01*
X028622Y01719D01*
X02875Y017165D01*
X035675D01*
X035803Y01719D01*
X035912Y017263D01*
X036589Y01794D01*
X0375D01*
X03756Y017965D01*
X03791Y018315D01*
X037935Y018375D01*
Y020167D01*
X038188Y020443D01*
X039924D01*
X039928Y020444D01*
X039931Y020443D01*
X039957Y020457D01*
X039985Y020468D01*
X039986Y020471D01*
X039989Y020473D01*
X040265Y020795D01*
X040274Y020823D01*
X040285Y02085D01*
Y021231D01*
X040385Y021251D01*
X04039Y02124D01*
X04059Y02104D01*
X04065Y021015D01*
X0433D01*
X04336Y02104D01*
X04356Y021239D01*
X043561Y02124D01*
X043689D01*
X04369Y021239D01*
X04379Y02114D01*
X04385Y021115D01*
X044086D01*
X044165Y021036D01*
X044165Y019585D01*
X043915Y019335D01*
X042D01*
X04194Y01931D01*
X04169Y01906D01*
X041665Y019D01*
Y0175D01*
X04169Y01744D01*
X04175Y017415D01*
X041765D01*
X04199Y01719D01*
X04205Y017165D01*
X042086D01*
X042127Y017065D01*
X041647Y016585D01*
X028489D01*
X027535Y017539D01*
Y041616D01*
X029005D01*
Y041507D01*
X028915Y041436D01*
X028506D01*
X028446Y041411D01*
X028421Y041351D01*
Y040949D01*
X028446Y040889D01*
X028506Y040864D01*
X02853D01*
Y040261D01*
X028416Y040185D01*
X028329Y040055D01*
X028299Y039901D01*
Y039645D01*
X028329Y039492D01*
X028416Y039361D01*
X028519Y039292D01*
Y0389D01*
X028533Y038831D01*
X028572Y038772D01*
X029372Y037972D01*
X029431Y037933D01*
X0295Y037919D01*
X033925D01*
X035272Y036572D01*
X035331Y036533D01*
X0354Y036519D01*
X037438D01*
X037447Y036496D01*
X037512Y036412D01*
X037596Y036347D01*
X037695Y036307D01*
X0378Y036293D01*
X037905Y036307D01*
X038004Y036347D01*
X038088Y036412D01*
X038153Y036496D01*
X038193Y036595D01*
X038207Y0367D01*
X038193Y036805D01*
X038153Y036904D01*
X038088Y036988D01*
X038004Y037053D01*
X037905Y037093D01*
X0378Y037107D01*
X037695Y037093D01*
X037596Y037053D01*
X037512Y036988D01*
X037447Y036904D01*
X037438Y036881D01*
X035475D01*
X034128Y038228D01*
X034069Y038267D01*
X034Y038281D01*
X029575D01*
X028881Y038975D01*
Y039292D01*
X028984Y039361D01*
X029071Y039492D01*
X029101Y039645D01*
Y039901D01*
X029071Y040055D01*
X028984Y040185D01*
X028891Y040247D01*
Y040864D01*
X028915D01*
X028976Y040889D01*
X029024Y040889D01*
X029085Y040864D01*
X029494D01*
X029554Y040889D01*
X029579Y040949D01*
Y041351D01*
X029574Y041365D01*
Y041616D01*
X031305D01*
X031361Y041549D01*
X031315Y041486D01*
X030906D01*
X030846Y041461D01*
X030821Y041401D01*
Y040999D01*
X030846Y040939D01*
X030906Y040914D01*
X03093D01*
Y040281D01*
X030827Y040212D01*
X03074Y040082D01*
X030709Y039928D01*
Y039673D01*
X03074Y039519D01*
X030827Y039389D01*
X030934Y039317D01*
X030943Y039271D01*
X030982Y039212D01*
X031372Y038822D01*
X031431Y038783D01*
X0315Y038769D01*
X034325D01*
X035522Y037572D01*
X035581Y037533D01*
X03565Y037519D01*
X037438D01*
X037447Y037496D01*
X037512Y037412D01*
X037596Y037347D01*
X037695Y037307D01*
X0378Y037293D01*
X037905Y037307D01*
X038004Y037347D01*
X038088Y037412D01*
X038153Y037496D01*
X038193Y037595D01*
X038207Y0377D01*
X038193Y037805D01*
X038153Y037904D01*
X038088Y037988D01*
X038004Y038053D01*
X037905Y038093D01*
X0378Y038107D01*
X037695Y038093D01*
X037596Y038053D01*
X037512Y037988D01*
X037447Y037904D01*
X037438Y037881D01*
X035725D01*
X034528Y039078D01*
X034469Y039117D01*
X0344Y039131D01*
X031575D01*
X031388Y039318D01*
X031394Y039389D01*
X031481Y039519D01*
X031512Y039673D01*
Y039928D01*
X031481Y040082D01*
X031394Y040212D01*
X031291Y040281D01*
Y040914D01*
X031315D01*
X031376Y040939D01*
X031424Y040939D01*
X031485Y040914D01*
X031894D01*
X031954Y040939D01*
X031979Y040999D01*
Y041121D01*
X032Y041227D01*
Y041684D01*
X031979Y041792D01*
X031917Y041885D01*
X031701Y042101D01*
X031609Y042163D01*
X0315Y042184D01*
X02735D01*
X027241Y042163D01*
X027149Y042101D01*
X027117Y042069D01*
X027072Y04206D01*
X026963Y041987D01*
X02689Y041878D01*
X026865Y04175D01*
Y0174D01*
X02689Y017272D01*
X026963Y017163D01*
X028113Y016013D01*
X028222Y01594D01*
X02835Y015915D01*
X041786D01*
X041915Y01594D01*
X042023Y016013D01*
X042737Y016727D01*
X04281Y016835D01*
X042835Y016964D01*
Y017165D01*
X0453D01*
X04536Y01719D01*
X04556Y01739D01*
X045585Y01745D01*
Y017465D01*
X04561Y01749D01*
X045635Y01755D01*
Y021367D01*
X0512D01*
X051325Y021384D01*
X051441Y021432D01*
X051541Y021509D01*
X051891Y021859D01*
X051968Y021959D01*
X052016Y022075D01*
X052033Y0222D01*
Y0392D01*
Y0444D01*
Y04795D01*
X052016Y048075D01*
X051968Y048191D01*
X051891Y048291D01*
X050141Y050041D01*
X050041Y050118D01*
X049925Y050166D01*
X0498Y050183D01*
D02*
G37*
G36*
X0378Y046107D02*
X037695Y046093D01*
X037596Y046053D01*
X037512Y045988D01*
X037447Y045904D01*
X037407Y045805D01*
X037393Y0457D01*
X037407Y045595D01*
X037447Y045496D01*
X037512Y045412D01*
X037596Y045347D01*
X037695Y045307D01*
X0378Y045293D01*
X037905Y045307D01*
X038004Y045347D01*
X038088Y045412D01*
X038153Y045496D01*
X038193Y045595D01*
X038207Y0457D01*
X038193Y045805D01*
X038153Y045904D01*
X038088Y045988D01*
X038004Y046053D01*
X037905Y046093D01*
X0378Y046107D01*
D02*
G37*
G36*
X0438D02*
X043695Y046093D01*
X043596Y046053D01*
X043512Y045988D01*
X043447Y045904D01*
X043407Y045805D01*
X043393Y0457D01*
X043407Y045595D01*
X043447Y045496D01*
X043512Y045412D01*
X043596Y045347D01*
X043695Y045307D01*
X0438Y045293D01*
X043905Y045307D01*
X044004Y045347D01*
X044088Y045412D01*
X044153Y045496D01*
X044193Y045595D01*
X044207Y0457D01*
X044193Y045805D01*
X044153Y045904D01*
X044088Y045988D01*
X044004Y046053D01*
X043905Y046093D01*
X0438Y046107D01*
D02*
G37*
G36*
X04895Y04535D02*
X048761D01*
X048837Y045237D01*
X04895Y045161D01*
Y04535D01*
D02*
G37*
G36*
X049439D02*
X04925D01*
Y045161D01*
X049363Y045237D01*
X049439Y04535D01*
D02*
G37*
G36*
X032802Y048828D02*
X032495D01*
X032435Y048803D01*
X03241Y048743D01*
Y048731D01*
X03075D01*
X030681Y048717D01*
X030622Y048678D01*
X030059Y048114D01*
X02995Y048136D01*
X029802Y048107D01*
X029677Y048023D01*
X029593Y047898D01*
X029564Y04775D01*
X029593Y047602D01*
X029677Y047477D01*
X029802Y047393D01*
X02995Y047364D01*
X030098Y047393D01*
X030223Y047477D01*
X030307Y047602D01*
X030336Y04775D01*
X030314Y047859D01*
X030825Y048369D01*
X03241D01*
Y048357D01*
X032435Y048297D01*
X032468Y048283D01*
Y048161D01*
X032436D01*
X032376Y048136D01*
X032351Y048076D01*
Y047524D01*
X032376Y047464D01*
X032436Y047439D01*
X032889D01*
X032949Y047464D01*
X032974Y047524D01*
Y047619D01*
X033705D01*
X033709Y047618D01*
X03426D01*
X03432Y047643D01*
X034345Y047703D01*
Y047759D01*
X034496D01*
X034521Y047723D01*
Y047676D01*
X034851D01*
Y047526D01*
D01*
Y047676D01*
X03518D01*
Y047723D01*
X035205Y047759D01*
X036592D01*
X037009Y047342D01*
Y04225D01*
X03702Y042196D01*
X037051Y042151D01*
X037405Y041796D01*
X037393Y0417D01*
X037407Y041595D01*
X037447Y041496D01*
X037512Y041412D01*
X037596Y041347D01*
X037695Y041307D01*
X0378Y041293D01*
X037905Y041307D01*
X038004Y041347D01*
X038088Y041412D01*
X038153Y041496D01*
X038193Y041595D01*
X038207Y0417D01*
X038193Y041805D01*
X038153Y041904D01*
X038088Y041988D01*
X038004Y042053D01*
X037905Y042093D01*
X0378Y042107D01*
X037695Y042093D01*
X037596Y042053D01*
X037568Y042031D01*
X03729Y042308D01*
Y047312D01*
X03731Y047374D01*
X037359Y047374D01*
X037396Y047351D01*
X037415Y047315D01*
X037418Y047313D01*
X037475Y04729D01*
X038125D01*
X038185Y047315D01*
X03821Y047375D01*
Y048025D01*
X038185Y048085D01*
X038125Y04811D01*
X037475D01*
X037415Y048085D01*
X03739Y048025D01*
Y047473D01*
X03729Y04744D01*
X03728Y047454D01*
X037272Y047466D01*
X037249Y047499D01*
X036749Y047999D01*
X036704Y04803D01*
X03665Y04804D01*
X03573D01*
X035679Y048141D01*
X035713Y048191D01*
X035734Y0483D01*
X035713Y048409D01*
X035651Y048501D01*
X035559Y048563D01*
X03545Y048584D01*
X035341Y048563D01*
X035289Y048528D01*
X035187Y048531D01*
X035126Y048556D01*
X034575D01*
X034515Y048531D01*
X03449Y048471D01*
Y048077D01*
X034465Y04804D01*
X034345D01*
Y048097D01*
X03432Y048157D01*
X03426Y048182D01*
X033709D01*
X033649Y048157D01*
X033624Y048097D01*
Y047981D01*
X032974D01*
Y048076D01*
X032949Y048136D01*
X032889Y048161D01*
X032829D01*
Y048283D01*
X032863Y048297D01*
X032888Y048357D01*
Y048743D01*
X032863Y048803D01*
X032802Y048828D01*
D02*
G37*
G36*
X031964Y048161D02*
X031511D01*
X031451Y048136D01*
X031426Y048076D01*
Y048033D01*
X031303D01*
X031259Y048063D01*
X03115Y048084D01*
X031041Y048063D01*
X030949Y048001D01*
X030887Y047909D01*
X030866Y0478D01*
X030887Y047691D01*
X030949Y047599D01*
X031041Y047537D01*
X03115Y047516D01*
X031259Y047537D01*
X031303Y047567D01*
X031426D01*
Y047524D01*
X031451Y047464D01*
X031511Y047439D01*
X031964D01*
X032024Y047464D01*
X032049Y047524D01*
Y048076D01*
X032024Y048136D01*
X031964Y048161D01*
D02*
G37*
G36*
X034701Y047376D02*
X034521D01*
Y047329D01*
X034537Y047291D01*
X034575Y047275D01*
X034701D01*
Y047376D01*
D02*
G37*
G36*
X03518D02*
X035001D01*
Y047275D01*
X035126D01*
X035165Y047291D01*
X03518Y047329D01*
Y047376D01*
D02*
G37*
G36*
X03305Y048797D02*
X033046D01*
X033008Y048781D01*
X032992Y048743D01*
Y0487D01*
X03305D01*
Y048797D01*
D02*
G37*
G36*
X033354D02*
X03335D01*
Y0487D01*
X033408D01*
Y048743D01*
X033392Y048781D01*
X033354Y048797D01*
D02*
G37*
G36*
X03305Y0484D02*
X032992D01*
Y048357D01*
X033008Y048319D01*
X033046Y048303D01*
X03305D01*
Y0484D01*
D02*
G37*
G36*
X033408D02*
X03335D01*
Y048303D01*
X033354D01*
X033392Y048319D01*
X033408Y048357D01*
Y0484D01*
D02*
G37*
G36*
X033379Y047097D02*
X033376D01*
Y047D01*
X033433D01*
Y047043D01*
X033417Y047081D01*
X033379Y047097D01*
D02*
G37*
G36*
X033433Y0467D02*
X033376D01*
Y046603D01*
X033379D01*
X033417Y046619D01*
X033433Y046657D01*
Y0467D01*
D02*
G37*
G36*
X04265Y046923D02*
X042457D01*
Y046882D01*
X042472Y046844D01*
X042511Y046828D01*
X04265D01*
Y046923D01*
D02*
G37*
G36*
X031964Y046494D02*
X031511D01*
X031451Y046469D01*
X031426Y046409D01*
Y046367D01*
X031319D01*
X031275Y046396D01*
X031167Y046418D01*
X031058Y046396D01*
X030966Y046334D01*
X030904Y046242D01*
X030882Y046133D01*
X030904Y046025D01*
X030966Y045932D01*
X031058Y045871D01*
X031167Y045849D01*
X031275Y045871D01*
X031319Y0459D01*
X031426D01*
Y045858D01*
X031451Y045797D01*
X031511Y045773D01*
X031964D01*
X032024Y045797D01*
X032049Y045858D01*
Y046409D01*
X032024Y046469D01*
X031964Y046494D01*
D02*
G37*
G36*
X033076Y0467D02*
X033018D01*
Y046657D01*
X033034Y046619D01*
X033072Y046603D01*
X033076D01*
Y0467D01*
D02*
G37*
G36*
X04395Y047051D02*
Y04685D01*
X044151D01*
X04407Y04697D01*
X04395Y047051D01*
D02*
G37*
G36*
X033076Y047097D02*
X033072D01*
X033034Y047081D01*
X033018Y047043D01*
Y047D01*
X033076D01*
Y047097D01*
D02*
G37*
G36*
X043143Y046923D02*
X04295D01*
Y046828D01*
X043089D01*
X043128Y046844D01*
X043143Y046882D01*
Y046923D01*
D02*
G37*
G36*
X04365Y047051D02*
X04353Y04697D01*
X043449Y04685D01*
X04365D01*
Y047051D01*
D02*
G37*
G36*
X031961Y040267D02*
X031848Y040192D01*
X031767Y040071D01*
X031743Y039951D01*
X031961D01*
Y040267D01*
D02*
G37*
G36*
X032261Y040267D02*
Y039951D01*
X032478D01*
X032454Y040071D01*
X032374Y040192D01*
X032261Y040267D01*
D02*
G37*
G36*
X02955Y04024D02*
X029437Y040164D01*
X029356Y040044D01*
X029332Y039923D01*
X02955D01*
Y04024D01*
D02*
G37*
G36*
X02985D02*
Y039923D01*
X030068D01*
X030044Y040044D01*
X029963Y040164D01*
X02985Y04024D01*
D02*
G37*
G36*
X034701Y042213D02*
X034521D01*
Y042166D01*
X034537Y042128D01*
X034575Y042112D01*
X034701D01*
Y042213D01*
D02*
G37*
G36*
X0378Y043107D02*
X037695Y043093D01*
X037596Y043053D01*
X037512Y042988D01*
X037447Y042904D01*
X037407Y042805D01*
X037393Y0427D01*
X037407Y042595D01*
X037447Y042496D01*
X037512Y042412D01*
X037596Y042347D01*
X037695Y042307D01*
X0378Y042293D01*
X037905Y042307D01*
X038004Y042347D01*
X038088Y042412D01*
X038153Y042496D01*
X038193Y042595D01*
X038207Y0427D01*
X038193Y042805D01*
X038153Y042904D01*
X038088Y042988D01*
X038004Y043053D01*
X037905Y043093D01*
X0378Y043107D01*
D02*
G37*
G36*
X02995Y047136D02*
X029802Y047107D01*
X029677Y047023D01*
X029593Y046898D01*
X029564Y04675D01*
X029593Y046602D01*
X029677Y046477D01*
X029802Y046393D01*
X02995Y046364D01*
X030098Y046393D01*
X030223Y046477D01*
X030307Y046602D01*
X03032Y046669D01*
X032406D01*
X032459Y046589D01*
X032451Y046553D01*
X032431Y046492D01*
X032376Y046469D01*
X032351Y046409D01*
Y045858D01*
X032376Y045797D01*
X032436Y045773D01*
X032889D01*
X032949Y045797D01*
X032974Y045858D01*
Y045953D01*
X033629D01*
X033649Y045906D01*
X033709Y045881D01*
X03426D01*
X03432Y045906D01*
X034345Y045966D01*
Y046009D01*
X034505D01*
X034521Y045986D01*
Y045939D01*
X034851D01*
X03518D01*
Y045986D01*
X035196Y046009D01*
X035992D01*
X03636Y045642D01*
Y042D01*
X03637Y041946D01*
X036401Y041901D01*
X037433Y040869D01*
X037407Y040805D01*
X037393Y0407D01*
X037407Y040595D01*
X037447Y040496D01*
X037512Y040412D01*
X037596Y040347D01*
X037695Y040307D01*
X0378Y040293D01*
X037905Y040307D01*
X038004Y040347D01*
X038088Y040412D01*
X038153Y040496D01*
X038193Y040595D01*
X038207Y0407D01*
X038193Y040805D01*
X038153Y040904D01*
X038088Y040988D01*
X038004Y041053D01*
X037905Y041093D01*
X0378Y041107D01*
X037695Y041093D01*
X037631Y041067D01*
X036641Y042058D01*
Y0457D01*
X03663Y045754D01*
X036599Y045799D01*
X036149Y046249D01*
X036104Y04628D01*
X03605Y04629D01*
X035728D01*
X035674Y046391D01*
X0357Y046428D01*
X035721Y046537D01*
X0357Y046646D01*
X035638Y046738D01*
X035546Y0468D01*
X035437Y046821D01*
X035328Y0468D01*
X035289Y046773D01*
X035188Y046792D01*
X035187Y046794D01*
X035126Y046819D01*
X034575D01*
X034515Y046794D01*
X03449Y046734D01*
Y04634D01*
X034457Y04629D01*
X034345D01*
Y04636D01*
X03432Y04642D01*
X03426Y046445D01*
X033709D01*
X033649Y04642D01*
X033624Y04636D01*
Y046314D01*
X032974D01*
Y046409D01*
X032949Y046469D01*
X032895Y046492D01*
X032887Y046515D01*
X032882Y046594D01*
X032888Y046597D01*
X032913Y046657D01*
Y047043D01*
X032888Y047103D01*
X032828Y047128D01*
X032521D01*
X032461Y047103D01*
X032436Y047043D01*
Y047031D01*
X030212D01*
X030098Y047107D01*
X02995Y047136D01*
D02*
G37*
G36*
X0438Y041107D02*
X043695Y041093D01*
X043596Y041053D01*
X043512Y040988D01*
X043447Y040904D01*
X043407Y040805D01*
X043393Y0407D01*
X043407Y040595D01*
X043447Y040496D01*
X043512Y040412D01*
X043596Y040347D01*
X043695Y040307D01*
X0438Y040293D01*
X043905Y040307D01*
X044004Y040347D01*
X044088Y040412D01*
X044153Y040496D01*
X044193Y040595D01*
X044207Y0407D01*
X044193Y040805D01*
X044153Y040904D01*
X044088Y040988D01*
X044004Y041053D01*
X043905Y041093D01*
X0438Y041107D01*
D02*
G37*
G36*
Y040107D02*
X043695Y040093D01*
X043596Y040053D01*
X043512Y039988D01*
X043447Y039904D01*
X043407Y039805D01*
X043393Y0397D01*
X043407Y039595D01*
X043447Y039496D01*
X043512Y039412D01*
X043596Y039347D01*
X043695Y039307D01*
X0438Y039293D01*
X043905Y039307D01*
X044004Y039347D01*
X044088Y039412D01*
X044153Y039496D01*
X044193Y039595D01*
X044207Y0397D01*
X044193Y039805D01*
X044153Y039904D01*
X044088Y039988D01*
X044004Y040053D01*
X043905Y040093D01*
X0438Y040107D01*
D02*
G37*
G36*
X02955Y039623D02*
X029332D01*
X029356Y039503D01*
X029437Y039382D01*
X02955Y039307D01*
Y039623D01*
D02*
G37*
G36*
X0438Y039107D02*
X043695Y039093D01*
X043596Y039053D01*
X043512Y038988D01*
X043447Y038904D01*
X043407Y038805D01*
X043393Y0387D01*
X043407Y038595D01*
X043447Y038496D01*
X043512Y038412D01*
X043596Y038347D01*
X043695Y038307D01*
X0438Y038293D01*
X043905Y038307D01*
X044004Y038347D01*
X044088Y038412D01*
X044153Y038496D01*
X044193Y038595D01*
X044207Y0387D01*
X044193Y038805D01*
X044153Y038904D01*
X044088Y038988D01*
X044004Y039053D01*
X043905Y039093D01*
X0438Y039107D01*
D02*
G37*
G36*
X049189Y03915D02*
X049096D01*
Y039026D01*
X049112Y038988D01*
X04915Y038972D01*
X049189D01*
Y03915D01*
D02*
G37*
G36*
X032478Y039651D02*
X032261D01*
Y039334D01*
X032374Y039409D01*
X032454Y03953D01*
X032478Y039651D01*
D02*
G37*
G36*
X049189Y039628D02*
X04915D01*
X049112Y039612D01*
X049096Y039574D01*
Y03945D01*
X049189D01*
Y039628D01*
D02*
G37*
G36*
X030068Y039623D02*
X02985D01*
Y039307D01*
X029963Y039382D01*
X030044Y039503D01*
X030068Y039623D01*
D02*
G37*
G36*
X031961Y039651D02*
X031743D01*
X031767Y03953D01*
X031848Y039409D01*
X031961Y039334D01*
Y039651D01*
D02*
G37*
G36*
X031951Y043161D02*
X031498D01*
X031438Y043136D01*
X031413Y043076D01*
Y043033D01*
X031303D01*
X031259Y043063D01*
X03115Y043084D01*
X031041Y043063D01*
X030949Y043001D01*
X030887Y042909D01*
X030866Y0428D01*
X030887Y042691D01*
X030949Y042599D01*
X031041Y042537D01*
X03115Y042516D01*
X031259Y042537D01*
X031303Y042567D01*
X031413D01*
Y042524D01*
X031438Y042464D01*
X031498Y042439D01*
X031951D01*
X032011Y042464D01*
X032036Y042524D01*
Y043076D01*
X032011Y043136D01*
X031951Y043161D01*
D02*
G37*
G36*
X03518Y043926D02*
X035001D01*
Y043825D01*
X035126D01*
X035165Y043841D01*
X03518Y043879D01*
Y043926D01*
D02*
G37*
G36*
X0298Y044104D02*
X02965D01*
X029612Y044088D01*
X029596Y04405D01*
Y0439D01*
X0298D01*
Y044104D01*
D02*
G37*
G36*
X049212Y043955D02*
X049117D01*
Y043816D01*
X049133Y043778D01*
X049171Y043762D01*
X049212D01*
Y043955D01*
D02*
G37*
G36*
X034701Y043926D02*
X034521D01*
Y043879D01*
X034537Y043841D01*
X034575Y043825D01*
X034701D01*
Y043926D01*
D02*
G37*
G36*
X049212Y044449D02*
X049171D01*
X049133Y044433D01*
X049117Y044395D01*
Y044255D01*
X049212D01*
Y044449D01*
D02*
G37*
G36*
X0378Y045107D02*
X037695Y045093D01*
X037596Y045053D01*
X037512Y044988D01*
X037447Y044904D01*
X037407Y044805D01*
X037393Y0447D01*
X037407Y044595D01*
X037447Y044496D01*
X037512Y044412D01*
X037596Y044347D01*
X037695Y044307D01*
X0378Y044293D01*
X037905Y044307D01*
X038004Y044347D01*
X038088Y044412D01*
X038153Y044496D01*
X038193Y044595D01*
X038207Y0447D01*
X038193Y044805D01*
X038153Y044904D01*
X038088Y044988D01*
X038004Y045053D01*
X037905Y045093D01*
X0378Y045107D01*
D02*
G37*
G36*
X03025Y044104D02*
X0301D01*
Y0439D01*
X030304D01*
Y04405D01*
X030288Y044088D01*
X03025Y044104D01*
D02*
G37*
G36*
X02995Y046136D02*
X029802Y046107D01*
X029677Y046023D01*
X029593Y045898D01*
X029564Y04575D01*
X029593Y045602D01*
X029677Y045477D01*
X029802Y045393D01*
X02995Y045364D01*
X030098Y045393D01*
X030223Y045477D01*
X030309Y045485D01*
X030772Y045022D01*
X030831Y044983D01*
X0309Y044969D01*
X032385D01*
X032414Y044902D01*
X032376Y044803D01*
X032351Y044742D01*
Y044191D01*
X032376Y044131D01*
X032436Y044106D01*
X032889D01*
X032949Y044131D01*
X032974Y044191D01*
Y044284D01*
X033624D01*
Y044253D01*
X033649Y044193D01*
X033709Y044168D01*
X03426D01*
X03432Y044193D01*
X034345Y044253D01*
Y04431D01*
X034496D01*
X034521Y044273D01*
Y044226D01*
X034851D01*
X03518D01*
Y044273D01*
X035205Y04431D01*
X035592D01*
X035759Y044142D01*
Y043319D01*
X035659Y043288D01*
X035651Y043301D01*
X035559Y043363D01*
X03545Y043384D01*
X035341Y043363D01*
X035314Y043344D01*
X035196D01*
X035187Y043368D01*
X035126Y043393D01*
X034575D01*
X034515Y043368D01*
X03449Y043308D01*
Y042914D01*
X034474Y042891D01*
X034345D01*
Y042934D01*
X03432Y042994D01*
X03426Y043019D01*
X033709D01*
X033649Y042994D01*
X033644Y042982D01*
X032962D01*
Y043076D01*
X032937Y043136D01*
X032934Y043137D01*
X032879Y043183D01*
X032887Y043256D01*
X032888Y043257D01*
Y043643D01*
X032863Y043703D01*
X032802Y043728D01*
X032495D01*
X032435Y043703D01*
X03241Y043643D01*
Y043631D01*
X031475D01*
X030949Y044157D01*
X031012Y044235D01*
X031058Y044204D01*
X031167Y044182D01*
X031275Y044204D01*
X031319Y044233D01*
X031426D01*
Y044191D01*
X031451Y044131D01*
X031511Y044106D01*
X031964D01*
X032024Y044131D01*
X032049Y044191D01*
Y044742D01*
X032024Y044803D01*
X031964Y044827D01*
X031511D01*
X031451Y044803D01*
X031426Y044742D01*
Y0447D01*
X031319D01*
X031275Y044729D01*
X031167Y044751D01*
X031058Y044729D01*
X030966Y044668D01*
X030904Y044575D01*
X030882Y044467D01*
X030904Y044358D01*
X030935Y044312D01*
X030857Y044249D01*
X030331Y044774D01*
X030307Y044898D01*
X030223Y045023D01*
X030098Y045107D01*
X02995Y045136D01*
X029802Y045107D01*
X029677Y045023D01*
X029593Y044898D01*
X029564Y04475D01*
X029593Y044602D01*
X029677Y044477D01*
X029802Y044393D01*
X02995Y044364D01*
X030098Y044393D01*
X03016Y044435D01*
X031272Y043322D01*
X031331Y043283D01*
X0314Y043269D01*
X032383D01*
X032403Y043169D01*
X032365Y043136D01*
X032363Y043136D01*
X032338Y043076D01*
Y042524D01*
X032363Y042464D01*
X032424Y042439D01*
X032876D01*
X032937Y042464D01*
X032962Y042524D01*
Y042618D01*
X033624D01*
Y04254D01*
X033649Y04248D01*
X033709Y042455D01*
X03426D01*
X03432Y04248D01*
X034345Y04254D01*
Y042572D01*
X034438Y0426D01*
X034521Y042545D01*
Y042513D01*
X034851D01*
Y042363D01*
X035001D01*
Y042112D01*
X035126D01*
X035165Y042128D01*
X035259Y042096D01*
Y0411D01*
X03527Y041046D01*
X035301Y041001D01*
X037433Y038869D01*
X037407Y038805D01*
X037393Y0387D01*
X037407Y038595D01*
X037447Y038496D01*
X037512Y038412D01*
X037596Y038347D01*
X037695Y038307D01*
X0378Y038293D01*
X037905Y038307D01*
X038004Y038347D01*
X038088Y038412D01*
X038153Y038496D01*
X038193Y038595D01*
X038207Y0387D01*
X038193Y038805D01*
X038153Y038904D01*
X038088Y038988D01*
X038004Y039053D01*
X037905Y039093D01*
X0378Y039107D01*
X037695Y039093D01*
X037631Y039067D01*
X03554Y041158D01*
Y04255D01*
X03553Y042604D01*
X035499Y042649D01*
X035431Y042718D01*
X035439Y042761D01*
X03547Y04282D01*
X035559Y042837D01*
X035651Y042899D01*
X035659Y042912D01*
X035759Y042881D01*
Y0416D01*
X03577Y041546D01*
X035801Y041501D01*
X037433Y039869D01*
X037407Y039805D01*
X037393Y0397D01*
X037407Y039595D01*
X037447Y039496D01*
X037512Y039412D01*
X037596Y039347D01*
X037695Y039307D01*
X0378Y039293D01*
X037905Y039307D01*
X038004Y039347D01*
X038088Y039412D01*
X038153Y039496D01*
X038193Y039595D01*
X038207Y0397D01*
X038193Y039805D01*
X038153Y039904D01*
X038088Y039988D01*
X038004Y040053D01*
X037905Y040093D01*
X0378Y040107D01*
X037695Y040093D01*
X037631Y040067D01*
X03604Y041658D01*
Y0442D01*
X03603Y044254D01*
X035999Y044299D01*
X035749Y044549D01*
X035712Y044574D01*
X035705Y044583D01*
X035701Y044589D01*
X035676Y044687D01*
X035713Y044741D01*
X035734Y04485D01*
X035713Y044959D01*
X035651Y045051D01*
X035559Y045113D01*
X03545Y045134D01*
X035341Y045113D01*
X035289Y045078D01*
X035187Y045081D01*
X035126Y045106D01*
X034575D01*
X034515Y045081D01*
X03449Y045021D01*
Y044627D01*
X034465Y044591D01*
X034345D01*
Y044647D01*
X03432Y044707D01*
X03426Y044732D01*
X033709D01*
X033649Y044707D01*
X033625Y044649D01*
X032974D01*
Y044742D01*
X032949Y044803D01*
X032914Y044817D01*
X032884Y044863D01*
X032875Y044927D01*
X032888Y044957D01*
Y045343D01*
X032863Y045403D01*
X032802Y045428D01*
X032495D01*
X032435Y045403D01*
X03241Y045343D01*
Y045331D01*
X030975D01*
X030428Y045878D01*
X030369Y045917D01*
X0303Y045931D01*
X030285D01*
X030223Y046023D01*
X030098Y046107D01*
X02995Y046136D01*
D02*
G37*
G36*
X0378Y044107D02*
X037695Y044093D01*
X037596Y044053D01*
X037512Y043988D01*
X037447Y043904D01*
X037407Y043805D01*
X037393Y0437D01*
X037407Y043595D01*
X037447Y043496D01*
X037512Y043412D01*
X037596Y043347D01*
X037695Y043307D01*
X0378Y043293D01*
X037905Y043307D01*
X038004Y043347D01*
X038088Y043412D01*
X038153Y043496D01*
X038193Y043595D01*
X038207Y0437D01*
X038193Y043805D01*
X038153Y043904D01*
X038088Y043988D01*
X038004Y044053D01*
X037905Y044093D01*
X0378Y044107D01*
D02*
G37*
G36*
X0438D02*
X043695Y044093D01*
X043596Y044053D01*
X043512Y043988D01*
X043447Y043904D01*
X043407Y043805D01*
X043393Y0437D01*
X043407Y043595D01*
X043447Y043496D01*
X043512Y043412D01*
X043596Y043347D01*
X043695Y043307D01*
X0438Y043293D01*
X043905Y043307D01*
X044004Y043347D01*
X044088Y043412D01*
X044153Y043496D01*
X044193Y043595D01*
X044207Y0437D01*
X044193Y043805D01*
X044153Y043904D01*
X044088Y043988D01*
X044004Y044053D01*
X043905Y044093D01*
X0438Y044107D01*
D02*
G37*
G36*
X03305Y0433D02*
X032992D01*
Y043257D01*
X033008Y043219D01*
X033046Y043203D01*
X03305D01*
Y0433D01*
D02*
G37*
G36*
X033408D02*
X03335D01*
Y043203D01*
X033354D01*
X033392Y043219D01*
X033408Y043257D01*
Y0433D01*
D02*
G37*
G36*
X03305Y043697D02*
X033046D01*
X033008Y043681D01*
X032992Y043643D01*
Y0436D01*
X03305D01*
Y043697D01*
D02*
G37*
G36*
X033354D02*
X03335D01*
Y0436D01*
X033408D01*
Y043643D01*
X033392Y043681D01*
X033354Y043697D01*
D02*
G37*
G36*
X030304Y0436D02*
X0301D01*
Y043396D01*
X03025D01*
X030288Y043412D01*
X030304Y04345D01*
Y0436D01*
D02*
G37*
G36*
X0298D02*
X029596D01*
Y04345D01*
X029612Y043412D01*
X02965Y043396D01*
X0298D01*
Y0436D01*
D02*
G37*
%LPD*%
G36*
X04555Y0261D02*
X04555Y0215D01*
Y01755D01*
X0455Y0175D01*
Y01745D01*
X0453Y01725D01*
X04205D01*
X0418Y0175D01*
X04175D01*
Y019D01*
X042Y01925D01*
X04395D01*
X04425Y01955D01*
X04425Y0211D01*
X04415Y0212D01*
X04385D01*
X0437Y02135D01*
Y0265D01*
X04515D01*
X04555Y0261D01*
D02*
G37*
G36*
X0394Y02545D02*
X03975D01*
X0402Y025D01*
Y02475D01*
X0397D01*
Y025D01*
X03955Y02515D01*
X0394Y02515D01*
X03835Y02515D01*
X03835Y0259D01*
X03855Y0261D01*
X0394D01*
X0394Y02545D01*
D02*
G37*
G36*
X0405D02*
X04075Y0252D01*
X0411D01*
X0412Y0251D01*
Y0248D01*
X0411Y0247D01*
X0405D01*
X0405Y02505D01*
X04Y02555D01*
Y0266D01*
X0405D01*
Y02545D01*
D02*
G37*
G36*
X04945Y04745D02*
X05035Y04655D01*
X05035Y04495D01*
X0503Y0449D01*
X05025Y04485D01*
Y0438D01*
X04985D01*
Y0441D01*
X0497Y04425D01*
Y0464D01*
X048898Y047202D01*
X048898Y0483D01*
X04945Y0483D01*
X04945Y04745D01*
D02*
G37*
G36*
X05025Y0383D02*
X05025Y0381D01*
X0504Y03795D01*
X05055Y03795D01*
X0506Y0379D01*
X0506Y037D01*
X04975Y037D01*
X04965Y0371D01*
Y03835D01*
Y04115D01*
X05025D01*
X05025Y0383D01*
D02*
G37*
G36*
X0425Y0245D02*
X0424Y0244D01*
X0407Y0244D01*
Y0246D01*
X0412D01*
X0413Y0247D01*
Y0252D01*
X0412Y0253D01*
X0408Y0253D01*
X0406Y0255D01*
X0406Y0265D01*
X0407Y0266D01*
X0425D01*
X0425Y0245D01*
D02*
G37*
G36*
X0434Y02135D02*
X04325Y0212D01*
X0407D01*
X0405Y0214D01*
X0405Y0242D01*
X0434D01*
Y02135D01*
D02*
G37*
G36*
X0402Y02085D02*
X039924Y020528D01*
X03815D01*
X03785Y0202D01*
Y018375D01*
X0375Y018025D01*
X03625D01*
X03605Y018225D01*
Y019875D01*
X03585Y020075D01*
X03555Y020375D01*
X03305D01*
X03225Y019575D01*
Y0185D01*
X032Y01825D01*
X0306D01*
X0304Y0185D01*
Y019775D01*
X032225Y0216D01*
X0384Y0216D01*
X03865Y02185D01*
Y023775D01*
X0395Y024625D01*
X04005D01*
X04015Y024575D01*
X0401Y024625D01*
X0402D01*
Y02085D01*
D02*
G37*
G36*
X0394Y02475D02*
X03915Y0245D01*
X03805Y0245D01*
X03785Y0247D01*
X03785Y02495D01*
X0394D01*
X0394Y02475D01*
D02*
G37*
D10*
X03855Y024869D02*
D03*
Y025231D02*
D03*
D11*
X032649Y04345D02*
D03*
X0332D02*
D03*
X032649Y04515D02*
D03*
X0332D02*
D03*
X032674Y04685D02*
D03*
X033226D02*
D03*
X032649Y04855D02*
D03*
X0332D02*
D03*
X040074Y021634D02*
D03*
X040626D02*
D03*
X043776Y0235D02*
D03*
X043224D02*
D03*
X043776Y0226D02*
D03*
X043224D02*
D03*
X043776Y0218D02*
D03*
X043224D02*
D03*
X040776Y0263D02*
D03*
X040224D02*
D03*
D12*
X0325Y029539D02*
D03*
Y028961D02*
D03*
Y025189D02*
D03*
Y024611D02*
D03*
D13*
X033389Y03425D02*
D03*
X032811D02*
D03*
X033439Y032272D02*
D03*
X032861D02*
D03*
X049089Y0473D02*
D03*
X048511D02*
D03*
X049089Y0482D02*
D03*
X048511D02*
D03*
X049939Y04005D02*
D03*
X049361D02*
D03*
X049929Y04085D02*
D03*
X04935D02*
D03*
X031689Y0412D02*
D03*
X031111D02*
D03*
X029289Y04115D02*
D03*
X028711D02*
D03*
D14*
X034263Y03035D02*
D03*
X033337D02*
D03*
X034263Y026D02*
D03*
X033337D02*
D03*
X03265Y0428D02*
D03*
X031725D02*
D03*
X032663Y044467D02*
D03*
X031737D02*
D03*
X032663Y046133D02*
D03*
X031737D02*
D03*
X032663Y0478D02*
D03*
X031737D02*
D03*
D15*
X0328Y03325D02*
D03*
X032397D02*
D03*
X032848Y031294D02*
D03*
X033252D02*
D03*
X039298Y0258D02*
D03*
X039702D02*
D03*
D16*
X035035Y028D02*
D03*
X034465D02*
D03*
X035035Y0288D02*
D03*
X034465D02*
D03*
X035085Y02365D02*
D03*
X034515D02*
D03*
X035085Y02445D02*
D03*
X034515D02*
D03*
D17*
X03915Y024833D02*
D03*
Y025267D02*
D03*
D18*
X049339Y0393D02*
D03*
X049961D02*
D03*
D19*
X050016Y044105D02*
D03*
X049362D02*
D03*
D20*
X03905Y030023D02*
D03*
Y030677D02*
D03*
X0428Y047073D02*
D03*
Y047727D02*
D03*
D21*
X040901Y0226D02*
D03*
X039799D02*
D03*
D22*
X042Y0258D02*
D03*
X044283D02*
D03*
D23*
X032778Y0284D02*
D03*
X033722Y028774D02*
D03*
Y028026D02*
D03*
X032778Y02405D02*
D03*
X033722Y024424D02*
D03*
Y023676D02*
D03*
D24*
X033985Y042737D02*
D03*
X034851Y043111D02*
D03*
Y042363D02*
D03*
X033985Y04445D02*
D03*
X034851Y044824D02*
D03*
Y044076D02*
D03*
X033985Y046163D02*
D03*
X034851Y046537D02*
D03*
Y045789D02*
D03*
X033985Y0479D02*
D03*
X034851Y048274D02*
D03*
Y047526D02*
D03*
D25*
X039933Y024874D02*
D03*
Y0245D02*
D03*
Y024126D02*
D03*
X040867D02*
D03*
Y0245D02*
D03*
Y024874D02*
D03*
D26*
X031111Y039801D02*
D03*
X032111D02*
D03*
Y036454D02*
D03*
X031111D02*
D03*
X0287Y039773D02*
D03*
X0297D02*
D03*
Y036427D02*
D03*
X0287D02*
D03*
D27*
X032728Y024D02*
Y024383D01*
X03255Y029011D02*
X032778Y028783D01*
X032539Y0296D02*
X03255Y029589D01*
X03155Y0296D02*
X032539D01*
X033502Y029589D02*
X034263Y03035D01*
X032778Y0284D02*
Y028783D01*
X03022Y0284D02*
X032778D01*
X048361Y04725D02*
X048511D01*
X0339Y046133D02*
X033967Y0462D01*
X03255Y029589D02*
X033502D01*
X034263Y03035D02*
X034313Y0304D01*
X03022Y0294D02*
X03135D01*
X03155Y0296D01*
X0438Y0417D02*
X0463D01*
X0481Y0435D01*
Y0455D01*
Y046989D01*
X03111Y0398D02*
X031111Y039801D01*
X034489Y023676D02*
X034515Y02365D01*
X033722Y023676D02*
X034489D01*
X0315Y03895D02*
X0344D01*
X03111Y03934D02*
X0315Y03895D01*
X033985Y0479D02*
X034067D01*
X033885Y0478D02*
X033985Y0479D01*
X032663Y0478D02*
X033885D01*
X032663Y046133D02*
X0339D01*
X03565Y0377D02*
X0378D01*
X0344Y03895D02*
X03565Y0377D01*
X0354Y0367D02*
X0378D01*
X034Y0381D02*
X0354Y0367D01*
X0295Y0381D02*
X034D01*
X0287Y0389D02*
X0295Y0381D01*
X0287Y039873D02*
X028711Y039884D01*
X02995Y04475D02*
X0301D01*
X0314Y04345D01*
X032649D01*
X02995Y04575D02*
X0303D01*
X0309Y04515D01*
X032649D01*
X02995Y04675D02*
X03005Y04685D01*
X032674D01*
X032663Y046133D02*
X032674Y046145D01*
Y04685D01*
X032649Y047814D02*
X032663Y0478D01*
X032649Y047814D02*
Y04855D01*
X032489Y0252D02*
X0325Y025189D01*
X0315Y0252D02*
X032489D01*
X0313Y025D02*
X0315Y0252D01*
X03017Y025D02*
X0313D01*
X033452Y025189D02*
X034263Y026D01*
X0325Y025189D02*
X033452D01*
X02995Y04775D02*
X03075Y04855D01*
X032649D01*
X03017Y024D02*
X032728D01*
X0325Y024611D02*
X032728Y024383D01*
X031111Y039801D02*
Y0412D01*
X0481Y046989D02*
X048361Y04725D01*
X0287Y0389D02*
Y039773D01*
Y039873D01*
X028711Y039884D02*
Y04115D01*
Y0412D01*
X03111Y03934D02*
Y0398D01*
D28*
X0309Y036527D02*
X031111Y036316D01*
X032848Y031294D02*
X032861Y031306D01*
Y032272D01*
X03265Y0325D02*
X03285Y0323D01*
X03155Y0325D02*
X03265D01*
X032811Y033291D02*
Y03425D01*
X032357Y03484D02*
X032861Y034336D01*
X0287Y034D02*
X0295Y0332D01*
X03026D01*
X03027Y03321D01*
X03084D01*
X03155Y0325D01*
X0287Y034D02*
Y036427D01*
Y036527D01*
X03027Y03421D02*
X031111Y035051D01*
Y036316D01*
X031321Y03484D02*
X032357D01*
X031111Y035051D02*
X031321Y03484D01*
D29*
X0451Y02185D02*
X0512D01*
X05155Y0222D01*
X04115Y047727D02*
Y04815D01*
Y0307D02*
Y04765D01*
X05155Y0444D02*
Y04795D01*
X0498Y0497D02*
X05155Y04795D01*
X0424Y0497D02*
X0498D01*
X04115Y04845D02*
X0424Y0497D01*
X05155Y0392D02*
Y0444D01*
Y0222D02*
Y0392D01*
D30*
X0378Y0307D02*
X04115D01*
X033217Y02612D02*
X033337Y026D01*
X0284Y02612D02*
X033217D01*
X02835Y01625D02*
X041786D01*
X0272Y0174D02*
X02835Y01625D01*
X0272Y0174D02*
Y04175D01*
X0425Y016964D02*
Y0187D01*
X041786Y01625D02*
X0425Y016964D01*
X02875Y0175D02*
X035675D01*
X0284Y01785D02*
X02875Y0175D01*
X0428Y047727D02*
X043773D01*
X035675Y0175D02*
X036875Y0187D01*
X04115Y047727D02*
X0428D01*
X0284Y01785D02*
Y02612D01*
Y0299D01*
D31*
X033197Y030387D02*
X03425Y03144D01*
X033439Y032272D02*
Y0331D01*
X03425D01*
X033439Y0342D02*
X03405D01*
X0272Y04175D02*
X02735Y0419D01*
X031689Y0412D02*
X031716Y041227D01*
Y041684D01*
X0315Y0419D02*
X031716Y041684D01*
X02925Y0419D02*
X0315D01*
X03425Y03144D02*
Y0331D01*
Y034D01*
X03405Y0342D02*
X03425Y034D01*
X02735Y0419D02*
X02925D01*
X029289Y041861D01*
Y0412D02*
Y041861D01*
X0284Y0299D02*
X028887Y030387D01*
X033197D01*
D32*
X03505Y028D02*
Y03485D01*
X034439Y028774D02*
X034465Y0288D01*
X034439Y028026D02*
X034465Y028D01*
X033722Y028026D02*
X034439D01*
X0351Y02365D02*
Y0261D01*
X033983Y044467D02*
X034Y04445D01*
X04705Y04385D02*
Y0478D01*
X0438Y0427D02*
X0459D01*
X03775Y03465D02*
X0378Y0347D01*
X04745Y0482D02*
X048411D01*
X04705Y0478D02*
X04745Y0482D01*
X033722Y024424D02*
X033748Y02445D01*
X0351Y0261D02*
X0357Y0267D01*
X03505Y03485D02*
X0359Y0357D01*
X0363Y03465D02*
X03775D01*
X0357Y03405D02*
X0363Y03465D01*
X0357Y0267D02*
Y03405D01*
X0483Y04005D02*
X049361D01*
X04795Y0397D02*
X0483Y04005D01*
X04795Y0384D02*
Y0397D01*
Y0384D02*
X0489Y03745D01*
X0482Y04085D02*
X04935D01*
X0473Y03995D02*
X0482Y04085D01*
X0473Y0382D02*
Y03995D01*
Y0382D02*
X04805Y03745D01*
X0459Y0427D02*
X04705Y04385D01*
X033921Y0428D02*
X033985Y042737D01*
X03265Y0428D02*
X033921D01*
X032663Y044467D02*
X033983D01*
X0359Y0357D02*
X0378D01*
D33*
X0489Y03465D02*
Y03745D01*
X033967Y04615D02*
X03605D01*
X034Y04445D02*
X03565D01*
X0359Y0442D01*
X0438Y0347D02*
X0474D01*
X0438Y0337D02*
X04795D01*
X04805Y03535D02*
Y03745D01*
X04795Y0337D02*
X0489Y03465D01*
X0474Y0347D02*
X04805Y03535D01*
X0365Y042D02*
Y0457D01*
X03605Y04615D02*
X0365Y0457D01*
X0359Y0416D02*
Y0442D01*
X034Y04275D02*
X0352D01*
X0365Y042D02*
X0378Y0407D01*
X0359Y0416D02*
X0378Y0397D01*
X0377Y0417D02*
X0378D01*
X0354Y0411D02*
X0378Y0387D01*
X0354Y0411D02*
Y04255D01*
X0352Y04275D02*
X0354Y04255D01*
X03715Y04225D02*
X0377Y0417D01*
X032649Y04448D02*
X032663Y044467D01*
X032649Y042801D02*
X03265Y0428D01*
X032649Y042801D02*
Y04345D01*
Y04448D02*
Y04515D01*
X03715Y04225D02*
Y0474D01*
X03665Y0479D02*
X03715Y0474D01*
X034067Y0479D02*
X03665D01*
D34*
X050027Y04435D02*
X050077Y0444D01*
X05155D01*
X043773Y047727D02*
X0438Y0477D01*
X050011Y03925D02*
X050061Y0392D01*
X05155D01*
X03115Y0478D02*
X031737D01*
X03115Y0478D02*
X03115Y0478D01*
X031167Y046133D02*
X031737D01*
X031167Y044467D02*
X031737D01*
X03115Y0428D02*
X031725D01*
X035424Y044824D02*
X03545Y04485D01*
X034851Y048274D02*
X035424D01*
X03545Y0483D01*
X034851Y046537D02*
X035437D01*
X034851Y044824D02*
X035424D01*
X034851Y043111D02*
X035439D01*
X03545Y0431D01*
D35*
X05005Y03745D02*
D03*
X04805D02*
D03*
X04905D02*
D03*
X0501Y0455D02*
D03*
X0481D02*
D03*
X0491D02*
D03*
D36*
X04705Y03745D02*
D03*
X0471Y0455D02*
D03*
D37*
X0294Y0187D02*
D03*
X0405D02*
D03*
X034875D02*
D03*
D38*
X0314D02*
D03*
X0425D02*
D03*
X036875D02*
D03*
D39*
X0378Y0477D02*
D03*
D40*
Y0467D02*
D03*
Y0457D02*
D03*
Y0447D02*
D03*
Y0437D02*
D03*
Y0427D02*
D03*
Y0417D02*
D03*
Y0407D02*
D03*
Y0397D02*
D03*
Y0387D02*
D03*
Y0377D02*
D03*
Y0367D02*
D03*
Y0357D02*
D03*
Y0347D02*
D03*
Y0337D02*
D03*
Y0327D02*
D03*
Y0317D02*
D03*
Y0307D02*
D03*
Y0297D02*
D03*
Y0287D02*
D03*
X0438D02*
D03*
Y0297D02*
D03*
Y0307D02*
D03*
Y0317D02*
D03*
Y0327D02*
D03*
Y0337D02*
D03*
Y0347D02*
D03*
Y0357D02*
D03*
Y0367D02*
D03*
Y0377D02*
D03*
Y0387D02*
D03*
Y0397D02*
D03*
Y0407D02*
D03*
Y0417D02*
D03*
Y0427D02*
D03*
Y0437D02*
D03*
Y0447D02*
D03*
Y0457D02*
D03*
Y0467D02*
D03*
Y0477D02*
D03*
D41*
X03027Y03321D02*
D03*
Y03421D02*
D03*
X0302Y029401D02*
D03*
X03017Y025D02*
D03*
D42*
X03027Y03221D02*
D03*
X0302Y028401D02*
D03*
X03017Y024D02*
D03*
D43*
X02995Y04775D02*
D03*
Y04675D02*
D03*
Y04575D02*
D03*
Y04475D02*
D03*
D44*
Y04375D02*
D03*
D45*
X0445Y0275D02*
D03*
X043D02*
D03*
X0415D02*
D03*
X04D02*
D03*
X0385D02*
D03*
X0505Y0245D02*
D03*
Y026D02*
D03*
Y0275D02*
D03*
Y029D02*
D03*
Y0305D02*
D03*
Y032D02*
D03*
Y0335D02*
D03*
Y035D02*
D03*
X0291Y0295D02*
D03*
Y029D02*
D03*
Y0285D02*
D03*
Y028D02*
D03*
Y0275D02*
D03*
Y027D02*
D03*
X039Y0294D02*
D03*
X0291Y0215D02*
D03*
Y022D02*
D03*
Y0225D02*
D03*
Y023D02*
D03*
Y0235D02*
D03*
Y024D02*
D03*
Y0245D02*
D03*
Y025D02*
D03*
X0494Y0434D02*
D03*
X05D02*
D03*
X0402Y046D02*
D03*
X042D02*
D03*
X043Y0489D02*
D03*
X0435D02*
D03*
X044D02*
D03*
X0445D02*
D03*
X045D02*
D03*
X0455D02*
D03*
X0507Y0475D02*
D03*
X0495Y0489D02*
D03*
X049D02*
D03*
X0485D02*
D03*
X048D02*
D03*
X0475D02*
D03*
X047D02*
D03*
X0465D02*
D03*
X046D02*
D03*
X0505Y0415D02*
D03*
Y042D02*
D03*
Y0425D02*
D03*
Y043D02*
D03*
Y0205D02*
D03*
X0495D02*
D03*
X0485D02*
D03*
X0475D02*
D03*
X0465D02*
D03*
X0505Y023D02*
D03*
X0495D02*
D03*
X0485D02*
D03*
X0475D02*
D03*
X0465D02*
D03*
X0315Y022D02*
D03*
X031Y0215D02*
D03*
X0305Y021D02*
D03*
X03Y0205D02*
D03*
X0355Y0222D02*
D03*
X0345D02*
D03*
X0335D02*
D03*
X0325D02*
D03*
X045Y0295D02*
D03*
X042D02*
D03*
X045Y0315D02*
D03*
X042D02*
D03*
X037Y032D02*
D03*
Y0335D02*
D03*
X045Y048D02*
D03*
Y0385D02*
D03*
Y041D02*
D03*
Y0435D02*
D03*
X034Y0395D02*
D03*
X033D02*
D03*
X034Y0375D02*
D03*
X033D02*
D03*
X0315D02*
D03*
X0305D02*
D03*
X0295D02*
D03*
X037Y0225D02*
D03*
Y0235D02*
D03*
Y0245D02*
D03*
Y0255D02*
D03*
Y0265D02*
D03*
X0323Y03125D02*
D03*
X0309Y031D02*
D03*
X0279D02*
D03*
Y033D02*
D03*
Y0335D02*
D03*
Y03475D02*
D03*
Y0378D02*
D03*
Y039D02*
D03*
Y0403D02*
D03*
X0507Y0398D02*
D03*
X0487Y0393D02*
D03*
X0402Y0488D02*
D03*
X0397D02*
D03*
X0392D02*
D03*
X0387D02*
D03*
X0382D02*
D03*
X0377D02*
D03*
X0372D02*
D03*
X0367D02*
D03*
X0362D02*
D03*
X0302Y0425D02*
D03*
X0297D02*
D03*
X0292D02*
D03*
X0287D02*
D03*
X0282D02*
D03*
X0277D02*
D03*
X0337Y0434D02*
D03*
Y0451D02*
D03*
Y0469D02*
D03*
Y0485D02*
D03*
X0402Y0335D02*
D03*
Y036D02*
D03*
Y0385D02*
D03*
Y041D02*
D03*
Y0435D02*
D03*
X042Y0335D02*
D03*
Y036D02*
D03*
Y0385D02*
D03*
Y041D02*
D03*
Y0435D02*
D03*
X041Y0215D02*
D03*
X0415D02*
D03*
X042D02*
D03*
X0425D02*
D03*
Y022D02*
D03*
X042D02*
D03*
X0415D02*
D03*
Y0225D02*
D03*
X042D02*
D03*
X0425D02*
D03*
Y023D02*
D03*
X042D02*
D03*
X0415D02*
D03*
Y0235D02*
D03*
X042D02*
D03*
X0425D02*
D03*
Y024D02*
D03*
X042D02*
D03*
X0415D02*
D03*
X0495Y0505D02*
D03*
X05D02*
D03*
X049D02*
D03*
X0485D02*
D03*
X048D02*
D03*
X0475D02*
D03*
X047D02*
D03*
X0465D02*
D03*
X046D02*
D03*
X0455D02*
D03*
X045D02*
D03*
X0445D02*
D03*
X044D02*
D03*
X0435D02*
D03*
X043D02*
D03*
X0425D02*
D03*
X042D02*
D03*
X0415D02*
D03*
X041D02*
D03*
X0405D02*
D03*
X04D02*
D03*
X0395D02*
D03*
X039D02*
D03*
X0385D02*
D03*
X038D02*
D03*
X0375D02*
D03*
X037D02*
D03*
X0365D02*
D03*
X036D02*
D03*
X0355D02*
D03*
X035D02*
D03*
X0345D02*
D03*
X034D02*
D03*
X0335D02*
D03*
X033D02*
D03*
X0325D02*
D03*
X032D02*
D03*
X0315D02*
D03*
X031D02*
D03*
X0305D02*
D03*
X03D02*
D03*
X0295D02*
D03*
X029D02*
D03*
X0285D02*
D03*
X028D02*
D03*
X05Y0151D02*
D03*
X0495D02*
D03*
X049D02*
D03*
X0485D02*
D03*
X048D02*
D03*
X0475D02*
D03*
X047D02*
D03*
X0465D02*
D03*
X046D02*
D03*
X0455D02*
D03*
X045D02*
D03*
X0445D02*
D03*
X044D02*
D03*
X0435D02*
D03*
X043D02*
D03*
X0425D02*
D03*
X042D02*
D03*
X0415D02*
D03*
X041D02*
D03*
X0405D02*
D03*
X04D02*
D03*
X0395D02*
D03*
X039D02*
D03*
X0385D02*
D03*
X038D02*
D03*
X0375D02*
D03*
X037D02*
D03*
X0365D02*
D03*
X036D02*
D03*
X0355D02*
D03*
X035D02*
D03*
X0345D02*
D03*
X034D02*
D03*
X0335D02*
D03*
X033D02*
D03*
X0325D02*
D03*
X032D02*
D03*
X0315D02*
D03*
X031D02*
D03*
X0305D02*
D03*
X03D02*
D03*
X0295D02*
D03*
X029D02*
D03*
X0285D02*
D03*
X0525Y0175D02*
D03*
Y018D02*
D03*
Y0185D02*
D03*
Y019D02*
D03*
Y0195D02*
D03*
Y02D02*
D03*
Y0205D02*
D03*
Y021D02*
D03*
Y0215D02*
D03*
Y022D02*
D03*
Y023D02*
D03*
Y0225D02*
D03*
Y0235D02*
D03*
Y024D02*
D03*
Y0245D02*
D03*
Y025D02*
D03*
Y0255D02*
D03*
Y026D02*
D03*
Y0265D02*
D03*
Y027D02*
D03*
Y0275D02*
D03*
Y028D02*
D03*
Y0285D02*
D03*
Y029D02*
D03*
Y0295D02*
D03*
Y03D02*
D03*
Y0305D02*
D03*
Y031D02*
D03*
Y0315D02*
D03*
Y032D02*
D03*
Y0325D02*
D03*
Y033D02*
D03*
Y0335D02*
D03*
Y034D02*
D03*
Y0345D02*
D03*
Y035D02*
D03*
Y0355D02*
D03*
Y036D02*
D03*
Y0365D02*
D03*
Y037D02*
D03*
Y0375D02*
D03*
Y038D02*
D03*
Y0385D02*
D03*
Y039D02*
D03*
Y0395D02*
D03*
Y04D02*
D03*
Y0405D02*
D03*
Y041D02*
D03*
Y0415D02*
D03*
Y042D02*
D03*
Y0425D02*
D03*
Y043D02*
D03*
Y0435D02*
D03*
Y044D02*
D03*
Y0445D02*
D03*
Y045D02*
D03*
Y0455D02*
D03*
Y046D02*
D03*
Y0465D02*
D03*
Y047D02*
D03*
Y0475D02*
D03*
Y048D02*
D03*
X026Y0175D02*
D03*
Y018D02*
D03*
Y0185D02*
D03*
Y019D02*
D03*
Y0195D02*
D03*
Y02D02*
D03*
Y0205D02*
D03*
Y021D02*
D03*
Y0215D02*
D03*
Y022D02*
D03*
Y0225D02*
D03*
Y023D02*
D03*
Y0235D02*
D03*
Y024D02*
D03*
Y0245D02*
D03*
Y025D02*
D03*
Y0255D02*
D03*
Y026D02*
D03*
Y0265D02*
D03*
Y027D02*
D03*
Y0275D02*
D03*
Y028D02*
D03*
Y0285D02*
D03*
Y029D02*
D03*
Y0295D02*
D03*
Y03D02*
D03*
Y0305D02*
D03*
Y031D02*
D03*
Y0315D02*
D03*
Y032D02*
D03*
Y0325D02*
D03*
Y033D02*
D03*
Y0335D02*
D03*
Y034D02*
D03*
Y0345D02*
D03*
Y035D02*
D03*
Y0355D02*
D03*
Y036D02*
D03*
Y0365D02*
D03*
Y037D02*
D03*
Y0375D02*
D03*
Y038D02*
D03*
Y0385D02*
D03*
Y039D02*
D03*
Y0395D02*
D03*
Y04D02*
D03*
Y0405D02*
D03*
Y041D02*
D03*
Y0415D02*
D03*
Y042D02*
D03*
Y0425D02*
D03*
Y043D02*
D03*
Y0435D02*
D03*
Y044D02*
D03*
Y0445D02*
D03*
Y0455D02*
D03*
Y045D02*
D03*
Y046D02*
D03*
Y0465D02*
D03*
Y047D02*
D03*
Y0475D02*
D03*
Y048D02*
D03*
Y0485D02*
D03*
X0381Y0248D02*
D03*
X04081Y02357D02*
D03*
D46*
X0519Y0157D02*
D03*
X0267D02*
D03*
X0519Y0498D02*
D03*
X0267D02*
D03*
D47*
X03115Y0478D02*
D03*
X031167Y046133D02*
D03*
X031167Y044467D02*
D03*
X03115Y0428D02*
D03*
X041Y04765D02*
D03*
Y04815D02*
D03*
X03545Y04485D02*
D03*
Y0483D02*
D03*
X035437Y046537D02*
D03*
X03545Y0431D02*
D03*
X0449Y0209D02*
D03*
M02*
